SplineFontDB: 3.0
FontName: Crimson-Bold
FullName: Crimson Bold
FamilyName: Crimson
Weight: Bold
Copyright: Copyright (c) 2010, Sebastian Kosch (sebastian@aldusleaf.org),\nwith Reserved Font Name "Crimson".\nThis Font Software is licensed under the SIL Open Font License, Version 1.1.\nThis license is available with a FAQ at: http://scripts.sil.org/OFL
UComments: "2010-5-14: Created." 
Version: 0.8
ItalicAngle: 0
UnderlinePosition: -102
UnderlineWidth: 51
Ascent: 819
Descent: 205
LayerCount: 2
Layer: 0 0 "Back"  1
Layer: 1 0 "Fore"  0
XUID: [1021 85 519305545 5082149]
FSType: 0
OS2Version: 0
OS2_WeightWidthSlopeOnly: 0
OS2_UseTypoMetrics: 1
CreationTime: 1273891947
PfmFamily: 17
TTFWeight: 700
TTFWidth: 5
LineGap: 92
VLineGap: 0
OS2TypoAscent: 717
OS2TypoAOffset: 0
OS2TypoDescent: -307
OS2TypoDOffset: 0
OS2TypoLinegap: 92
OS2WinAscent: 0
OS2WinAOffset: 1
OS2WinDescent: 0
OS2WinDOffset: 1
HheadAscent: 717
HheadAOffset: 0
HheadDescent: -307
HheadDOffset: 0
OS2SubXSize: 665
OS2SubYSize: 716
OS2SubXOff: 0
OS2SubYOff: 143
OS2SupXSize: 665
OS2SupYSize: 716
OS2SupXOff: 0
OS2SupYOff: 491
OS2StrikeYSize: 51
OS2StrikeYPos: 265
OS2Vendor: 'PfEd'
Lookup: 1 0 0 "'ccmp' Turkish i"  {"'ccmp' Turkish i-1"  } ['ccmp' ('latn' <'TRK ' > ) ]
Lookup: 1 0 0 "'smcp' Lowercase to Small Capitals in Latin lookup 0"  {"'smcp' Lowercase to Small Capitals in Latin lookup 0 subtable" ("sc" ) } ['smcp' ('DFLT' <'dflt' > 'latn' <'TRK ' 'dflt' > ) ]
Lookup: 1 0 0 "'c2sc' Capitals to Small Capitals in Latin lookup 0"  {"'c2sc' Capitals to Small Capitals in Latin lookup 0 subtable"  } ['c2sc' ('DFLT' <'dflt' > 'latn' <'TRK ' 'dflt' > ) ]
Lookup: 4 0 1 "'liga' Standard Ligatures lookup 0"  {"'liga' Standard Ligatures lookup 0-1"  } ['liga' ('DFLT' <'dflt' > 'cyrl' <'dflt' > 'grek' <'dflt' > 'latn' <'TRK ' 'dflt' > ) ]
Lookup: 258 0 0 "'kern' Horizontal Kerning in Latin lookup 0"  {"'kern' Horizontal Kerning in Latin lookup 0 kerning class 1" [153,0,0] } ['kern' ('latn' <'TRK ' 'dflt' > ) ]

StartChar: exclam
Encoding: 33 33 1
Width: 270
Flags: W
HStem: -11 150<81.25 185.969> 622 20G<120 153.5>
VStem: 59 150<12.2802 116> 72 128<370.997 626.241>
LayerCount: 2
Fore
SplineSet
59 66 m 0xe0
 59 106 93 139 134 139 c 27
 176 139 209 103 209 63 c 0
 209 23 176 -11 135 -11 c 27
 93 -11 59 23 59 66 c 0xe0
138 642 m 0
 169 642 200 617 200 574 c 0
 200 546 171 309 158 221 c 1
 154 208 150 199 138 195 c 1
 133 195 121 202 115 212 c 1
 104 279 72 524 72 575 c 0xd0
 72 617 102 642 138 642 c 0
EndSplineSet
Substitution2: "'smcp' Lowercase to Small Capitals in Latin lookup 0 subtable" exclam.sc
EndChar

StartChar: quotedbl
Encoding: 34 34 2
Width: 331
Flags: W
HStem: 431 269<75.1769 111.588 235.177 271.588>
VStem: 36 93<508.041 678.334> 196 93<508.041 678.334>
LayerCount: 2
Fore
SplineSet
258 700 m 0
 272 700 280 696 289 684 c 1
 289 650 279 516 272 454 c 1
 268 447 257 436 248 431 c 1
 244 431 240 434 238 439 c 1
 213 524 196 584 196 617 c 0
 196 650 220 700 258 700 c 0
98 700 m 0
 112 700 120 696 129 684 c 1
 129 650 119 516 112 454 c 1
 108 447 97 436 88 431 c 1
 84 431 80 434 78 439 c 1
 53 524 36 584 36 617 c 0
 36 650 60 700 98 700 c 0
EndSplineSet
EndChar

StartChar: numbersign
Encoding: 35 35 3
Width: 475
UnlinkRmOvrlpSave: 1
Flags: W
HStem: 148 67<61.4228 386.356> 339 67<88.5013 414.29>
LayerCount: 2
Fore
SplineSet
408.234 339 m 1
 249.234 339 249.234 339 79.2344 339 c 1
 67.2344 339 82.2344 402 95.2344 406 c 9
 421.234 406 l 17
 435.234 406 421.234 345 408.234 339 c 1
380.234 148 m 1
 221.234 148 221.234 148 51.2344 148 c 1
 39.2344 148 55.2344 211 68.2344 215 c 9
 394.234 215 l 17
 408.234 215 393.234 154 380.234 148 c 1
379.234 528 m 1
 300.234 36 l 2
 299.234 32 284.234 23 269.234 23 c 0
 259.234 23 258.234 27 258.234 27 c 1
 337.234 518 l 1
 340.234 527 347.234 531 366.234 531 c 0
 375.234 531 376.234 530 379.234 528 c 1
218.234 528 m 1
 138.234 36 l 2
 137.234 32 123.234 23 108.234 23 c 0
 98.2344 23 97.2344 27 97.2344 27 c 1
 176.234 518 l 1
 179.234 527 186.234 531 205.234 531 c 0
 214.234 531 215.234 530 218.234 528 c 1
EndSplineSet
EndChar

StartChar: dollar
Encoding: 36 36 4
Width: 518
UnlinkRmOvrlpSave: 1
Flags: W
HStem: -10 40<222.611 309.248> 450 21G<424.5 428> 601 40<213.095 279.092> 648 20G<284.738 292>
VStem: 54 40<131.239 189.022> 61 127<462.101 543.456> 174 39<-35.9908 4.01404> 288 39<624.049 664.779> 342 126<88.2504 184.301> 397 39<450.001 513.559>
LayerCount: 2
Fore
SplineSet
265 641 m 0xf580
 321 641 368 626 426 614 c 1
 431 563 433 513 436 455 c 1
 433 451 430 450 426 450 c 0
 423 450 399 448 397 456 c 0
 389 510 344 601 270 601 c 0
 233 601 188 582 188 518 c 0xf540
 188 459 264 401 327 361 c 0
 391 320 468 294 468 167 c 0
 468 62 364 -10 259 -10 c 0
 203 -10 134 2 77 15 c 1
 67 57 56 151 54 178 c 1
 58 184 77 191 82 191 c 0
 89 191 93 189 94 183 c 0xf980
 103 131 163 30 249 30 c 0
 285 30 342 47 342 124 c 0
 342 199 249 249 201 282 c 0
 131 329 61 368 61 468 c 0
 61 567 166 641 265 641 c 0xf580
288 668 m 17
 296 668 327 667 327 660 c 9
 213 -40 l 17
 204 -40 174 -38 174 -31 c 9xf3
 288 668 l 17
EndSplineSet
EndChar

StartChar: percent
Encoding: 37 37 5
Width: 686
Flags: W
HStem: 0 31<467.28 532.815> 274 30<451.791 517.192> 337 31<170.28 235.815> 611 30<154.791 220.192>
VStem: 39 95<408.108 565.734> 257 95<412.743 570.7> 336 95<71.1076 228.734> 554 95<75.7433 233.7>
LayerCount: 2
Fore
SplineSet
187 611 m 3xfd
 138 611 134 548 134 500 c 24
 134 442 154 368 203 368 c 3
 252 368 257 430 257 477 c 24
 257 536 236 611 187 611 c 3xfd
195 641 m 0
 287 641 352 577 352 492 c 0
 352 408 284 337 196 337 c 0
 103 337 39 403 39 487 c 0
 39 571 107 641 195 641 c 0
484 274 m 3
 435 274 431 211 431 163 c 24xfb
 431 105 451 31 500 31 c 3
 549 31 554 93 554 140 c 24
 554 199 533 274 484 274 c 3
492 304 m 0
 584 304 649 240 649 155 c 0
 649 71 581 0 493 0 c 0
 400 0 336 66 336 150 c 0
 336 234 404 304 492 304 c 0
623 635 m 1
 107 -5 l 2
 103 -11 83 -20 66 -20 c 0
 51 -20 51 -8 51 -8 c 1
 567 632 l 1
 575 639 590 645 607 645 c 0
 616 645 623 640 623 635 c 1
EndSplineSet
EndChar

StartChar: ampersand
Encoding: 38 38 6
Width: 696
Flags: W
HStem: -4 76<195.5 346.851> -3 83<492 573.669> 280 32<480.172 530.879 608.817 679.93> 609 36<276.539 345.492>
VStem: 56 130<137.885 247.308> 139 116<447.772 573.657> 369 103<455.616 587.791>
LayerCount: 2
Fore
SplineSet
382 95 m 1xba
 354 133 259 264 224 313 c 1
 202 294 186 266 186 220 c 0
 186 154 227 72 318 72 c 0
 352 72 369 84 382 95 c 1xba
312 609 m 0
 277 609 255 574 255 526 c 0x36
 255 474 287 430 304 407 c 1
 348 430 369 467 369 513 c 0
 369 545 357 609 312 609 c 0
295 645 m 0
 396 645 472 599 472 529 c 0
 472 439 391 391 330 370 c 1
 358 333 439 222 470 181 c 1
 494 209 531 250 531 262 c 0
 531 285 489 278 482 280 c 1
 478 286 478 310 483 312 c 1
 551 311 l 2
 586 310 634 312 679 314 c 1
 683 312 683 287 677 281 c 1
 670 280 625 280 608 266 c 0
 594 255 525 173 498 145 c 1
 505 137 550 80 572 80 c 0
 600 80 625 119 636 133 c 1
 645 133 656 125 661 115 c 1
 657 103 581 -3 519 -3 c 3x76
 465 -3 437 28 409 60 c 1
 364 17 304 -4 237 -4 c 3
 154 -4 56 55 56 156 c 0xba
 56 273 142 320 196 354 c 1
 175 385 139 423 139 490 c 0
 139 580 201 645 295 645 c 0
EndSplineSet
EndChar

StartChar: quotesingle
Encoding: 39 39 7
Width: 181
Flags: W
HStem: 451 260<83.1421 120.807>
VStem: 33 111<531.556 686.937>
LayerCount: 2
Fore
SplineSet
106 711 m 0
 122 711 137 704 144 689 c 1
 139 626 133 539 121 470 c 1
 117 464 106 455 95 451 c 1
 91 451 86 453 83 457 c 1
 61 515 33 580 33 627 c 0
 33 671 64 711 106 711 c 0
EndSplineSet
EndChar

StartChar: parenleft
Encoding: 40 40 8
Width: 291
Flags: W
VStem: 33 111<147.177 462.823>
LayerCount: 2
Fore
SplineSet
144 305 m 0
 144 74 242 -76 281 -110 c 1
 282 -113 277 -134 272 -137 c 1
 197 -103 33 36 33 305 c 0
 33 574 197 713 272 747 c 1
 277 744 282 723 281 720 c 1
 242 686 144 536 144 305 c 0
EndSplineSet
Substitution2: "'smcp' Lowercase to Small Capitals in Latin lookup 0 subtable" parenleft.sc
EndChar

StartChar: parenright
Encoding: 41 41 9
Width: 291
Flags: W
VStem: 147.129 111<147.177 462.823>
LayerCount: 2
Fore
SplineSet
258.129 305 m 0
 258.129 36 94.1289 -103 19.1289 -137 c 1
 14.1289 -134 9.12891 -113 10.1289 -110 c 1
 49.1289 -76 147.129 74 147.129 305 c 0
 147.129 536 49.1289 686 10.1289 720 c 1
 9.12891 723 14.1289 744 19.1289 747 c 1
 94.1289 713 258.129 574 258.129 305 c 0
EndSplineSet
Substitution2: "'smcp' Lowercase to Small Capitals in Latin lookup 0 subtable" parenright.sc
EndChar

StartChar: asterisk
Encoding: 42 42 10
Width: 441
Flags: W
HStem: 424 89<42.1699 143.657>
VStem: 154.42 91<309.181 407.934>
LayerCount: 2
Fore
SplineSet
287.42 618 m 0
 308.42 642 341.42 640 356.42 626 c 0
 372.42 610 376.42 581 355.42 557 c 0
 323.42 521 286.42 533 258.42 506 c 1
 258.42 506 251.42 498 251.42 493 c 0
 251.42 489 254.42 487 259.42 485 c 0
 294.42 469 321.42 485 365.42 466 c 0
 394.42 454 403.42 421 394.42 402 c 0
 384.42 382 357.42 370 328.42 382 c 0
 284.42 401 283.42 440 249.42 458 c 1
 249.42 458 239.42 464 235.42 461 c 0
 233.42 460 232.42 459 231.42 453 c 0
 227.42 415 250.42 395 245.42 347 c 0
 242.42 316 214.42 298 194.42 300 c 0
 172.42 304 151.42 325 154.42 356 c 0
 159.42 404 195.42 417 202.42 455 c 1
 202.42 455 203.42 465 200.42 469 c 0
 199.42 471 197.42 471 191.42 470 c 0
 154.42 462 141.42 435 94.4199 424 c 0
 63.4199 417 38.4199 438 34.4199 458 c 0
 31.4199 480 44.4199 506 75.4199 513 c 0
 122.42 524 145.42 493 184.42 498 c 1
 184.42 498 196.42 499 197.42 504 c 0
 198.42 507 196.42 510 193.42 515 c 0
 174.42 548 144.42 551 119.42 593 c 0
 103.42 620 115.42 651 133.42 661 c 0
 153.42 671 182.42 666 198.42 639 c 0
 223.42 597 200.42 566 217.42 531 c 1
 217.42 531 222.42 521 227.42 520 c 0
 229.42 520 232.42 520 236.42 524 c 0
 262.42 552 255.42 582 287.42 618 c 0
EndSplineSet
EndChar

StartChar: plus
Encoding: 43 43 11
Width: 542
Flags: W
HStem: 217 58<33.3928 240 299 508.297>
VStem: 241 58<11.0188 217 275 482.557>
LayerCount: 2
Fore
SplineSet
241 474 m 1
 252 483 279 485 283 485 c 0
 293 485 299 483 299 476 c 2
 298 275 l 1
 502 275 l 2
 508 275 511 267 511 261 c 0
 511 240 505 227 497 217 c 1
 299 217 l 1
 299 19 l 1
 287 11 262 8 252 8 c 0
 246 8 241 12 241 16 c 2
 241 217 l 1
 37 217 l 2
 32 217 31 223 31 233 c 0
 31 237 33 263 41 275 c 1
 240 275 l 1
 241 474 l 1
EndSplineSet
EndChar

StartChar: comma
Encoding: 44 44 12
Width: 224
Flags: W
HStem: -157 296
VStem: 90 87<-35.4663 70>
LayerCount: 2
Fore
SplineSet
119 139 m 0
 136 139 152 131 163 123 c 1
 171 108 177 82 177 58 c 0
 177 -37 110 -122 40 -157 c 1
 29 -154 19 -139 19 -133 c 1
 38 -121 90 -76 90 -27 c 0
 90 6 42 3 42 68 c 0
 42 84 57 139 119 139 c 0
EndSplineSet
EndChar

StartChar: hyphen
Encoding: 45 45 13
Width: 375
Flags: W
HStem: 210 69<73.344 312.262>
VStem: 56 263
LayerCount: 2
Fore
SplineSet
71 267 m 1
 71 267 279 278 312 279 c 0
 316 279 319 278 319 270 c 0
 319 253 312 227 304 210 c 1
 257 207 154 203 63 199 c 0
 58 199 56 201 56 210 c 0
 56 229 64 252 71 267 c 1
EndSplineSet
EndChar

StartChar: period
Encoding: 46 46 14
Width: 234
Flags: W
HStem: -11 150<64.25 168.969>
VStem: 42 150<12.2802 116>
LayerCount: 2
Fore
SplineSet
42 66 m 0
 42 106 76 139 117 139 c 27
 159 139 192 103 192 63 c 0
 192 23 159 -11 118 -11 c 27
 76 -11 42 23 42 66 c 0
EndSplineSet
EndChar

StartChar: slash
Encoding: 47 47 15
Width: 422
Flags: W
LayerCount: 2
Fore
SplineSet
374 761 m 0
 388 761 392 757 393 753 c 1
 97 -14 l 2
 95 -21 82 -35 47 -35 c 0
 32 -35 29 -28 29 -28 c 1
 325 739 l 1
 329 747 344 761 374 761 c 0
EndSplineSet
Substitution2: "'smcp' Lowercase to Small Capitals in Latin lookup 0 subtable" slash.sc
EndChar

StartChar: zero
Encoding: 48 48 16
Width: 545
Flags: W
HStem: -3 42<240.783 314.187> 583 42<236.244 314.139>
VStem: 52 130<168.111 441.573> 363 130<174 457.716>
LayerCount: 2
Fore
SplineSet
276 583 m 0
 211 583 182 459 182 302 c 0
 182 145 225 39 276 39 c 0
 341 39 363 171 363 328 c 0
 363 485 331 583 276 583 c 0
275 625 m 0
 395 625 493 511 493 311 c 0
 493 137 395 -3 275 -3 c 0
 155 -3 52 111 52 311 c 0
 52 485 155 625 275 625 c 0
EndSplineSet
EndChar

StartChar: one
Encoding: 49 49 17
Width: 545
Flags: W
HStem: -4 37<148.721 214.998 361.002 427.279> 623 20G<346.5 353>
VStem: 223 130<41.2661 533.021>
LayerCount: 2
Fore
SplineSet
223 145 m 2
 223 482 l 2
 223 526 218 535 202 535 c 0
 193 535 151 524 130 512 c 1
 122 516 117 525 117 531 c 0
 117 533 116 542 119 543 c 0
 234 592 345 643 348 643 c 2
 350 643 l 2
 356 643 361 629 362 624 c 1
 362 624 353 595 353 530 c 2
 353 145 l 2
 353 102 353 71 361 51 c 0
 366 38 412 34 425 33 c 1
 430 26 429 2 425 -4 c 1
 386 0 330 3 288 3 c 0
 246 3 190 0 151 -4 c 1
 147 2 146 26 151 33 c 1
 164 34 210 38 215 51 c 0
 223 71 223 102 223 145 c 2
EndSplineSet
EndChar

StartChar: two
Encoding: 50 50 18
Width: 545
Flags: W
HStem: 0 102<189 416.012> 564 78<185.499 327>
VStem: 322 131<381.569 516.668> 455 34<155.14 197.879>
LayerCount: 2
Fore
SplineSet
489 192 m 1
 478 145 435 19 429 0 c 9
 65 0 l 1
 60 5 57 13 56 18 c 1
 133 103 194 161 264 271 c 0
 310 344 322 404 322 449 c 0
 322 515 269 564 215 564 c 0
 145 564 108 501 100 493 c 1
 95 493 79 502 79 517 c 1
 96 555 167 642 279 642 c 0
 375 642 453 582 453 474 c 0
 453 413 423 354 377 300 c 0
 322 236 258 165 189 102 c 1
 361 102 l 2
 421 102 439 155 455 191 c 0
 457 196 463 198 469 198 c 0
 476 198 484 196 489 192 c 1
EndSplineSet
EndChar

StartChar: three
Encoding: 51 51 19
Width: 545
Flags: W
HStem: -6 42<205.578 307.423> 313 33<174.953 233.584> 568 74<195.879 312>
VStem: 322 117<444.081 531.989> 346 133<129.219 266.587>
LayerCount: 2
Fore
SplineSet
288 642 m 0xf0
 336 642 439 614 439 514 c 0xf0
 439 430 355 382 330 372 c 1
 362 370 479 340 479 220 c 0
 479 79 340 -6 212 -6 c 0
 147 -6 98 15 78 31 c 1
 71 40 66 64 66 74 c 0
 66 98 84 127 118 127 c 0
 145 127 166 99 182 80 c 0
 200 59 226 36 252 36 c 0
 314 36 346 88 346 178 c 0xe8
 346 253 305 322 238 322 c 0
 232 322 208 320 182 313 c 1
 178 318 174 329 174 337 c 0
 174 341 173 343 174 346 c 1
 231 356 322 387 322 458 c 0
 322 519 288 568 228 568 c 0
 174 568 125 524 118 516 c 1
 111 518 106 535 106 544 c 1
 143 593 208 642 288 642 c 0xf0
EndSplineSet
EndChar

StartChar: four
Encoding: 52 52 20
Width: 545
Flags: W
HStem: -5 21G<353 391> 174 68<134 312 438 495.879> 624 20G<408 415>
VStem: 312 126<-1.13096 174 242 466>
LayerCount: 2
Fore
SplineSet
412 644 m 0
 418 644 438 628 438 616 c 10
 438 242 l 25
 484 242 l 2
 491 242 498 224 498 195 c 0
 498 180 488 174 488 174 c 9
 438 174 l 25
 438 4 l 17
 438 4 412 -5 370 -5 c 0
 336 -5 312 -1 312 8 c 2
 312 174 l 25
 58 174 l 17
 50 178 48 186 48 199 c 1
 168 348 286 498 392 630 c 0
 399 638 404 644 412 644 c 0
312 466 m 17
 134 242 l 1
 312 242 l 1
 312 466 l 17
EndSplineSet
EndChar

StartChar: five
Encoding: 53 53 21
Width: 545
Flags: W
HStem: -6 42<208.235 310.032> 328 95<171.819 326> 527 108<189.562 408.56> 626 20G<428 437.5>
VStem: 349 128<137.052 255.276>
LayerCount: 2
Fore
SplineSet
277 423 m 0xe8
 375 423 477 335 477 230 c 0
 477 89 343 -6 215 -6 c 0
 150 -6 100 15 80 31 c 1
 73 40 68 64 68 74 c 0
 68 98 86 127 120 127 c 0
 147 127 168 99 184 80 c 0
 202 59 229 36 255 36 c 0
 317 36 349 88 349 178 c 0
 349 269 268 328 211 328 c 0
 148 328 129 318 119 314 c 1
 113 314 109 328 109 334 c 1
 110 337 157 585 165 635 c 1
 208 635 279 635 343 635 c 0xe8
 385 635 421 643 435 646 c 1xd8
 440 644 448 643 448 632 c 0
 448 615 418 549 411 536 c 1
 359 531 304 529 261 528 c 0
 229 527 204 527 194 527 c 1
 192 517 171 410 171 410 c 1
 196 416 240 423 277 423 c 0xe8
EndSplineSet
EndChar

StartChar: six
Encoding: 54 54 22
Width: 545
Flags: W
HStem: -6 42<237.975 315.478> 346 59<220.01 306.393> 619 26<417.02 442.755>
VStem: 65 131<132.653 330.875> 349 131<118.753 295.085>
LayerCount: 2
Fore
SplineSet
203 327 m 1
 198 292 196 249 196 221 c 0
 196 137 216 36 280 36 c 0
 319 36 349 92 349 182 c 0
 349 267 324 346 253 346 c 0
 241 346 217 341 203 327 c 1
297 405 m 0
 394 405 480 352 480 207 c 0
 480 90 375 -6 269 -6 c 0
 157 -6 65 112 65 242 c 3
 65 353 122 449 181 511 c 0
 267 602 369 636 437 645 c 1
 445 639 446 629 444 619 c 1
 318 567 247 481 215 380 c 1
 241 395 272 405 297 405 c 0
EndSplineSet
EndChar

StartChar: seven
Encoding: 55 55 23
Width: 545
Flags: W
HStem: -11 21G<167.5 172> 536 100<124.302 404>
VStem: 58 36<446.097 495.277>
LayerCount: 2
Fore
SplineSet
390 637 m 2
 425 637 474 641 480 641 c 0
 486 641 487 631 487 626 c 0
 487 617 476 598 460 565 c 2
 188 -8 l 1
 184 -11 173 -11 171 -11 c 0
 164 -11 127 -6 127 13 c 1
 169 73 313 344 404 536 c 1
 173 536 l 2
 123 536 107 490 94 452 c 0
 93 449 92 447 82 446 c 0
 72 445 62 450 58 454 c 1
 71 503 95 605 102 636 c 1
 118 636 390 637 390 637 c 2
EndSplineSet
EndChar

StartChar: eight
Encoding: 56 56 24
Width: 545
Flags: W
HStem: -6 42<228.792 327.823> 592 41<226.384 305.608>
VStem: 63 131<70.2294 227.79> 78 129<443.973 553.051> 332 125<422.396 558.947> 351 131<89.4662 187.387>
LayerCount: 2
Fore
SplineSet
276 36 m 3xe4
 325 36 351 73 351 118 c 3
 351 195 270 253 240 275 c 0
 235 279 233 280 231 280 c 0
 229 280 227 281 226 279 c 0
 204 252 194 206 194 156 c 27
 194 99 217 36 276 36 c 3xe4
268 592 m 3
 231 592 207 556 207 512 c 3
 207 443 268 399 293 386 c 0
 296 384 301 381 305 381 c 0
 308 381 310 383 311 384 c 0
 329 411 332 446 332 486 c 3xd8
 332 531 313 592 268 592 c 3
270 633 m 27
 362 633 457 584 457 489 c 3xd8
 457 426 403 378 346 354 c 0
 344 353 344 350 346 349 c 0
 383 327 482 257 482 167 c 3
 482 60 375 -6 268 -6 c 27
 167 -6 63 33 63 153 c 3xe4
 63 236 131 288 191 306 c 0
 193 307 193 308 189 311 c 0
 154 341 78 392 78 486 c 3
 78 574 176 633 270 633 c 27
EndSplineSet
EndChar

StartChar: nine
Encoding: 57 57 25
Width: 545
Flags: W
HStem: -6 26<102.245 127.98> 234 59<238.607 324.99> 603 42<229.522 307.025>
VStem: 65 131<343.915 520.247> 349 131<307.987 506.347>
LayerCount: 2
Fore
SplineSet
342 312 m 1
 348 341 349 386 349 418 c 0
 349 502 329 603 265 603 c 0
 226 603 196 547 196 457 c 0
 196 372 221 293 292 293 c 0
 304 293 328 298 342 312 c 1
101 20 m 1
 227 72 298 158 330 259 c 1
 304 244 273 234 248 234 c 0
 151 234 65 287 65 432 c 0
 65 549 170 645 276 645 c 0
 388 645 480 527 480 397 c 3
 480 286 423 190 364 128 c 0
 278 37 176 3 108 -6 c 1
 100 0 99 10 101 20 c 1
EndSplineSet
EndChar

StartChar: colon
Encoding: 58 58 26
Width: 262
Flags: W
HStem: -11 150<78.25 182.969> 281 150<78.25 182.969>
VStem: 56 150<12.2802 116 304.28 408>
LayerCount: 2
Fore
SplineSet
56 358 m 0
 56 398 90 431 131 431 c 27
 173 431 206 395 206 355 c 0
 206 315 173 281 132 281 c 27
 90 281 56 315 56 358 c 0
56 66 m 0
 56 106 90 139 131 139 c 27
 173 139 206 103 206 63 c 0
 206 23 173 -11 132 -11 c 27
 90 -11 56 23 56 66 c 0
EndSplineSet
Substitution2: "'smcp' Lowercase to Small Capitals in Latin lookup 0 subtable" colon.sc
EndChar

StartChar: semicolon
Encoding: 59 59 27
Width: 254
Flags: W
HStem: 281 151<73.8889 173.448>
VStem: 49 147<305 409.243> 110 87<-35.4663 70>
LayerCount: 2
Fore
SplineSet
139 139 m 0xa0
 156 139 172 131 183 123 c 1
 191 108 197 82 197 58 c 0
 197 -37 130 -122 60 -157 c 1
 49 -154 39 -139 39 -133 c 1
 58 -121 110 -76 110 -27 c 0
 110 6 62 3 62 68 c 0
 62 84 77 139 139 139 c 0xa0
49 359 m 0xc0
 49 399 84 432 125 432 c 27
 165 432 196 399 196 359 c 0
 196 319 166 281 125 281 c 27
 83 281 49 319 49 359 c 0xc0
EndSplineSet
Substitution2: "'smcp' Lowercase to Small Capitals in Latin lookup 0 subtable" semicolon.sc
EndChar

StartChar: less
Encoding: 60 60 28
Width: 495
Flags: W
LayerCount: 2
Fore
SplineSet
444 45 m 0
 444 38 434 -15 428 -15 c 0
 427 -15 425 -14 423 -13 c 2
 48 177 l 2
 33 185 30 200 30 217 c 0
 30 228 38 236 48 241 c 2
 421 428 l 2
 423 429 425 430 426 430 c 0
 429 430 436 410 443 373 c 0
 444 367 440 364 440 364 c 1
 122 209 l 1
 441 51 l 1
 441 51 444 50 444 45 c 0
EndSplineSet
Substitution2: "'smcp' Lowercase to Small Capitals in Latin lookup 0 subtable" less.sc
EndChar

StartChar: equal
Encoding: 61 61 29
Width: 559
Flags: W
HStem: 134 59<79.4602 483.545> 278 59<79.4602 483.545>
LayerCount: 2
Fore
SplineSet
476.547 134 m 1
 315.547 134 242.547 134 70.5469 134 c 1
 58.5469 134 72.5469 188 86.5469 193 c 9
 489.547 193 l 17
 503.547 193 490.547 141 476.547 134 c 1
476.547 278 m 1
 315.547 278 242.547 278 70.5469 278 c 1
 58.5469 278 72.5469 332 86.5469 337 c 9
 489.547 337 l 17
 503.547 337 490.547 285 476.547 278 c 1
EndSplineSet
Substitution2: "'smcp' Lowercase to Small Capitals in Latin lookup 0 subtable" equal.sc
EndChar

StartChar: greater
Encoding: 62 62 30
Width: 495
Flags: W
LayerCount: 2
Fore
SplineSet
51 45 m 0
 51 50 54 51 54 51 c 1
 373 209 l 1
 55 364 l 1
 55 364 51 367 52 373 c 0
 59 410 66 430 69 430 c 0
 70 430 72 429 74 428 c 2
 447 241 l 2
 457 236 465 228 465 217 c 0
 465 200 462 185 447 177 c 2
 72 -13 l 2
 70 -14 68 -15 67 -15 c 0
 61 -15 51 38 51 45 c 0
EndSplineSet
Substitution2: "'smcp' Lowercase to Small Capitals in Latin lookup 0 subtable" greater.sc
EndChar

StartChar: question
Encoding: 63 63 31
Width: 399
Flags: W
HStem: -11 150<91.2891 192.25> 580 67<134.5 250.214>
VStem: 67 147<13.4641 117.875> 114 38<196.662 255.523> 280 85<427 549.841>
LayerCount: 2
Fore
SplineSet
67 66 m 0xe8
 67 108 101 139 139 139 c 0
 181 139 214 107 214 66 c 0
 214 25 183 -11 143 -11 c 0
 106 -11 67 21 67 66 c 0xe8
116 518 m 0
 78 518 54 551 54 584 c 0
 54 601 62 624 69 630 c 1
 83 638 110 647 159 647 c 0
 204 647 365 610 365 471 c 0
 365 383 292 349 239 316 c 0
 212 299 174 281 157 256 c 0
 150 246 152 224 152 214 c 1
 150 208 142 196 137 196 c 0
 129 196 118 204 114 208 c 1xd8
 107 224 94 268 94 308 c 0
 94 366 138 398 174 422 c 0
 224 455 280 498 280 532 c 0
 280 553 262 580 226 580 c 0
 190 580 158 518 116 518 c 0
EndSplineSet
Substitution2: "'smcp' Lowercase to Small Capitals in Latin lookup 0 subtable" question.sc
EndChar

StartChar: at
Encoding: 64 64 32
Width: 767
Flags: W
HStem: -124 20<265.434 292> -7 62<486.5 589.258> -5 99<249.5 362> 389 54<394.77 502.5> 538 40<340.048 551.908>
VStem: 46 48<55.6187 284.93> 178 123<99.7792 218.188> 413 122<55.1974 162.287> 688 44<171.217 401.388>
LayerCount: 2
Fore
SplineSet
446 578 m 0xdf80
 642 578 732 446 732 290 c 0
 732 137 628 -7 511 -7 c 0xdf80
 462 -7 413 18 413 79 c 0
 413 87 414 100 417 108 c 1
 398 71 336 -5 275 -5 c 3xbf80
 224 -5 178 16 178 120 c 3
 178 266 343 443 485 443 c 0
 520 443 575 437 594 430 c 9
 538 127 l 2
 537 123 535 107 535 102 c 0
 535 88 531 55 558 55 c 0
 608 55 688 158 688 283 c 0
 688 418 620 538 446 538 c 0
 242 538 94 344 94 170 c 0
 94 53 157 -35 229 -77 c 0
 265 -98 287 -101 306 -104 c 1
 306 -112 282 -124 266 -124 c 0
 249 -124 234 -120 221 -115 c 0
 129 -81 46 24 46 165 c 0
 46 361 214 578 446 578 c 0xdf80
443 389 m 3
 360 389 301 263 301 148 c 0
 301 111 318 94 341 94 c 3xbf80
 383 94 427 164 449 274 c 2
 469 376 l 17
 460 386 456 389 443 389 c 3
EndSplineSet
Substitution2: "'smcp' Lowercase to Small Capitals in Latin lookup 0 subtable" at.sc
EndChar

StartChar: A
Encoding: 65 65 33
Width: 675
Flags: W
HStem: -4 37<141.092 210.043 391.618 452.515 618.004 679.724> 4 29<147.875 206.545> 225 48<210.181 378.18> 642 20G<338.681 348.681>
LayerCount: 2
Fore
SplineSet
94.1807 134 m 2xb0
 307.181 624 l 2
 313.181 637 333.181 662 344.181 662 c 0
 353.181 662 363.181 658 365.181 655 c 1
 570.181 148 l 2
 583.181 117 589.181 97 598.181 76 c 0
 615.181 35 669.181 33 677.181 33 c 1
 682.181 24 683.181 0 679.181 -4 c 1xb0
 639.181 -2 589.181 4 545.181 4 c 0x70
 499.181 4 430.181 -2 394.181 -4 c 1
 389.181 1 389.181 33 394.181 33 c 1
 411.181 33 439.181 39 453.181 51 c 0
 459.181 56 462.181 61 462.181 68 c 0
 462.181 77 402.181 220 402.181 220 c 1
 402.181 220 398.181 224 395.181 224 c 0
 357.181 226 324.181 225 299.181 225 c 0
 258.181 225 230.181 225 195.181 224 c 0
 192.181 224 189.181 221 188.181 219 c 1
 188.181 219 163.181 163 152.181 135 c 0
 142.181 110 130.181 74 130.181 67 c 0
 130.181 41 199.181 33 207.181 33 c 1
 213.181 26 211.181 0 208.181 -4 c 1xb0
 173.181 0 144.181 4 100.181 4 c 0x70
 54.1807 4 26.1807 0 -8.81934 -4 c 1
 -12.8193 0 -14.8193 21 -10.8193 32 c 1
 1.18066 32 49.1807 48 59.1807 64 c 0
 76.1807 92 82.1807 106 94.1807 134 c 2xb0
295.181 476 m 1
 210.181 280 l 1
 210.181 280 210.181 276 212.181 276 c 0
 232.181 274 272.181 273 295.181 273 c 0
 326.181 273 344.181 273 375.181 275 c 0
 377.181 275 378.181 280 378.181 280 c 1
 295.181 476 l 1
EndSplineSet
Substitution2: "'c2sc' Capitals to Small Capitals in Latin lookup 0 subtable" a.sc
EndChar

StartChar: B
Encoding: 66 66 34
Width: 619
Flags: W
HStem: -3 42<37.3223 105.027 258.776 381.011> 332 39<250.386 352.524> 620 40<36.6239 104.734 253.068 355.679>
VStem: 110.386 140<51.5828 332 371 616.164> 388.386 148<434.432 579.961> 427.386 157<112.237 268.147>
LayerCount: 2
Fore
SplineSet
250.386 332 m 1xf4
 250.386 109 l 2
 250.386 103 250.386 63 258.386 51 c 0
 266.386 40 295.386 39 321.386 39 c 0
 367.386 39 427.386 73 427.386 176 c 0
 427.386 251 397.386 332 302.386 332 c 2
 250.386 332 l 1xf4
250.386 371 m 1
 302.386 371 l 2
 352.386 371 388.386 412 388.386 487 c 0xf8
 388.386 582 356.386 620 305.386 620 c 0
 282.386 620 260.386 619 255.386 608 c 0
 250.386 596 250.386 576 250.386 547 c 2
 250.386 371 l 1
334.386 660 m 0
 427.386 660 536.386 618 536.386 502 c 0xf8
 536.386 422 455.386 376 428.386 366 c 0
 420.386 363 422.386 360 423.386 360 c 0
 473.386 354 584.386 296 584.386 192 c 0xf4
 584.386 126 541.386 67 479.386 30 c 0
 420.386 -5 345.386 -4 271.386 -3 c 0
 229.386 -3 77.3857 -2 38.3857 -3 c 1
 34.3857 3 33.3857 27 38.3857 34 c 1
 51.3857 35 97.3857 38 102.386 51 c 0
 110.386 71 110.386 102 110.386 145 c 2
 110.386 513 l 2
 110.386 556 110.386 587 102.386 607 c 0
 97.3857 620 51.3857 622 38.3857 623 c 1
 33.3857 630 34.3857 654 38.3857 660 c 1
 83.3857 657 139.386 657 181.386 657 c 0
 223.386 657 276.386 660 334.386 660 c 0
EndSplineSet
Substitution2: "'c2sc' Capitals to Small Capitals in Latin lookup 0 subtable" b.sc
EndChar

StartChar: C
Encoding: 67 67 35
Width: 674
Flags: W
HStem: -7 44<330.113 509.021> 624 43<308.986 492.296>
VStem: 40 160<204.574 441.519> 609 35<160.241 196.828>
LayerCount: 2
Fore
SplineSet
386 667 m 0
 452 667 535 660 594 648 c 1
 596 637 628 509 628 497 c 0
 628 491 614 482 602 482 c 3
 597 482 592 482 588 486 c 1
 578 525 536 624 395 624 c 0
 254 624 200 492 200 352 c 0
 200 196 264 37 415 37 c 0
 475 37 512 55 539 80 c 0
 581 118 607 196 609 204 c 1
 624 204 636 199 644 192 c 1
 644 181 618 46 603 40 c 0
 540 17 476 -7 384 -7 c 0
 196 -7 40 133 40 322 c 0
 40 515 196 667 386 667 c 0
EndSplineSet
Substitution2: "'c2sc' Capitals to Small Capitals in Latin lookup 0 subtable" c.sc
EndChar

StartChar: D
Encoding: 68 68 36
Width: 761
Flags: W
HStem: -3 42<37.3223 105.027 259.797 432.893> 620 40<36.6239 104.734 253.068 407.285>
VStem: 110.386 140<49.4974 616.164> 559.386 159<207.017 459.229>
LayerCount: 2
Fore
SplineSet
250.386 547 m 2
 250.386 141 l 2
 250.386 135 250.386 82 258.386 62 c 0
 264.386 48 295.386 39 321.386 39 c 0
 484.386 39 559.386 130 559.386 325 c 0
 559.386 521 453.386 620 305.386 620 c 0
 282.386 620 260.386 619 255.386 608 c 0
 250.386 596 250.386 576 250.386 547 c 2
334.386 660 m 0
 565.386 660 718.386 541 718.386 336 c 0
 718.386 102 543.386 -3 327.386 -3 c 0
 285.386 -3 77.3857 -2 38.3857 -3 c 1
 34.3857 3 33.3857 27 38.3857 34 c 1
 51.3857 35 97.3857 38 102.386 51 c 0
 110.386 71 110.386 102 110.386 145 c 2
 110.386 513 l 2
 110.386 556 110.386 587 102.386 607 c 0
 97.3857 620 51.3857 622 38.3857 623 c 1
 33.3857 630 34.3857 654 38.3857 660 c 1
 83.3857 657 139.386 657 181.386 657 c 0
 223.386 657 275.386 659 334.386 660 c 0
EndSplineSet
Substitution2: "'c2sc' Capitals to Small Capitals in Latin lookup 0 subtable" d.sc
EndChar

StartChar: E
Encoding: 69 69 37
Width: 602
Flags: W
HStem: -3 37<36.1062 102.755> -2 44<257.659 468.519> 310 47<250.386 397.813> 620 37<37.0322 104.118 253.389 443.827>
VStem: 110.386 140<50.3979 306.897 358.474 616.164> 434.386 31<386.617 434.825>
LayerCount: 2
Fore
SplineSet
181.386 657 m 0xbc
 223.386 657 447.386 663 506.386 664 c 1
 513.386 614 526.386 561 535.386 516 c 1
 532.386 513 519.386 511 512.386 511 c 0
 505.386 511 498.386 514 496.386 519 c 0
 475.386 574 449.386 620 388.386 620 c 2
 305.386 620 l 0
 282.386 620 260.386 619 255.386 608 c 0
 250.386 596 250.386 576 250.386 547 c 2
 250.386 368 l 2
 250.386 362 271.386 357 293.386 357 c 2
 346.386 357 l 2
 405.386 357 418.386 369 434.386 427 c 0
 435.386 432 439.386 435 446.386 435 c 0
 453.386 435 462.386 433 465.386 430 c 1
 465.386 238 l 1
 463.386 236 454.386 234 447.386 234 c 0
 440.386 234 434.386 237 433.386 242 c 0
 421.386 290 407.386 299 398.386 303 c 0
 386.386 308 360.386 310 322.386 310 c 0
 294.386 310 250.386 308 250.386 296 c 2
 250.386 141 l 2
 250.386 135 250.386 82 258.386 62 c 0
 264.386 48 297.386 42 323.386 42 c 0
 389.386 42 l 2
 427.386 42 459.386 52 482.386 75 c 0
 503.386 96 519.386 125 536.386 170 c 0
 537.386 174 543.386 176 550.386 176 c 0
 560.386 176 577.386 173 580.386 170 c 1
 561.386 116 533.386 42 526.386 -2 c 1x7c
 484.386 -2 77.3857 -2 38.3857 -3 c 1
 34.3857 3 33.3857 27 38.3857 34 c 1
 51.3857 35 97.3857 38 102.386 51 c 0
 110.386 71 110.386 102 110.386 145 c 2
 110.386 513 l 2
 110.386 556 110.386 587 102.386 607 c 0
 97.3857 620 51.3857 622 38.3857 623 c 1
 33.3857 630 34.3857 654 38.3857 660 c 1
 83.3857 657 139.386 657 181.386 657 c 0xbc
EndSplineSet
Substitution2: "'c2sc' Capitals to Small Capitals in Latin lookup 0 subtable" e.sc
EndChar

StartChar: F
Encoding: 70 70 38
Width: 549
Flags: W
HStem: -4 37<36.1062 102.384 258.388 333.665> 306 47<250.386 397.813> 620 37<37.0322 104.118 253.389 443.827>
VStem: 110.386 140<42.0335 302.897 354.474 616.164> 434.386 31<382.617 430.825>
LayerCount: 2
Fore
SplineSet
181.386 657 m 0
 223.386 657 447.386 663 506.386 664 c 1
 513.386 614 526.386 561 535.386 516 c 1
 532.386 513 519.386 511 512.386 511 c 0
 505.386 511 498.386 514 496.386 519 c 0
 475.386 574 449.386 620 388.386 620 c 2
 305.386 620 l 0
 282.386 620 260.386 619 255.386 608 c 0
 250.386 596 250.386 576 250.386 547 c 2
 250.386 364 l 2
 250.386 358 271.386 353 293.386 353 c 2
 346.386 353 l 2
 405.386 353 418.386 365 434.386 423 c 0
 435.386 428 439.386 431 446.386 431 c 0
 453.386 431 462.386 429 465.386 426 c 1
 465.386 234 l 1
 463.386 232 454.386 230 447.386 230 c 0
 440.386 230 434.386 233 433.386 238 c 0
 421.386 286 407.386 295 398.386 299 c 0
 386.386 304 360.386 306 322.386 306 c 0
 294.386 306 250.386 304 250.386 292 c 2
 250.386 145 l 2
 250.386 102 250.386 71 258.386 51 c 0
 263.386 38 318.386 34 331.386 33 c 1
 336.386 26 335.386 2 331.386 -4 c 1
 292.386 0 221.386 3 179.386 3 c 0
 137.386 3 77.3857 0 38.3857 -4 c 1
 34.3857 2 33.3857 26 38.3857 33 c 1
 51.3857 34 97.3857 38 102.386 51 c 0
 110.386 71 110.386 102 110.386 145 c 2
 110.386 513 l 2
 110.386 556 110.386 587 102.386 607 c 0
 97.3857 620 51.3857 622 38.3857 623 c 1
 33.3857 630 34.3857 654 38.3857 660 c 1
 83.3857 657 139.386 657 181.386 657 c 0
EndSplineSet
Substitution2: "'c2sc' Capitals to Small Capitals in Latin lookup 0 subtable" f.sc
EndChar

StartChar: G
Encoding: 71 71 39
Width: 722
Flags: W
HStem: -7 43<330.684 494.644> 261 37<424.657 488.882 649.532 704.455> 624 43<308.404 494.806>
VStem: 40 160<205.849 438.124> 499 138<46.6322 247.801>
LayerCount: 2
Fore
SplineSet
499 183 m 0
 499 203 500 212 494 234 c 0
 487 259 440 261 428 261 c 0
 423 261 422 293 427 298 c 1
 478 296 529 292 580 292 c 0
 622 292 663 296 703 298 c 1
 707 285 705 261 702 261 c 1
 694 261 660 255 649 248 c 0
 643 244 637 224 637 205 c 0
 637 168 637 132 637 98 c 0
 637 89 643 74 643 69 c 0
 643 58 621 48 608 43 c 0
 545 19 476 -7 384 -7 c 0
 195 -7 40 133 40 322 c 0
 40 509 196 667 386 667 c 0
 452 667 535 660 594 648 c 1
 596 637 628 509 628 497 c 0
 628 491 614 482 602 482 c 3
 597 482 592 482 588 486 c 1
 578 525 538 624 397 624 c 0
 249 624 200 487 200 347 c 0
 200 191 271 36 412 36 c 0
 450 36 472 44 490 52 c 0
 494 54 499 58 499 67 c 0
 499 82 499 135 499 183 c 0
EndSplineSet
Substitution2: "'c2sc' Capitals to Small Capitals in Latin lookup 0 subtable" g.sc
EndChar

StartChar: H
Encoding: 72 72 40
Width: 741
Flags: W
HStem: -4 37<36.1062 102.384 258.388 324.665 417.107 483.384 639.388 705.665> 317 51<251.531 491.386> 625 37<36.1062 102.384 258.388 324.665 417.107 483.384 639.388 705.665>
VStem: 110.386 140<41.2661 312.952 368.001 616.734> 491.386 140<41.2661 314.998 368.001 616.734>
LayerCount: 2
Fore
SplineSet
181.386 655 m 0
 223.386 655 283.386 658 322.386 662 c 1
 326.386 656 327.386 632 322.386 625 c 1
 309.386 624 263.386 620 258.386 607 c 0
 250.386 587 250.386 556 250.386 513 c 2
 250.386 371 l 1
 250.386 369 252.386 368 252.386 368 c 1
 291.386 367 328.386 365 373.386 365 c 0
 410.386 365 454.386 367 490.386 368 c 1
 490.386 368 492.386 370 492.386 372 c 0
 491.386 513 l 2
 491.386 556 491.386 587 483.386 607 c 0
 478.386 620 432.386 624 419.386 625 c 1
 414.386 632 415.386 656 419.386 662 c 1
 458.386 658 520.386 655 562.386 655 c 0
 604.386 655 664.386 658 703.386 662 c 1
 707.386 656 708.386 632 703.386 625 c 1
 690.386 624 644.386 620 639.386 607 c 0
 631.386 587 631.386 556 631.386 513 c 2
 631.386 145 l 2
 631.386 102 631.386 71 639.386 51 c 0
 644.386 38 690.386 34 703.386 33 c 1
 708.386 26 707.386 2 703.386 -4 c 1
 664.386 0 602.386 3 560.386 3 c 0
 518.386 3 458.386 0 419.386 -4 c 1
 415.386 2 414.386 26 419.386 33 c 1
 432.386 34 478.386 38 483.386 51 c 0
 491.386 71 491.386 102 491.386 145 c 2
 491.386 310 l 0
 491.386 312 489.386 315 489.386 315 c 1
 452.386 316 414.386 317 373.386 317 c 0
 262.386 317 254.386 315 251.386 313 c 1
 250.386 312 250.386 309 250.386 309 c 1
 250.386 145 l 2
 250.386 102 250.386 71 258.386 51 c 0
 263.386 38 309.386 34 322.386 33 c 1
 327.386 26 326.386 2 322.386 -4 c 1
 283.386 0 221.386 3 179.386 3 c 0
 137.386 3 77.3857 0 38.3857 -4 c 1
 34.3857 2 33.3857 26 38.3857 33 c 1
 51.3857 34 97.3857 38 102.386 51 c 0
 110.386 71 110.386 102 110.386 145 c 2
 110.386 513 l 2
 110.386 556 110.386 587 102.386 607 c 0
 97.3857 620 51.3857 624 38.3857 625 c 1
 33.3857 632 34.3857 656 38.3857 662 c 1
 77.3857 658 139.386 655 181.386 655 c 0
EndSplineSet
Substitution2: "'c2sc' Capitals to Small Capitals in Latin lookup 0 subtable" h.sc
EndChar

StartChar: I
Encoding: 73 73 41
Width: 360
Flags: W
HStem: -4 37<36.1062 102.384 258.388 324.665> 625 37<36.1062 102.384 258.388 324.665>
VStem: 110.386 140<41.2661 616.734>
LayerCount: 2
Fore
SplineSet
181.386 655 m 0
 223.386 655 283.386 658 322.386 662 c 1
 326.386 656 327.386 632 322.386 625 c 1
 309.386 624 263.386 620 258.386 607 c 0
 250.386 587 250.386 556 250.386 513 c 2
 250.386 145 l 2
 250.386 102 250.386 71 258.386 51 c 0
 263.386 38 309.386 34 322.386 33 c 1
 327.386 26 326.386 2 322.386 -4 c 1
 283.386 0 221.386 3 179.386 3 c 0
 137.386 3 77.3857 0 38.3857 -4 c 1
 34.3857 2 33.3857 26 38.3857 33 c 1
 51.3857 34 97.3857 38 102.386 51 c 0
 110.386 71 110.386 102 110.386 145 c 2
 110.386 513 l 2
 110.386 556 110.386 587 102.386 607 c 0
 97.3857 620 51.3857 624 38.3857 625 c 1
 33.3857 632 34.3857 656 38.3857 662 c 1
 77.3857 658 139.386 655 181.386 655 c 0
EndSplineSet
Substitution2: "'c2sc' Capitals to Small Capitals in Latin lookup 0 subtable" i.sc
EndChar

StartChar: J
Encoding: 74 74 42
Width: 345
Flags: W
HStem: -218 61<-61.5 65.2742> 625 37<29.7205 95.9985 252.002 318.279>
VStem: 104 140<-9.59375 616.734>
LayerCount: 2
Fore
SplineSet
175 655 m 0
 217 655 277 658 316 662 c 1
 320 656 321 632 316 625 c 1
 303 624 257 620 252 607 c 0
 244 587 244 556 244 513 c 2
 244 143 l 2
 244 -85 130 -218 -52 -218 c 3
 -71 -218 -100 -207 -109 -200 c 1
 -116 -189 -125 -178 -125 -157 c 3
 -125 -123 -97 -90 -65 -90 c 3
 -42.6133 -90 -24.4346 -106.581 -8 -123.246 c 0
 8.60156 -140.08 23.4219 -157 39 -157 c 3
 102 -157 104 -31 104 135 c 2
 104 513 l 2
 104 556 104 587 96 607 c 0
 91 620 45 624 32 625 c 1
 27 632 28 656 32 662 c 1
 71 658 133 655 175 655 c 0
EndSplineSet
Substitution2: "'c2sc' Capitals to Small Capitals in Latin lookup 0 subtable" j.sc
EndChar

StartChar: K
Encoding: 75 75 43
Width: 719
Flags: W
HStem: -4 37<37.0322 100.708 259.204 323.74 663.138 731.107> 625 37<36.1062 102.384 258.388 324.665 435.941 493.911 611.33 690.684>
VStem: 110.386 140<41.2661 305.999 337 616.734>
LayerCount: 2
Fore
SplineSet
181.386 655 m 0
 223.386 655 283.386 658 322.386 662 c 1
 326.386 656 327.386 632 322.386 625 c 1
 309.386 624 263.386 620 258.386 607 c 0
 250.386 587 250.386 556 250.386 513 c 2
 250.386 337 l 1
 294.386 372 330.386 403 354.386 428 c 0
 414.386 489 442.386 514 484.386 570 c 0
 494.386 583 494.386 596 494.386 603 c 0
 494.386 624 452.386 626 438.386 626 c 1
 433.386 634 433.386 653 436.386 662 c 1
 473.386 660 529.386 655 566.386 655 c 0
 610.386 655 653.386 658 690.386 662 c 1
 693.386 655 693.386 633 688.386 627 c 1
 679.386 626 611.386 619 575.386 583 c 2
 575.386 583 462.386 468 387.386 389 c 0
 381.386 382 381.386 378 384.386 373 c 0
 457.386 275 564.386 130 564.386 130 c 1
 638.386 36 722.386 33 730.386 33 c 1
 735.386 26 731.386 -2 730.386 -4 c 1
 701.386 -6 640.386 -8 599.386 -8 c 0
 522.386 -8 471.386 33 446.386 67 c 0
 420.386 103 314.386 243 270.386 302 c 0
 267.386 305 262.386 306 260.386 306 c 0
 256.386 306 252.386 304 250.386 300 c 1
 250.386 145 l 2
 250.386 102 250.386 71 258.386 51 c 0
 263.386 38 309.386 34 322.386 33 c 1
 327.386 26 326.386 2 322.386 -4 c 1
 283.386 0 221.386 3 179.386 3 c 0
 137.386 3 77.3857 0 38.3857 -4 c 1
 34.3857 2 33.3857 26 38.3857 33 c 1
 51.3857 34 97.3857 38 102.386 51 c 0
 110.386 71 110.386 102 110.386 145 c 2
 110.386 513 l 2
 110.386 556 110.386 587 102.386 607 c 0
 97.3857 620 51.3857 624 38.3857 625 c 1
 33.3857 632 34.3857 656 38.3857 662 c 1
 77.3857 658 139.386 655 181.386 655 c 0
EndSplineSet
Substitution2: "'c2sc' Capitals to Small Capitals in Latin lookup 0 subtable" k.sc
EndChar

StartChar: L
Encoding: 76 76 44
Width: 579
Flags: W
HStem: -3 37<36.1062 102.755> -2.2793 44.2793<257.659 468.519> 625 37<36.1062 102.384 258.388 324.665>
VStem: 110.386 140<50.3979 616.734>
LayerCount: 2
Fore
SplineSet
250.386 141 m 2xb0
 250.386 135 250.386 82 258.386 62 c 0
 264.386 48 297.386 42 323.386 42 c 0
 389.386 42 l 2
 427.386 42 459.386 52 482.386 75 c 0
 503.386 96 519.386 125 536.386 170 c 0
 537.386 174 543.386 176 550.386 176 c 0
 560.386 176 577.386 173 580.386 170 c 1
 561.386 116 533.386 42 526.386 -2 c 1
 498.939 -2 315.631 -2 181 -2.2793 c 0x70
 109.605 -2.42676 51.9004 -2.65332 38.3857 -3 c 1
 34.3857 3 33.3857 27 38.3857 34 c 1
 51.3857 35 97.3857 38 102.386 51 c 0
 110.386 71 110.386 102 110.386 145 c 2
 110.386 513 l 2
 110.386 556 110.386 587 102.386 607 c 0
 97.3857 620 51.3857 624 38.3857 625 c 1
 33.3857 632 34.3857 656 38.3857 662 c 1
 77.3857 658 139.386 655 181.386 655 c 0
 223.386 655 283.386 658 322.386 662 c 1
 326.386 656 327.386 632 322.386 625 c 1
 309.386 624 263.386 620 258.386 607 c 0
 250.386 587 250 556 250.386 513 c 2
 250.386 141 l 2xb0
EndSplineSet
Substitution2: "'c2sc' Capitals to Small Capitals in Latin lookup 0 subtable" l.sc
EndChar

StartChar: M
Encoding: 77 77 45
Width: 907
Flags: W
HStem: -4 37<17.9725 86.3427 195.139 269.032 584.605 652.649 815.841 880.323> 625 37<61.2436 124.438 801.625 852.332>
LayerCount: 2
Fore
SplineSet
171.139 656 m 0
 205.139 656 236.139 660 276.139 662 c 1
 305.139 598 390.139 408 465.139 238 c 1
 465.139 238 468.139 236 469.139 236 c 0
 470.139 236 473.139 241 473.139 242 c 2
 473.139 242 548 426 591.139 546 c 24
 607 589 624.139 658 624.139 658 c 1
 633.139 657 713 655 732 655 c 0
 766 655 809.139 660 849.139 662 c 1
 853.139 658 858.139 632 853.139 624 c 1
 845.139 624 811.139 620 801.139 613 c 0
 791.139 606 786.139 599 787.139 572 c 0
 790.139 502 796.139 280 802.139 152 c 0
 804.139 113 805.139 77 815.139 51 c 0
 821.139 37 870.139 33 878.139 33 c 1
 882.139 24 883.139 6 880.139 -4 c 1
 840.139 -2 788.139 4 744.139 4 c 0
 698.139 4 633.139 -2 587.139 -4 c 1
 583.139 0 582.139 25 585.139 33 c 1
 597.139 33 646.139 38 655.139 52 c 0
 660.139 60 663.139 77 663.139 87 c 0
 663.139 97 663 130 662.139 148 c 2
 652 497 l 2
 651.913 499.997 652.139 523 645.139 523 c 0
 643.139 523 642.139 521 640.139 516 c 2
 464.139 40 l 2
 461.139 31 439.139 -2 421.139 -2 c 0
 418.139 -2 415.139 -1 412.139 0 c 1
 189.139 523 l 1
 182.139 315 182.139 291 176.139 134 c 0
 175.139 112 178.139 72 180.139 65 c 0
 186.139 44 259.139 33 267.139 33 c 1
 270.139 26 272.139 6 269.139 -4 c 1
 229.139 -2 189.139 4 145.139 4 c 0
 99.1387 4 66.1387 -2 20.1387 -4 c 1
 16.1387 3 16.1387 22 19.1387 32 c 1
 31.1387 32 93.1387 42 104.139 68 c 0
 108.139 78 115.139 140 116.139 156 c 0
 122.139 273 131.139 534 133.139 581 c 0
 133.139 588 133.139 596 128.139 603 c 0
 120.139 614 80.1387 625 63.1387 625 c 1
 57.1387 633 61.1387 660 63.1387 662 c 1
 109.139 660 125.139 656 171.139 656 c 0
EndSplineSet
Substitution2: "'c2sc' Capitals to Small Capitals in Latin lookup 0 subtable" m.sc
EndChar

StartChar: N
Encoding: 78 78 46
Width: 760
Flags: W
HStem: -4 37<30.0117 103.45 204.383 280.32> 625 38<36.181 102.941 489.011 569.671 657.402 739.32> 625 30<39.1931 98.2554>
VStem: 123.736 61<49.9165 518.032> 582.736 61<248.338 612.714>
LayerCount: 2
Fore
SplineSet
150.736 655 m 0xb8
 185.736 655 227.736 658 259.736 662 c 1
 297.736 584 457.736 401 580.736 248 c 1
 582.736 255 582.736 275 582.736 289 c 2
 582.736 476 l 0
 582.736 514 578.736 589 571.736 604 c 0
 563.736 622 502.736 626 490.736 626 c 1
 488.736 626 485.736 654 490.736 663 c 1xd8
 536.736 661 566.736 655 612.736 655 c 0xb8
 656.736 655 698.736 661 738.736 663 c 1
 740.736 657 742.736 635 736.736 625 c 1
 728.736 625 661.736 623 653.736 602 c 0
 648.736 588 643.736 515 643.736 479 c 2
 643.736 139 l 2
 643.736 81 645.736 51 647.736 -1 c 1
 644.736 -4 625.736 -5 622.736 -5 c 0
 613.736 -5 601.736 5 591.736 18 c 2
 184.736 519 l 1
 184.736 157 l 2
 184.736 121 190.736 74 195.736 60 c 0
 202.736 41 269.736 34 277.736 34 c 1
 283.736 24 281.736 2 279.736 -4 c 1
 239.736 -2 197.736 4 153.736 4 c 0
 107.736 4 77.7363 -2 31.7363 -4 c 1
 26.7363 5 29.7363 33 31.7363 33 c 1
 43.7363 33 103.736 41 111.736 59 c 0
 118.736 74 123.736 122 123.736 160 c 0
 123.736 291 123.736 383 123.736 514 c 0
 123.736 542 118.736 585 105.736 604 c 0
 96.7363 617 51.7363 625 39.7363 625 c 0xd8
 34.7363 625 32.7363 657 37.7363 662 c 1
 68.7363 660 104.736 655 150.736 655 c 0xb8
EndSplineSet
Substitution2: "'c2sc' Capitals to Small Capitals in Latin lookup 0 subtable" n.sc
EndChar

StartChar: O
Encoding: 79 79 47
Width: 760
Flags: W
HStem: -10 43<322.356 470.535> 624 43<288.38 436.304>
VStem: 40 160<211.696 443.97> 560 160<211.714 444.117>
LayerCount: 2
Fore
SplineSet
356 624 m 3
 238 624 200 484 200 363 c 3
 200 210 252 33 401 33 c 3
 520 33 560 171 560 292 c 3
 560 445 505 624 356 624 c 3
380 667 m 0
 556 667 720 515 720 328 c 0
 720 141 556 -10 380 -10 c 0
 204 -10 40 141 40 328 c 0
 40 515 204 667 380 667 c 0
EndSplineSet
Substitution2: "'c2sc' Capitals to Small Capitals in Latin lookup 0 subtable" o.sc
EndChar

StartChar: P
Encoding: 80 80 48
Width: 585
Flags: W
HStem: -4 37<36.1062 102.384 258.388 324.665> 287 51<296.019 379.535> 620 40<36.6239 104.734 253.068 358.568>
VStem: 110.386 140<41.2661 616.164> 416.386 149<391.288 558.828>
LayerCount: 2
Fore
SplineSet
565.386 482 m 0
 565.386 362 465.386 287 364.386 287 c 0
 328.386 287 302.386 303 295.386 310 c 0
 291.392 313.994 287.841 326.85 287.978 335 c 0
 288.047 339.094 289.046 342 291.386 342 c 1
 301.386 339 317.386 338 332.386 338 c 0
 381.386 338 416.386 391 416.386 468 c 0
 416.386 547 372.386 620 305.386 620 c 0
 282.386 620 260.386 619 255.386 608 c 0
 250.386 596 250.386 576 250.386 547 c 2
 250.386 145 l 2
 250.386 102 250.386 71 258.386 51 c 0
 263.386 38 309.386 34 322.386 33 c 1
 327.386 26 326.386 2 322.386 -4 c 1
 283.386 0 221.386 3 179.386 3 c 0
 137.386 3 77.3857 0 38.3857 -4 c 1
 34.3857 2 33.3857 26 38.3857 33 c 1
 51.3857 34 97.3857 38 102.386 51 c 0
 110.386 71 110.386 102 110.386 145 c 2
 110.386 513 l 2
 110.386 556 110.386 587 102.386 607 c 0
 97.3857 620 51.3857 622 38.3857 623 c 1
 33.3857 630 34.3857 654 38.3857 660 c 1
 83.3857 657 139.386 657 181.386 657 c 0
 223.386 657 276.386 660 335.386 660 c 0
 460.386 660 565.386 596 565.386 482 c 0
EndSplineSet
Substitution2: "'c2sc' Capitals to Small Capitals in Latin lookup 0 subtable" p.sc
EndChar

StartChar: Q
Encoding: 81 81 49
Width: 760
Flags: W
HStem: -143 69<539.354 711.686> 624 43<288.38 436.304>
VStem: 40 160<213.589 443.97> 560 160<213.119 444.117>
LayerCount: 2
Fore
SplineSet
380 667 m 0
 556 667 720 515 720 328 c 0
 720 178 614 51 482 7 c 1
 574 -38 603 -74 705 -74 c 0
 745 -74 769 -66 776 -66 c 1
 782 -66 793.767 -71.1504 799 -79 c 0
 801 -82 801 -84 801 -84 c 1
 746 -113 657 -143 596 -143 c 0
 486 -143 409 -33 301 0 c 0
 157 38 40 170 40 328 c 0
 40 515 204 667 380 667 c 0
356 624 m 0
 238 624 200 484 200 363 c 0
 200 210 252 33 401 33 c 0
 520 33 560 171 560 292 c 0
 560 445 505 624 356 624 c 0
EndSplineSet
Substitution2: "'c2sc' Capitals to Small Capitals in Latin lookup 0 subtable" q.sc
EndChar

StartChar: R
Encoding: 82 82 50
Width: 693
Flags: W
HStem: -4 37<37.0322 100.708 259.204 323.74 662.138 730.107> 299 39<250.386 285.917> 620 40<36.6239 104.734 253.068 364.085>
VStem: 110.386 140<41.2661 299 338 616.164> 405.386 149<406.517 566.818>
LayerCount: 2
Fore
SplineSet
335.386 660 m 0
 460.386 660 554.386 598 554.386 478 c 0
 554.386 396 466.386 328 418.386 316 c 1
 491.386 218 563.386 130 563.386 130 c 1
 637.386 36 721.386 33 729.386 33 c 1
 734.386 26 730.386 -2 729.386 -4 c 1
 700.386 -6 639.386 -8 598.386 -8 c 0
 521.386 -8 470.386 33 445.386 67 c 0
 283.386 284 l 0
 283.386 284 273.386 299 265.386 299 c 0
 250.386 299 l 9
 250.386 145 l 2
 250.386 102 250.386 71 258.386 51 c 0
 263.386 38 309.386 34 322.386 33 c 1
 327.386 26 326.386 2 322.386 -4 c 1
 283.386 0 221.386 3 179.386 3 c 0
 137.386 3 77.3857 0 38.3857 -4 c 1
 34.3857 2 33.3857 26 38.3857 33 c 1
 51.3857 34 97.3857 38 102.386 51 c 0
 110.386 71 110.386 102 110.386 145 c 2
 110.386 513 l 2
 110.386 556 110.386 587 102.386 607 c 0
 97.3857 620 51.3857 622 38.3857 623 c 1
 33.3857 630 34.3857 654 38.3857 660 c 1
 83.3857 657 139.386 657 181.386 657 c 0
 223.386 657 276.386 660 335.386 660 c 0
405.386 468 m 0
 405.386 547 387.386 620 305.386 620 c 0
 282.386 620 260.386 619 255.386 608 c 0
 250.386 596 250.386 576 250.386 547 c 2
 250.386 338 l 17
 296.386 338 l 0
 353.386 338 405.386 391 405.386 468 c 0
EndSplineSet
Substitution2: "'c2sc' Capitals to Small Capitals in Latin lookup 0 subtable" r.sc
EndChar

StartChar: S
Encoding: 83 83 51
Width: 521
Flags: W
HStem: -10 42<185.098 316.967> 628 42<212.864 329.921>
VStem: 47 42<137.613 197.961> 54 133<484.422 565.673> 348 131<94.5926 187.223> 405 41<470.077 538.743>
LayerCount: 2
Fore
SplineSet
267 670 m 0xd8
 326 670 374 655 435 642 c 1
 440 589 443 537 446 476 c 1
 443 472 439 470 435 470 c 0
 432 470 407 469 405 477 c 0
 397 533 349 628 272 628 c 0
 233 628 187 608 187 541 c 0xd4
 187 479 271 422 332 381 c 0
 398 337 479 294 479 175 c 0
 479 65 371 -10 261 -10 c 0
 202 -10 131 2 71 16 c 1
 61 60 49 158 47 186 c 1
 51 192 71 200 76 200 c 0
 83 200 88 198 89 192 c 0xe8
 98 138 161 32 251 32 c 0
 302 32 348 58 348 129 c 0
 348 200 250 258 200 292 c 0
 127 341 54 385 54 489 c 0
 54 592 164 670 267 670 c 0xd8
EndSplineSet
Substitution2: "'c2sc' Capitals to Small Capitals in Latin lookup 0 subtable" s.sc
EndChar

StartChar: T
Encoding: 84 84 52
Width: 634
Flags: W
HStem: -4 37<172.721 238.998 395.002 461.279> 613 44<102.634 247 387 531.366>
VStem: 8 39<482.931 537.849> 247 140<41.2661 613> 587 39<482.931 537.849>
CounterMasks: 1 38
LayerCount: 2
Fore
SplineSet
483 657 m 0
 555 657 569 676 587 676 c 0
 595 676 595 675 599 673 c 1
 626 489 l 1
 623 486 606 482 597 482 c 0
 592 482 588 483 587 487 c 0
 577 552 531 613 480 613 c 2
 387 613 l 1
 387 145 l 2
 387 102 387 71 395 51 c 0
 400 38 446 34 459 33 c 1
 464 26 463 2 459 -4 c 1
 420 0 358 3 316 3 c 0
 274 3 214 0 175 -4 c 1
 171 2 170 26 175 33 c 1
 188 34 234 38 239 51 c 0
 247 71 247 102 247 145 c 2
 247 613 l 1
 154 613 l 2
 103 613 57 552 47 487 c 0
 46 483 42 482 37 482 c 0
 28 482 11 486 8 489 c 1
 35 673 l 1
 39 675 39 676 47 676 c 0
 65 676 79 657 151 657 c 0
 240 657 394 657 483 657 c 0
EndSplineSet
Substitution2: "'c2sc' Capitals to Small Capitals in Latin lookup 0 subtable" t.sc
EndChar

StartChar: U
Encoding: 85 85 53
Width: 730
Flags: W
HStem: -9 72<322.115 477.237> 625 37<20.1062 86.3842 242.388 308.665 482.107 555.224 653.615 728.665>
VStem: 94.3857 140<166.436 616.734> 573.386 62<175.49 609.521>
LayerCount: 2
Fore
SplineSet
165.386 655 m 0
 207.386 655 267.386 658 306.386 662 c 1
 310.386 656 311.386 632 306.386 625 c 1
 293.386 624 247.386 620 242.386 607 c 0
 234.386 587 234.386 556 234.386 513 c 2
 234.386 330 l 2
 234.386 262 236.386 212 259.386 159 c 0
 297.386 71 372.386 63 411.386 63 c 0
 491.386 63 573.386 134 573.386 309 c 2
 573.386 479 l 2
 573.386 522 567.386 581 559.386 601 c 0
 551.386 620 497.386 624 484.386 625 c 1
 479.386 632 480.386 656 484.386 662 c 1
 531.386 658 563.386 655 609.386 655 c 0
 653.386 655 685.386 660 726.386 662 c 1
 730.386 656 731.386 632 726.386 625 c 1
 713.386 624 657.386 622 649.386 601 c 0
 641.386 581 635.386 523 635.386 480 c 2
 635.386 286 l 2
 635.386 82 505.386 -9 361.386 -9 c 0
 277.386 -9 198.386 19 150.386 79 c 0
 111.386 128 94.3857 197 94.3857 301 c 2
 94.3857 513 l 2
 94.3857 556 94.3857 587 86.3857 607 c 0
 81.3857 620 35.3857 624 22.3857 625 c 1
 17.3857 632 18.3857 656 22.3857 662 c 1
 61.3857 658 123.386 655 165.386 655 c 0
EndSplineSet
Substitution2: "'c2sc' Capitals to Small Capitals in Latin lookup 0 subtable" u.sc
EndChar

StartChar: V
Encoding: 86 86 54
Width: 684
Flags: W
HStem: -11 21G<327.886 338.386> 625 37<-4.89375 52.6249 223.003 283.665 465.107 544.482 628.39 700.665>
LayerCount: 2
Fore
SplineSet
140.386 655 m 0
 182.386 655 242.386 658 281.386 662 c 1
 285.386 656 286.386 632 281.386 625 c 1
 268.386 624 220.386 623 220.386 598 c 0
 220.386 582 232.386 551 244.386 523 c 0
 302.386 390 393.386 186 393.386 186 c 1
 393.386 186 515.386 493 525.386 521 c 0
 534.386 547 547.386 580 547.386 601 c 0
 547.386 619 480.386 624 467.386 625 c 1
 462.386 632 463.386 656 467.386 662 c 1
 514.386 658 540.386 655 586.386 655 c 0
 630.386 655 657.386 660 698.386 662 c 1
 702.386 656 703.386 632 698.386 625 c 1
 685.386 624 640.386 623 628.386 607 c 0
 613.386 587 601.386 557 587.386 524 c 0
 505.386 323 457.386 215 380.386 30 c 0
 372.386 12 344.386 -11 332.386 -11 c 0
 323.386 -11 323.386 -4 318.386 3 c 1
 100.386 510 l 2
 88.3857 539 74.3857 572 65.3857 592 c 0
 53.3857 618 10.3857 624 -2.61426 625 c 1
 -7.61426 632 -6.61426 656 -2.61426 662 c 1
 36.3857 658 98.3857 655 140.386 655 c 0
EndSplineSet
Substitution2: "'c2sc' Capitals to Small Capitals in Latin lookup 0 subtable" v.sc
EndChar

StartChar: W
Encoding: 87 87 55
Width: 951
Flags: W
HStem: -11 21G<295.287 305.787 641.287 651.787> 625 37<-4.61855 53.0263 223.404 284.066 727.508 804.969 890.791 963.066>
LayerCount: 2
Fore
SplineSet
140.787 655 m 0
 182.787 655 242.787 658 281.787 662 c 1
 285.787 656 286.787 632 281.787 625 c 1
 268.787 624 220.787 623 220.787 598 c 0
 220.787 582 233.787 552 244.787 523 c 0
 288.787 401 342.787 251 342.787 251 c 1
 342.787 251 451.787 560 475.787 625 c 0
 482.787 644 495.787 662 506.787 662 c 0
 510.787 662 514.787 657 518.787 646 c 0
 584.787 478 689.787 214 689.787 214 c 1
 689.787 214 777.787 489 787.787 521 c 0
 795.787 547 807.787 580 807.787 601 c 0
 807.787 619 742.787 624 729.787 625 c 1
 724.787 632 725.787 656 729.787 662 c 1
 776.787 658 802.787 655 848.787 655 c 0
 892.787 655 919.787 660 960.787 662 c 1
 964.787 656 965.787 632 960.787 625 c 1
 947.787 624 902.787 623 890.787 607 c 0
 875.787 587 860.787 559 849.787 524 c 0
 787.787 335 748.787 225 685.787 40 c 0
 676.787 15 657.787 -11 645.787 -11 c 0
 636.787 -11 631.787 -4 626.787 3 c 1
 461.787 418 l 1
 461.787 418 383.787 188 334.787 44 c 0
 330.787 33 311.787 -11 299.787 -11 c 0
 290.787 -11 285.787 -4 280.787 3 c 1
 100.787 510 l 2
 90.7871 540 74.7871 572 65.7871 592 c 0
 53.7871 618 10.7871 624 -2.21289 625 c 1
 -8.21289 632 -6.21289 656 -2.21289 662 c 1
 36.7871 658 98.7871 655 140.787 655 c 0
EndSplineSet
Substitution2: "'c2sc' Capitals to Small Capitals in Latin lookup 0 subtable" w.sc
EndChar

StartChar: X
Encoding: 88 88 56
Width: 710
Flags: W
HStem: -4 37<-7.81348 70.15 177.5 254.606 391.195 445.842 642.912 712.791> 625 37<17.1865 87.0735 265.356 320.748 439.407 509.145 625.169 696.39>
LayerCount: 2
Fore
SplineSet
175.75 656 m 0
 224.75 656 279.75 660 319.75 662 c 1
 321.75 656 322.75 625 317.75 625 c 1
 303.75 625 265.75 619 264.75 604 c 0
 264.75 598 268.75 588 272.75 582 c 2
 383.75 414 l 1
 428.25 470.96 498.888 550.89 513.891 584 c 0
 515.746 588.093 516.75 591.47 516.75 594 c 0
 516.75 611 476.75 625 442.75 625 c 1
 437.75 625 436.75 657 441.75 662 c 1
 476.75 658 537.75 655 574.75 655 c 0
 626.75 655 665.75 658 694.75 662 c 1
 697.75 656 698.75 625 693.75 625 c 1
 685.75 625 624.75 623 581.75 572 c 2
 410.75 369 l 1
 494.75 242 596.75 93 611.75 76 c 0
 640.75 41 696.75 33 710.75 33 c 1
 714.75 24 715.75 4 710.75 -4 c 1
 670.75 -2 591.75 2 550.75 2 c 0
 494.75 2 448.75 -2 392.75 -4 c 1
 387.75 1 389.75 33 394.75 33 c 0
 405.75 33 450.75 43 450.75 61 c 0
 450.75 64 449.75 69 447.75 72 c 2
 314.75 273 l 1
 299.48 252.64 205.044 130.083 176.752 83 c 0
 171.694 74.583 168.75 68.5781 168.75 66 c 0
 168.75 42 221.75 33 251.75 33 c 1
 256.75 26 257.75 7 254.75 -4 c 1
 221.75 -2 159.75 2 122.75 2 c 0
 70.75 2 34.75 -2 -5.25 -4 c 1
 -10.25 2 -10.25 26 -5.25 33 c 1
 2.75 33 71.75 35 103.75 79 c 2
 281.75 322 l 1
 141.75 537 l 2
 123.75 564 101.75 600 87.75 610 c 0
 73.75 620 31.75 625 19.75 625 c 1
 14.75 625 14.75 657 19.75 662 c 1
 68.75 660 126.75 656 175.75 656 c 0
EndSplineSet
Substitution2: "'c2sc' Capitals to Small Capitals in Latin lookup 0 subtable" x.sc
EndChar

StartChar: Y
Encoding: 89 89 57
Width: 624
Flags: W
HStem: -4 37<159.107 225.384 381.388 447.665> 625 37<1.10625 57.3884 229.003 289.665 408.107 481.74 567.337 637.665>
VStem: 233.386 140<41.2661 326.713>
LayerCount: 2
Fore
SplineSet
233.386 145 m 2
 233.386 284 l 0
 233.386 291 231.333 296.173 227.739 304 c 0
 202.637 358.69 102.386 537 102.386 537 c 2
 87.3857 565 83.3857 572 71.3857 592 c 0
 56.3857 617 16.3857 624 3.38574 625 c 1
 -1.61426 632 -0.614258 656 3.38574 662 c 1
 42.3857 658 104.386 655 146.386 655 c 0
 188.386 655 248.386 658 287.386 662 c 1
 291.386 656 292.386 632 287.386 625 c 1
 274.386 624 226.386 623 226.386 598 c 0
 226.386 594 229.386 589 233.386 582 c 2
 353.386 361 l 1
 358.386 356 436.386 498 479.386 578 c 0
 483.386 586 484.386 594 484.386 601 c 0
 484.386 619 423.386 624 410.386 625 c 1
 405.386 632 406.386 656 410.386 662 c 1
 457.386 658 477.386 655 523.386 655 c 0
 567.386 655 594.386 660 635.386 662 c 1
 639.386 656 640.386 632 635.386 625 c 1
 622.386 624 576.386 623 561.386 600 c 0
 541.748 570.542 407.365 357.018 378.74 298 c 0
 375.299 290.903 373.386 285 373.386 279 c 0
 373.386 145 l 2
 373 102 373.386 71 381.386 51 c 0
 386.386 38 432.386 34 445.386 33 c 1
 450.386 26 449.386 2 445.386 -4 c 1
 406.386 0 344.386 3 302.386 3 c 0
 260.386 3 200.386 0 161.386 -4 c 1
 157.386 2 156.386 26 161.386 33 c 1
 174.386 34 220.386 38 225.386 51 c 0
 233.386 71 233 102 233.386 145 c 2
EndSplineSet
Substitution2: "'c2sc' Capitals to Small Capitals in Latin lookup 0 subtable" y.sc
EndChar

StartChar: Z
Encoding: 90 90 58
Width: 640
Flags: W
HStem: 0 47<206.367 502.048> 610 45<154.666 413.242> 642 20G<77.3672 90.3672 543.367 587.367>
LayerCount: 2
Fore
SplineSet
233.367 610 m 2xc0
 127.367 610 111.367 536 88.3672 474 c 0
 87.3672 471 85.3672 468 75.3672 468 c 0
 64.3672 468 49.3672 470 46.3672 473 c 1
 57.3672 531 72.3672 598 82.3672 662 c 1xa0
 98.3672 658 199.367 655 213.367 655 c 2
 353.367 656 l 2
 437.367 657 501.367 660 585.367 666 c 1
 589.367 665 595.367 643 595.367 633 c 1
 593.367 625 206.367 47 206.367 47 c 17
 422.367 47 l 2
 460.367 47 494.367 59 517.367 82 c 0
 538.367 103 553.367 125 570.367 170 c 0
 571.367 174 577.367 176 584.367 176 c 0
 594.367 176 611.367 173 614.367 170 c 1
 598.367 117 569.367 44 560.367 1 c 1
 518.367 1 46.3672 0 46.3672 0 c 1
 33.3672 0 17.3672 18 20.3672 22 c 2
 416.367 610 l 1
 233.367 610 l 2xc0
EndSplineSet
Substitution2: "'c2sc' Capitals to Small Capitals in Latin lookup 0 subtable" z.sc
EndChar

StartChar: bracketleft
Encoding: 91 91 59
Width: 309
Flags: W
VStem: 75 107<-80.0317 728.032>
LayerCount: 2
Fore
SplineSet
94 770 m 0
 197 770 263 779 299 786 c 1
 301 786 305 783 305 777 c 0
 305 764 297 752 295 751 c 0
 265 736 209 730 182 724 c 9
 182 -76 l 1
 209 -82 265 -88 295 -103 c 0
 297 -104 305 -116 305 -129 c 0
 305 -135 301 -138 299 -138 c 1
 263 -131 197 -122 94 -122 c 0
 81 -121 75 -110 75 -99 c 0
 75 747 l 0
 75 758 81 769 94 770 c 0
EndSplineSet
Substitution2: "'smcp' Lowercase to Small Capitals in Latin lookup 0 subtable" bracketleft.sc
EndChar

StartChar: backslash
Encoding: 92 92 60
Width: 419
Flags: W
LayerCount: 2
Fore
SplineSet
27 755 m 1
 31 760 38 761 46 761 c 0
 70 761 81 753 84 745 c 2
 84 745 390 -20 390 -26 c 1
 389 -30 376 -36 362 -36 c 0
 354 -36 338 -32 332 -18 c 0
 215 277 118 526 27 755 c 1
EndSplineSet
Substitution2: "'smcp' Lowercase to Small Capitals in Latin lookup 0 subtable" backslash.sc
EndChar

StartChar: bracketright
Encoding: 93 93 61
Width: 309
Flags: W
VStem: 127 107<-80.0317 728.032>
LayerCount: 2
Fore
SplineSet
215 770 m 0
 228 769 234 758 234 747 c 0
 234 -99 l 0
 234 -110 228 -121 215 -122 c 0
 112 -122 46 -131 10 -138 c 1
 8 -138 4 -135 4 -129 c 0
 4 -116 12 -104 14 -103 c 0
 44 -88 100 -82 127 -76 c 1
 127 724 l 17
 100 730 44 736 14 751 c 0
 12 752 4 764 4 777 c 0
 4 783 8 786 10 786 c 1
 46 779 112 770 215 770 c 0
EndSplineSet
Substitution2: "'smcp' Lowercase to Small Capitals in Latin lookup 0 subtable" bracketright.sc
EndChar

StartChar: asciicircum
Encoding: 94 94 62
Width: 391
Flags: W
HStem: 419 250
VStem: 38 295
LayerCount: 2
Fore
SplineSet
186 669 m 0
 192 669 201 664 206 655 c 0
 257 566 279 521 333 437 c 1
 333 426 322 419 314 419 c 1
 256 473 186 556 186 556 c 25
 186 556 116 473 58 419 c 1
 50 419 38 426 38 437 c 1
 92 521 116 566 167 655 c 0
 172 664 180 669 186 669 c 0
EndSplineSet
Substitution2: "'smcp' Lowercase to Small Capitals in Latin lookup 0 subtable" asciicircum.sc
EndChar

StartChar: underscore
Encoding: 95 95 63
Width: 493
Flags: W
HStem: -43 56<11.9907 470.32>
LayerCount: 2
Fore
SplineSet
8 -33 m 1
 8 -33 13 13 23 13 c 2
 472 13 l 2
 474 13 476 12 476 8 c 0
 476 -1 472 -15 466 -37 c 0
 464 -43 460 -43 460 -43 c 1
 15 -43 l 1
 15 -43 8 -43 8 -33 c 1
EndSplineSet
EndChar

StartChar: a
Encoding: 97 97 65
Width: 472
Flags: W
HStem: -8 70<124 239.5 334.5 429> 411 38<174.394 289.5>
VStem: 31 135<78.1133 172.955> 43 108<292.124 371.344> 268 130<68.207 223 256.029 377.779>
LayerCount: 2
Fore
SplineSet
227 62 m 0xe8
 252 62 268 77 268 83 c 2
 268 223 l 1
 248 213 222 204 202 191 c 0
 174 173 165 146 166 124 c 0
 167 81 201 62 227 62 c 0xe8
248 449 m 0
 331 449 398 386 398 296 c 2
 398 109 l 2
 398 82 409 68 422 68 c 0
 436 68 447 76 451 78 c 1
 455 76 458 67 458 61 c 3
 458 54 457 51 454 46 c 1
 440 33 393 -6 351 -6 c 0
 318 -6 284 20 275 44 c 1
 266 36 198 -8 162 -8 c 0
 86 -8 31 55 31 114 c 0xe8
 31 153 57 186 83 194 c 0
 121 206 217 245 268 264 c 1
 268 271 268 278 268 285 c 2
 268 311 l 2
 268 361 244 411 209 411 c 0
 171 411 161 372 151 327 c 0
 146 304 130 283 95 283 c 0
 68 283 43 303 43 331 c 0xd8
 43 344 49 358 57 372 c 1
 70 385 160 449 248 449 c 0
EndSplineSet
Substitution2: "'smcp' Lowercase to Small Capitals in Latin lookup 0 subtable" a.sc
EndChar

StartChar: b
Encoding: 98 98 66
Width: 542
Flags: W
HStem: -8 44<212.478 315.401> 375 74<241.389 316.575> 624 32<-1.28614 55.9145> 675 20G<192.886 197.386>
VStem: 68.3857 130<50.2358 352.859 401.779 614.125> 367.386 144<134.511 316.265>
LayerCount: 2
Fore
SplineSet
243.386 -8 m 0
 191.386 -8 143.386 15 117.386 15 c 0
 99.3857 15 87.3857 11 80.3857 8 c 1
 77.3857 8 56.3857 26 56.3857 33 c 1
 63.3857 51 68.3857 86 68.3857 152 c 2
 68.3857 558 l 2
 68.3857 575 68.3857 589 61.3857 606 c 0
 56.3857 618 13.3857 624 1.38574 624 c 1
 -2.61426 624 -3.61426 652 1.38574 656 c 1
 113.386 666 191.386 695 194.386 695 c 1
 200.386 694 208.386 683 209.386 678 c 1
 209.386 678 198.386 633 198.386 577 c 2
 198.386 415 l 2
 198.386 410 198.386 397 204.386 402 c 0
 219.386 414 269.386 449 303.386 449 c 0
 419.386 449 511.386 359 511.386 236 c 0
 511.386 76 373.386 -8 243.386 -8 c 0
253.386 375 m 0
 225.386 375 210.386 363 201.386 353 c 0
 198.386 350 198.386 347 198.386 344 c 2
 198.386 98 l 2
 198.386 64 222.386 36 264.386 36 c 0
 328.386 36 367.386 122 367.386 196 c 0
 367.386 333 315.386 375 253.386 375 c 0
EndSplineSet
Substitution2: "'smcp' Lowercase to Small Capitals in Latin lookup 0 subtable" b.sc
EndChar

StartChar: c
Encoding: 99 99 67
Width: 447
Flags: W
HStem: -9 84<226.332 332.626> 396 52<192.134 319.5>
VStem: 31 126<151.509 290.309>
LayerCount: 2
Fore
SplineSet
413 382 m 0
 413 353 391 320 355 320 c 0
 328 320 311 347 295 365 c 0
 278 384 252 396 227 396 c 0
 183 396 157 319 157 258 c 0
 157 118 237 75 301 75 c 0
 359 75 392 102 413 125 c 1
 420 123 425 113 425 107 c 3
 425 100 424 91 422 88 c 0
 404 60 336 -9 241 -9 c 0
 129 -9 31 69 31 200 c 0
 31 322 154 448 292 448 c 0
 347 448 382 437 393 430 c 1
 402 420 413 408 413 382 c 0
EndSplineSet
Substitution2: "'smcp' Lowercase to Small Capitals in Latin lookup 0 subtable" c.sc
EndChar

StartChar: d
Encoding: 100 100 68
Width: 547
Flags: W
HStem: -8 64<165 294.956> 28 32<478.435 525.823> 395 51<210.607 324.309> 624 32<269.328 326.529> 675 20G<463.5 468>
VStem: 32 142<121.851 297.682> 339 130<70.4709 378.4 444.011 614.125>
LayerCount: 2
Fore
SplineSet
294 446 m 0xbe
 315 446 326 445 334 444 c 1
 338 444 339 459 339 467 c 0
 339 492 339 525 339 558 c 0
 339 577 339 589 332 606 c 0
 327 618 284 624 272 624 c 1
 268 624 267 652 272 656 c 1
 384 666 462 695 465 695 c 1
 471 694 479 683 480 678 c 1
 480 678 469 633 469 577 c 2
 469 108 l 26
 469 93 469 80 478 70 c 0
 487 60 514 60 523 60 c 1
 525 58 526 54 526 47 c 0
 526 41 524 34 520 28 c 1x7e
 461 22 361 -7 348 -7 c 0
 344 -7 339 2 339 17 c 2
 339 33 l 18
 339 35 339 40 336 38 c 0
 320 27 266 -8 213 -8 c 0
 117 -8 32 82 32 200 c 0
 32 370 203 446 294 446 c 0xbe
261 395 m 0
 197 395 174 323 174 243 c 0
 174 133 213 56 275 56 c 0xbe
 303 56 339 80 339 93 c 2
 339 350 l 2
 339 368 303 395 261 395 c 0
EndSplineSet
Substitution2: "'smcp' Lowercase to Small Capitals in Latin lookup 0 subtable" d.sc
EndChar

StartChar: e
Encoding: 101 101 69
Width: 460
Flags: W
HStem: -9 84<230.39 333.626> 242 40<163 290.823> 406 41<200.95 283.103>
VStem: 32 130<147.948 242 282 297.174> 305 124<289.978 370.347>
LayerCount: 2
Fore
SplineSet
163 282 m 1
 172 281 268 287 292 290 c 0
 304 291 305 300 305 306 c 11
 305 352 289 406 244 406 c 3
 185 406 163 316 163 282 c 1
162 242 m 1
 162 102 257 75 302 75 c 0
 360 75 393 102 414 125 c 1
 421 123 426 113 426 107 c 3
 426 100 425 91 423 88 c 0
 405 60 337 -9 242 -9 c 0
 130 -9 32 69 32 200 c 0
 32 326 139 447 254 447 c 0
 385 447 429 354 429 296 c 0
 429 274 417 255 402 254 c 0
 334 248 236 244 162 242 c 1
EndSplineSet
Substitution2: "'smcp' Lowercase to Small Capitals in Latin lookup 0 subtable" e.sc
EndChar

StartChar: f
Encoding: 102 102 70
Width: 355
Flags: W
HStem: -4 37<24.7205 90.9985 237.002 303.279> 381 47<31.9586 99 229 345.039> 626 72<240.629 322>
VStem: 99 130<41.2661 381 428 540.641>
LayerCount: 2
Fore
SplineSet
306 698 m 0
 338 698 356 692 370 688 c 1
 387 679 409 666 409 642 c 27
 409 609 391 573 358 573 c 19
 328 573 311 596 292 611 c 0
 281 620 268 626 252 626 c 0
 236 626 222 591 222 544 c 0
 222 498 224 459 226 428 c 1
 233 428 310 428 343 428 c 0
 347 428 349 420 349 415 c 0
 349 406 336 388 326 381 c 1
 296 381 262 381 229 381 c 1
 229 145 l 2
 229 102 229 71 237 51 c 0
 242 38 288 34 301 33 c 1
 306 26 305 2 301 -4 c 1
 262 0 206 3 164 3 c 0
 122 3 66 0 27 -4 c 1
 23 2 22 26 27 33 c 1
 40 34 86 38 91 51 c 0
 99 71 99 102 99 145 c 2
 99 145 99 292 99 381 c 1
 72 381 54 381 28 381 c 1
 23 383 23 390 23 394 c 1
 33 408 43 418 55 428 c 1
 68 428 89 428 99 428 c 9
 99 443 l 2
 99 580 231 698 306 698 c 0
EndSplineSet
Substitution2: "'smcp' Lowercase to Small Capitals in Latin lookup 0 subtable" f.sc
EndChar

StartChar: g
Encoding: 103 103 71
Width: 478
Flags: W
HStem: -218 56<175.684 308.846> -14 111<146.275 346.633> 148 37<190.923 268.139> 366 61<389.206 458.813> 406 37<177.138 253.603>
VStem: 24 110<-121.74 -54.107> 39 121<220.825 365.646> 49 97<71 122.664> 282 121<226.627 369.198> 372 87<-93.8474 3>
LayerCount: 2
Fore
SplineSet
215 406 m 0xea80
 163 406 160 352 160 307 c 0
 160 251 179 185 231 185 c 0
 283 185 282 241 282 285 c 0
 282 340 267 406 215 406 c 0xea80
260 -14 m 0
 223 -14 169 -14 150 -14 c 1
 143 -22 134 -35 134 -58 c 0
 134 -124 184 -162 254 -162 c 0
 350 -162 372 -112 372 -79 c 0xe440
 372 -37 324 -14 260 -14 c 0
326 96 m 0
 418 91 459 20 459 -14 c 0
 459 -135 327 -218 191 -218 c 0
 93 -218 24 -171 24 -103 c 0xf440
 24 -63 72 -24 109 -6 c 1
 75 3 49 50 49 92 c 0xf1
 49 110 94 144 132 165 c 1
 75 188 39 237 39 294 c 0
 39 377 118 443 220 443 c 0xea
 265 443 299 437 327 418 c 0
 330 415 331 415 333 415 c 2
 458 427 l 1
 461 426 469 422 469 416 c 0
 469 409 454 373 444 366 c 1
 422 368 414 369 388 372 c 0
 386 372 382 371 382 369 c 1
 398 347 403 327 403 299 c 0
 403 216 325 148 222 148 c 0
 204 148 186 150 170 153 c 1
 159 144 146 132 146 122 c 0xf180
 146 107 170 97 194 97 c 0
 232 97 291 98 326 96 c 0
EndSplineSet
Substitution2: "'smcp' Lowercase to Small Capitals in Latin lookup 0 subtable" g.sc
EndChar

StartChar: h
Encoding: 104 104 72
Width: 583
Flags: W
HStem: -4 37<14.1062 80.3842 226.388 285.665 311.107 365.384 511.388 577.665> 365 1<219.386 306.386> 624 32<18.7138 75.9145> 675 20G<212.886 217.386>
VStem: 88.3857 130<41.2661 338.951 366.048 615.244> 373.386 130<41.2661 334.749>
LayerCount: 2
Fore
SplineSet
367.386 446 m 0
 481.386 446 503.386 368 503.386 210 c 2
 503.386 145 l 2
 503.386 102 503.386 71 511.386 51 c 0
 516.386 38 562.386 34 575.386 33 c 1
 580.386 26 579.386 2 575.386 -4 c 1
 536.386 0 480.386 3 438.386 3 c 0
 396.386 3 352.386 0 313.386 -4 c 1
 309.386 2 308.386 26 313.386 33 c 1
 326.386 34 360.386 38 365.386 51 c 0
 373.386 71 373.386 102 373.386 145 c 2
 373.386 224 l 2
 373.386 296 359.386 365 306.386 365 c 0
 266.386 365 218.386 329 218.386 309 c 2
 218.386 145 l 2
 218.386 108 218.386 71 226.386 51 c 0
 231.386 38 270.386 34 283.386 33 c 1
 288.386 26 287.386 2 283.386 -4 c 1
 244.386 0 195.386 3 153.386 3 c 0
 111.386 3 55.3857 0 16.3857 -4 c 1
 12.3857 2 11.3857 26 16.3857 33 c 1
 29.3857 34 75.3857 38 80.3857 51 c 0
 88.3857 71 88.3857 102 88.3857 145 c 2
 88.3857 558 l 2
 88.3857 575 88.3857 589 81.3857 606 c 0
 76.3857 618 33.3857 624 21.3857 624 c 1
 17.3857 624 16.3857 652 21.3857 656 c 1
 133.386 666 211.386 695 214.386 695 c 1
 220.386 694 228.386 683 229.386 678 c 1
 229.386 678 218.386 616 218.386 576 c 0
 218.386 372 l 0
 218.386 369 218.386 367 219.386 366 c 1
 221.386 366 224.386 369 226.386 371 c 0
 254.386 403 321.386 446 367.386 446 c 0
EndSplineSet
Substitution2: "'smcp' Lowercase to Small Capitals in Latin lookup 0 subtable" h.sc
EndChar

StartChar: i
Encoding: 105 105 73
Width: 315
Flags: W
HStem: -4 37<27.1062 93.3842 239.388 298.665> 362 31<27.418 87.5734> 426 20G<206.386 228.886> 544 144<104.182 209.113>
VStem: 84.3857 145<565 667> 101.386 130<41.2661 351.93>
LayerCount: 2
Fore
SplineSet
231.386 309 m 2xf4
 231.386 145 l 2
 231.386 108 231.386 71 239.386 51 c 0
 244.386 38 283.386 34 296.386 33 c 1
 301.386 26 300.386 2 296.386 -4 c 1
 257.386 0 208.386 3 166.386 3 c 0
 124.386 3 68.3857 0 29.3857 -4 c 1
 25.3857 2 24.3857 26 29.3857 33 c 1
 42.3857 34 88.3857 38 93.3857 51 c 0
 101.386 71 101.386 102 101.386 145 c 2
 101.386 260 l 2
 101.386 270 100.386 327 92.3857 342 c 0
 84.3857 357 36.3857 362 29.3857 362 c 1
 26.3857 364 25.3857 393 30.3857 393 c 1
 106.386 399 187.386 427 225.386 446 c 1
 232.386 444 242.386 432 242.386 429 c 1
 239.386 421 233.386 386 232.386 372 c 0
 231.386 350 231.386 315 231.386 309 c 2xf4
84.3857 616 m 0xf8
 84.3857 656 116.386 688 156.386 688 c 0
 196.386 688 229.386 656 229.386 616 c 0
 229.386 576 196.386 544 156.386 544 c 0
 116.386 544 84.3857 576 84.3857 616 c 0xf8
EndSplineSet
Substitution2: "'ccmp' Turkish i-1" i.TRK
Substitution2: "'smcp' Lowercase to Small Capitals in Latin lookup 0 subtable" i.sc
EndChar

StartChar: j
Encoding: 106 106 74
Width: 286
Flags: W
HStem: -218 24<-10.4946 4.55321> 362 31<15.0323 75.1875> 426 20G<194 216.5> 542 148<93.625 198.375>
VStem: 72 148<563.625 668.375> 89 130<-43.1268 351.93>
LayerCount: 2
Fore
SplineSet
89 64 m 2xf4
 89 260 l 2xf4
 89 270 88 327 80 342 c 0
 72 357 24 362 17 362 c 1
 14 364 13 393 18 393 c 1
 94 399 175 427 213 446 c 1
 220 444 230 432 230 429 c 1
 227 421 221 386 220 372 c 0xf8
 219 350 219 315 219 309 c 2
 219 120 l 2
 219 36 208 -48 171 -102 c 0
 124 -170 36 -218 2 -218 c 1
 -5 -214 -12 -207 -12 -201 c 0
 -12 -199 -12 -195 -11 -194 c 0
 -7 -192 89 -142 89 64 c 2xf4
72 616 m 0xf8
 72 657 105 690 146 690 c 0
 187 690 220 657 220 616 c 0
 220 575 187 542 146 542 c 0
 105 542 72 575 72 616 c 0xf8
EndSplineSet
Substitution2: "'smcp' Lowercase to Small Capitals in Latin lookup 0 subtable" j.sc
EndChar

StartChar: k
Encoding: 107 107 75
Width: 590
Flags: W
HStem: -4 37<14.6239 79.2427 227.529 292.148 523.681 586.613> 405 35<315.309 377.863 485.066 561.78> 624 32<18.7138 75.9145> 675 20G<212.886 217.386>
VStem: 88.3857 130<41.2661 201 236 615.244>
LayerCount: 2
Fore
SplineSet
218.386 145 m 2
 218.386 102 218.386 71 226.386 51 c 0
 231.386 38 277.386 34 290.386 33 c 1
 295.386 26 294.386 2 290.386 -4 c 1
 251.386 0 195.386 3 153.386 3 c 0
 111.386 3 55.3857 0 16.3857 -4 c 1
 12.3857 2 11.3857 26 16.3857 33 c 1
 29.3857 34 75.3857 38 80.3857 51 c 0
 88.3857 71 88.3857 102 88.3857 145 c 2
 88.3857 558 l 2
 88.3857 575 88.3857 589 81.3857 606 c 0
 76.3857 618 33.3857 624 21.3857 624 c 1
 17.3857 624 16.3857 652 21.3857 656 c 1
 133.386 666 211.386 695 214.386 695 c 1
 220.386 694 228.386 683 229.386 678 c 1
 229.386 678 218.386 616 218.386 576 c 0
 217.386 236 l 1
 234.386 242 257.386 257 292.386 287 c 0
 362.386 347 380.386 368 380.386 383 c 0
 380.386 395 334.386 404 316.386 405 c 1
 313.386 414 313.386 437 318.386 439 c 1
 318.386 439 407.386 435 449.386 435 c 0
 485.386 435 515.386 438 560.386 440 c 1
 566.386 430 563.386 408 557.386 405 c 1
 526.386 402 484.386 392 458.386 374 c 0
 437.386 359 387.386 310 326.386 256 c 1
 397.386 173 412.386 161 468.386 98 c 0
 523.386 37 555.386 36 587.386 36 c 1
 593.386 25 588.386 8 587.386 6 c 1
 571.386 0 524.386 -6 486.386 -6 c 0
 428.386 -6 379.386 18 349.386 53 c 2
 349.386 53 280.386 127 231.386 188 c 0
 227.386 194 218.386 201 218.386 201 c 1
 218.386 145 l 2
EndSplineSet
Substitution2: "'smcp' Lowercase to Small Capitals in Latin lookup 0 subtable" k.sc
EndChar

StartChar: l
Encoding: 108 108 76
Width: 306
Flags: W
HStem: -4 37<14.1062 80.3842 226.388 292.665> 624 32<18.7138 75.9145> 675 20G<212.886 217.386>
VStem: 88.3857 130<41.2661 615.244>
LayerCount: 2
Fore
SplineSet
88.3857 558 m 2
 88.3857 575 88.3857 589 81.3857 606 c 0
 76.3857 618 33.3857 624 21.3857 624 c 1
 17.3857 624 16.3857 652 21.3857 656 c 1
 133.386 666 211.386 695 214.386 695 c 1
 220.386 694 228.386 683 229.386 678 c 1
 229.386 678 218.386 616 218.386 576 c 0
 218.386 145 l 18
 218.386 102 218.386 71 226.386 51 c 0
 231.386 38 277.386 34 290.386 33 c 1
 295.386 26 294.386 2 290.386 -4 c 1
 251.386 0 195.386 3 153.386 3 c 0
 111.386 3 55.3857 0 16.3857 -4 c 1
 12.3857 2 11.3857 26 16.3857 33 c 1
 29.3857 34 75.3857 38 80.3857 51 c 0
 88.3857 71 88.3857 102 88.3857 145 c 2
 88.3857 558 l 2
EndSplineSet
Substitution2: "'smcp' Lowercase to Small Capitals in Latin lookup 0 subtable" l.sc
EndChar

StartChar: m
Encoding: 109 109 77
Width: 883
Flags: W
HStem: -4 37<27.1062 93.3842 239.388 298.665 322.107 378.384 524.388 588.665 611.107 665.384 811.388 877.665> 362 31<27.418 87.5734> 365 81<310.411 402.809 592.861 714.809>
VStem: 101.386 130<41.2661 338.951> 386.386 130<41.2661 338.449> 673.386 130<41.2661 334.749>
LayerCount: 2
Fore
SplineSet
380.386 446 m 0xbc
 444.386 446 479.386 424 503.386 360 c 1
 547 403 621.386 446 667.386 446 c 0
 781.386 446 803.386 368 803.386 210 c 2
 803.386 145 l 2
 803.386 102 803.386 71 811.386 51 c 0
 816.386 38 862.386 34 875.386 33 c 1
 880.386 26 879.386 2 875.386 -4 c 1
 836.386 0 780.386 3 738.386 3 c 0
 696.386 3 652.386 0 613.386 -4 c 1
 609.386 2 608.386 26 613.386 33 c 1
 626.386 34 660.386 38 665.386 51 c 0
 673.386 71 673.386 102 673.386 145 c 2
 673.386 224 l 2
 673.386 296 659.386 365 606.386 365 c 0
 566.386 365 512.386 330 512.386 310 c 8
 512.386 308 512.386 306 512.386 304 c 0
 514.386 276 516.386 245 516.386 210 c 2
 516.386 145 l 2
 516.386 102 516.386 71 524.386 51 c 0
 529.386 38 573.386 34 586.386 33 c 1
 591.386 26 590.386 2 586.386 -4 c 1
 547.386 0 493.386 3 451.386 3 c 0
 409.386 3 363.386 0 324.386 -4 c 1
 320.386 2 319.386 26 324.386 33 c 1
 337.386 34 373.386 38 378.386 51 c 0
 386.386 71 386.386 102 386.386 145 c 2
 386.386 224 l 2
 386.386 296 372.386 365 319.386 365 c 0xbc
 279.386 365 231.386 329 231.386 309 c 2
 231.386 145 l 2
 231.386 108 231.386 71 239.386 51 c 0
 244.386 38 283.386 34 296.386 33 c 1
 301.386 26 300.386 2 296.386 -4 c 1
 257.386 0 208.386 3 166.386 3 c 0
 124.386 3 68.3857 0 29.3857 -4 c 1
 25.3857 2 24.3857 26 29.3857 33 c 1
 42.3857 34 88.3857 38 93.3857 51 c 0
 101.386 71 101.386 102 101.386 145 c 2
 101.386 260 l 2
 101.386 270 100.386 327 92.3857 342 c 0
 84.3857 357 36.3857 362 29.3857 362 c 1
 26.3857 364 25.3857 393 30.3857 393 c 1xdc
 106.386 399 187.386 427 225.386 446 c 1
 232.386 444 242.386 432 242.386 429 c 1
 239.386 421 231.386 373 232.386 372 c 0
 232.386 369 232.386 367 233.386 366 c 1
 235.386 366 238.386 369 240.386 371 c 0
 268.386 403 334.386 446 380.386 446 c 0xbc
EndSplineSet
Substitution2: "'smcp' Lowercase to Small Capitals in Latin lookup 0 subtable" m.sc
EndChar

StartChar: n
Encoding: 110 110 78
Width: 596
Flags: W
HStem: -4 37<27.1062 93.3842 239.388 298.665 324.107 378.384 524.388 590.665> 362 31<27.418 87.5734> 365 1<233.386 319.386> 426 20G<206.386 228.386>
VStem: 101.386 130<41.2661 338.951> 386.386 130<41.2661 334.749>
LayerCount: 2
Fore
SplineSet
380.386 446 m 0xbc
 494.386 446 516.386 368 516.386 210 c 2
 516.386 145 l 2
 516.386 102 516.386 71 524.386 51 c 0
 529.386 38 575.386 34 588.386 33 c 1
 593.386 26 592.386 2 588.386 -4 c 1
 549.386 0 493.386 3 451.386 3 c 0
 409.386 3 365.386 0 326.386 -4 c 1
 322.386 2 321.386 26 326.386 33 c 1
 339.386 34 373.386 38 378.386 51 c 0
 386.386 71 386.386 102 386.386 145 c 2
 386.386 224 l 2
 386.386 296 372.386 365 319.386 365 c 0xbc
 279.386 365 231.386 329 231.386 309 c 2
 231.386 145 l 2
 231.386 108 231.386 71 239.386 51 c 0
 244.386 38 283.386 34 296.386 33 c 1
 301.386 26 300.386 2 296.386 -4 c 1
 257.386 0 208.386 3 166.386 3 c 0
 124.386 3 68.3857 0 29.3857 -4 c 1
 25.3857 2 24.3857 26 29.3857 33 c 1
 42.3857 34 88.3857 38 93.3857 51 c 0
 101.386 71 101.386 102 101.386 145 c 2
 101.386 260 l 2
 101.386 270 100.386 327 92.3857 342 c 0
 84.3857 357 36.3857 362 29.3857 362 c 1
 26.3857 364 25.3857 393 30.3857 393 c 1xdc
 106.386 399 187.386 427 225.386 446 c 1
 231.386 446 242.386 434 242.386 429 c 1
 240.386 421 232.386 373 232.386 372 c 0
 232.386 369 232.386 367 233.386 366 c 1
 235.386 366 238.386 369 240.386 371 c 0
 268.386 403 334.386 446 380.386 446 c 0xbc
EndSplineSet
Substitution2: "'smcp' Lowercase to Small Capitals in Latin lookup 0 subtable" n.sc
EndChar

StartChar: o
Encoding: 111 111 79
Width: 532
Flags: W
HStem: -7 42<229.597 322.545> 406 41<209.207 298.807>
VStem: 32 142<118.592 313.407> 358 142<126.606 322.548>
LayerCount: 2
Fore
SplineSet
254 406 m 3
 181 406 174 310 174 237 c 27
 174 149 204 35 277 35 c 3
 350 35 358 130 358 202 c 27
 358 291 327 406 254 406 c 3
265 447 m 0
 403 447 500 352 500 225 c 0
 500 99 399 -7 267 -7 c 0
 128 -7 32 91 32 217 c 0
 32 343 134 447 265 447 c 0
EndSplineSet
Substitution2: "'smcp' Lowercase to Small Capitals in Latin lookup 0 subtable" o.sc
EndChar

StartChar: p
Encoding: 112 112 80
Width: 553
Flags: W
HStem: -218 37<11.1062 77.3842 223.388 289.665> -8 44<229.572 325.73> 362 31<11.4181 71.5732> 375 73<265.72 332.202>
VStem: 85.3857 130<-172.734 0.997055 50.0771 351.93> 377.386 144<134.92 323.157>
LayerCount: 2
Fore
SplineSet
325.386 448 m 0xdc
 446.386 448 521.386 345 521.386 234 c 0
 521.386 81 386.386 -8 276.386 -8 c 0
 248.386 -8 222.386 1 218.386 1 c 1
 215.386 1 215.386 -3 215.386 -15 c 2
 215.386 -69 l 2
 215.386 -112 215.386 -143 223.386 -163 c 0
 228.386 -176 274.386 -180 287.386 -181 c 1
 292.386 -188 291.386 -212 287.386 -218 c 1
 248.386 -214 192.386 -211 150.386 -211 c 0
 108.386 -211 52.3857 -214 13.3857 -218 c 1
 9.38574 -212 8.38574 -188 13.3857 -181 c 1
 26.3857 -180 72.3857 -176 77.3857 -163 c 0
 85.3857 -143 85.3857 -112 85.3857 -69 c 2
 85.3857 260 l 2
 85.3857 270 84.3857 327 76.3857 342 c 0
 68.3857 357 20.3857 362 13.3857 362 c 1
 10.3857 364 9.38574 393 14.3857 393 c 1xec
 90.3857 399 171.386 427 209.386 446 c 1
 216.386 444 226.386 432 226.386 429 c 1
 224.386 423 217.386 411 217.386 395 c 0
 217.386 389 219.386 387 221.386 389 c 0
 251.386 421 294.386 448 325.386 448 c 0xdc
270.386 375 m 0xdc
 233.386 375 215.386 352 215.386 347 c 2
 215.386 96 l 2
 215.386 56 248.386 36 283.386 36 c 0
 316.386 36 377.386 83 377.386 199 c 0
 377.386 302 351.386 375 270.386 375 c 0xdc
EndSplineSet
Substitution2: "'smcp' Lowercase to Small Capitals in Latin lookup 0 subtable" p.sc
EndChar

StartChar: q
Encoding: 113 113 81
Width: 534
Flags: W
HStem: -218 37<261.721 327.998 474.002 540.279> -8 64<165.5 301.682> 394 52<210.482 319.088>
VStem: 32 142<119.026 292.643> 336 130<-172.734 30.222 63.9757 375.935>
LayerCount: 2
Fore
SplineSet
262 394 m 0
 192 394 174 314 174 243 c 0
 174 160 199 56 276 56 c 0
 312 56 336 76 336 80 c 2
 336 344 l 2
 336 354 314 394 262 394 c 0
300 446 m 0
 338 446 388 423 418 423 c 0
 439 423 448 428 454 430 c 1
 460 428 478 412 478 405 c 1
 473 393 466 360 466 291 c 2
 466 -69 l 2
 466 -112 466 -143 474 -163 c 0
 479 -176 525 -180 538 -181 c 1
 543 -188 542 -212 538 -218 c 1
 499 -214 443 -211 401 -211 c 0
 359 -211 303 -214 264 -218 c 1
 260 -212 259 -188 264 -181 c 1
 277 -180 323 -176 328 -163 c 0
 336 -143 336 -112 336 -69 c 2
 336 17 l 2
 336 23 336 35 330 30 c 0
 315 19 263 -8 216 -8 c 0
 115 -8 32 84 32 192 c 0
 32 349 173 446 300 446 c 0
EndSplineSet
Substitution2: "'smcp' Lowercase to Small Capitals in Latin lookup 0 subtable" q.sc
EndChar

StartChar: r
Encoding: 114 114 82
Width: 449
Flags: W
HStem: -4 37<27.1062 93.3842 239.388 315.279> 348 99<277.693 376.193> 362 31<27.418 87.5734>
VStem: 101.386 130<42.0335 320.253>
LayerCount: 2
Fore
SplineSet
363.386 447 m 11xd0
 389 447 413.386 442 426.386 430 c 1
 430.386 424 437.386 402 437.386 381 c 0
 437.386 347 411.386 302 377.386 302 c 3
 359.386 302 346.386 317 334.386 327 c 0
 323.386 337 315.386 348 298.386 348 c 11xd0
 257 348 231.386 288 231.386 267 c 2
 231.386 145 l 2
 231.386 108 231.386 71 239.386 51 c 0
 244.386 38 300 34 313 33 c 1
 318 26 317 2 313 -4 c 1
 274 0 208.386 3 166.386 3 c 0
 124.386 3 68.3857 0 29.3857 -4 c 1
 25.3857 2 24.3857 26 29.3857 33 c 1
 42.3857 34 88.3857 38 93.3857 51 c 0
 101.386 71 101.386 102 101.386 145 c 2
 101.386 260 l 2
 101.386 270 100.386 327 92.3857 342 c 0
 84.3857 357 36.3857 362 29.3857 362 c 1
 26.3857 364 25.3857 393 30.3857 393 c 1xb0
 106.386 399 187.386 427 225.386 446 c 1
 232.386 444 242.386 432 242.386 429 c 1
 239.386 421 232.386 364 232.386 350 c 0
 232.386 345 237.386 345 238.386 347 c 0
 262.386 390 300.386 447 363.386 447 c 11xd0
EndSplineSet
Substitution2: "'smcp' Lowercase to Small Capitals in Latin lookup 0 subtable" r.sc
EndChar

StartChar: s
Encoding: 115 115 83
Width: 404
Flags: W
HStem: -8 40<128.28 232.806> 408 40<168.713 274.324>
VStem: 38 119<274.689 380.15> 45 37<86.4219 149.713> 247 120<56.656 172.818>
LayerCount: 2
Fore
SplineSet
224 448 m 0xe8
 271 448 303 436 336 429 c 1
 344 395 357 323 357 306 c 0
 357 302 346 299 339 299 c 0
 331 299 326 303 320 307 c 1
 310 352 284 408 214 408 c 0
 181 408 157 390 157 354 c 0xe8
 157 302 215 287 259 265 c 0
 311 239 367 215 367 130 c 0
 367 30 274 -8 170 -8 c 0
 126 -8 78 7 53 13 c 1
 49 36 45 132 45 143 c 0
 45 149 55 150 60 150 c 0
 67 150 79 146 82 140 c 1xd8
 96 53 150 32 190 32 c 0
 225 32 247 58 247 86 c 0
 247 136 191 149 144 175 c 0
 86 207 38 242 38 310 c 0
 38 410 145 448 224 448 c 0xe8
EndSplineSet
Substitution2: "'smcp' Lowercase to Small Capitals in Latin lookup 0 subtable" s.sc
EndChar

StartChar: t
Encoding: 116 116 84
Width: 342
Flags: W
HStem: -7 64<181 277.975> 381 47<14.9586 82 212 328.039>
VStem: 82 130<68.9375 381 428 500.009>
LayerCount: 2
Fore
SplineSet
212 428 m 1
 219 428 293 428 326 428 c 0
 330 428 332 420 332 415 c 0
 332 406 319 388 309 381 c 1
 279 381 245 381 212 381 c 1
 212 133 l 2
 212 80 229 57 266 57 c 0
 290 57 316 78 319 81 c 1
 321 79 326 72 326 67 c 0
 326 62 320 50 318 48 c 0
 309 38 264 -7 212 -7 c 0
 150 -7 82 27 82 139 c 2
 82 381 l 1
 55 381 37 381 11 381 c 1
 6 383 6 390 6 394 c 1
 16 408 26 418 38 428 c 1
 51 428 72 428 82 428 c 9
 82 428 82 461 82 481 c 1
 120 513 156 556 187 587 c 1
 198 594 211 593 212 587 c 1
 212 533 212 481 212 428 c 1
EndSplineSet
Substitution2: "'smcp' Lowercase to Small Capitals in Latin lookup 0 subtable" t.sc
EndChar

StartChar: u
Encoding: 117 117 85
Width: 566
Flags: W
HStem: -5 61<163 313.955> 28 32<494.935 542.323> 362 31<9.53235 69.6875 281.532 341.688> 426 20G<188.5 211 460.5 483>
VStem: 83.5 130<87.0607 351.93> 355.5 130<70.4709 351.93>
LayerCount: 2
Fore
SplineSet
355.5 260 m 2xbc
 355.5 270 354.5 327 346.5 342 c 0
 338.5 357 290.5 362 283.5 362 c 1
 280.5 364 279.5 393 284.5 393 c 1
 360.5 399 441.5 427 479.5 446 c 1
 486.5 444 496.5 432 496.5 429 c 1
 493.5 421 487.5 386 486.5 372 c 0
 485.5 350 485.5 315 485.5 309 c 2
 485.5 108 l 10
 485.5 93 485.5 80 494.5 70 c 0
 503.5 60 530.5 60 539.5 60 c 1
 541.5 58 542.5 54 542.5 47 c 0
 542.5 41 540.5 34 536.5 28 c 1x7c
 477.5 22 377.5 -7 364.5 -7 c 0
 360.5 -7 355.5 2 355.5 17 c 2
 355.5 33 l 18
 355.5 35 355.5 40 352.5 38 c 0
 336.5 27 281.5 -5 211.5 -5 c 3
 114.5 -5 83.5 80 83.5 174 c 2
 83.5 260 l 2
 83.5 270 82.5 327 74.5 342 c 0
 66.5 357 18.5 362 11.5 362 c 1
 8.5 364 7.5 393 12.5 393 c 1
 88.5 399 169.5 427 207.5 446 c 1
 214.5 444 224.5 432 224.5 429 c 1
 221.5 421 215.5 386 214.5 372 c 0
 213.5 350 213.5 315 213.5 309 c 2
 213.5 219 l 2
 213.5 113 229.5 56 291.5 56 c 0
 319.5 56 355.5 78 355.5 93 c 2
 355.5 260 l 2xbc
EndSplineSet
Substitution2: "'smcp' Lowercase to Small Capitals in Latin lookup 0 subtable" u.sc
EndChar

StartChar: v
Encoding: 118 118 86
Width: 533
Flags: W
HStem: -11 21G<252.287 259.787> 406 37<-2.61855 47.47 206.204 263.479 322.959 393.378 465.689 536.178>
LayerCount: 2
Fore
SplineSet
134.787 436 m 0
 176.787 436 235.787 440 260.787 443 c 1
 265.787 438 265.787 412 260.787 406 c 1
 248.787 406 201.787 396 201.787 379 c 0
 201.787 376 201.787 369 203.787 364 c 0
 239.787 294 306.787 167 306.787 167 c 1
 306.787 167 352.787 268 385.787 342 c 0
 390.787 352 396.787 368 396.787 379 c 0
 396.787 404 333.787 406 325.787 406 c 1
 320.787 411 320.787 436 324.787 443 c 1
 354.787 439 390.787 436 429.787 436 c 0
 471.787 436 518.787 441 533.787 443 c 1
 537.787 438 538.787 413 533.787 406 c 1
 521.787 406 466.787 402 452.787 373 c 2
 298.787 45 l 2
 278.787 6 265.787 -11 253.787 -11 c 0
 250.787 -11 244.787 -6 241.787 -3 c 1
 183.787 117 129.787 230 62.7871 368 c 1
 49.7871 398 7.78711 406 -0.212891 406 c 1
 -6.21289 414 -4.21289 437 -0.212891 443 c 1
 25.7871 440 95.7871 436 134.787 436 c 0
EndSplineSet
Substitution2: "'smcp' Lowercase to Small Capitals in Latin lookup 0 subtable" v.sc
EndChar

StartChar: w
Encoding: 119 119 87
Width: 789
Flags: W
HStem: -11 21G<250.287 256.287 522.287 528.287> 406 37<-2.61855 47.0403 206.204 263.479 291.412 340.466 500.204 557.479 586.959 657.378 729.839 791.178>
VStem: 366.787 129<320.283 384.275>
LayerCount: 2
Fore
SplineSet
127.787 436 m 0
 169.787 436 235.787 440 260.787 443 c 1
 265.787 438 265.787 412 260.787 406 c 1
 248.787 406 201.787 396 201.787 379 c 0
 201.787 376 201.787 369 203.787 364 c 0
 239.787 294 300.787 172 300.787 172 c 1
 300.787 172 366.787 320 366.787 335 c 0
 366.787 346 360.787 362 357.787 368 c 0
 342.787 397 302.787 406 294.787 406 c 1
 287.787 414 289.787 437 293.787 443 c 1
 333.787 438 389.787 437 428.787 436 c 1
 470.787 436 529.787 440 554.787 443 c 1
 559.787 438 559.787 412 554.787 406 c 1
 542.787 406 495.787 396 495.787 379 c 0
 495.787 376 495.787 369 497.787 364 c 0
 529.787 292 581.787 180 581.787 180 c 1
 581.787 180 617.787 269 649.787 342 c 0
 653.787 352 660.787 368 660.787 379 c 0
 660.787 404 597.787 406 589.787 406 c 1
 584.787 411 584.787 436 588.787 443 c 1
 618.787 439 654.787 436 693.787 436 c 0
 735.787 436 773.787 441 788.787 443 c 1
 792.787 438 793.787 413 788.787 406 c 1
 776.787 406 733.787 405 720.787 375 c 8
 664.787 245 632.787 172 573.787 44 c 16
 555.787 5 532.787 -11 523.787 -11 c 0
 520.787 -11 514.787 -6 511.787 -3 c 1
 511.787 -3 433.787 198 400.787 276 c 1
 369.787 198 301.787 44 301.787 44 c 2
 284.787 5 260.787 -11 251.787 -11 c 0
 248.787 -11 242.787 -6 239.787 -3 c 1
 169.787 146 130.787 231 62.7871 368 c 1
 48.7871 398 7.78711 406 -0.212891 406 c 1
 -6.21289 414 -4.21289 437 -0.212891 443 c 1
 25.7871 440 88.7871 436 127.787 436 c 0
EndSplineSet
Substitution2: "'smcp' Lowercase to Small Capitals in Latin lookup 0 subtable" w.sc
EndChar

StartChar: x
Encoding: 120 120 88
Width: 558
Flags: W
HStem: -4 37<5.99512 70.2378 171.795 242.214 281.694 331.755 498.936 552.761> 406 37<15.0107 71.8113 234.017 284.078 310.558 380.977 471.901 540.777>
LayerCount: 2
Fore
SplineSet
155.386 436 m 1
 197.386 436 256.386 440 281.386 443 c 1
 286.386 438 286.386 412 281.386 406 c 1
 269.386 406 233.386 401 233.386 384 c 0
 233.386 381 239.386 375 243.386 370 c 10
 307.386 288 l 17
 336.386 319 384.386 370 384.386 379 c 0
 384.386 404 321.386 406 313.386 406 c 1
 308.386 411 308.386 436 312.386 443 c 1
 342.386 439 378.386 436 417.386 436 c 0
 459.386 436 523.386 441 538.386 443 c 1
 542.386 438 543.386 413 538.386 406 c 1
 520.386 406 483.386 403 455.386 374 c 0
 419.386 336 389.386 302 340.386 246 c 9
 395.386 176 428.386 135 482.386 66 c 0
 502.386 40 541.386 33 549.386 33 c 1
 556.386 25 554.386 2 550.386 -4 c 1
 510.386 1 450.386 2 411.386 3 c 1
 369.386 3 309.386 -1 284.386 -4 c 1
 279.386 1 279.386 27 284.386 33 c 1
 296.386 33 332.386 38 332.386 55 c 0
 332.386 58 326.386 64 322.386 69 c 10
 251.386 156 l 17
 229.111 132.19 192.089 96.5801 176.113 75 c 0
 171.29 68.4844 168.386 63.2471 168.386 60 c 0
 168.386 35 231.386 33 239.386 33 c 1
 244.386 28 244.386 3 240.386 -4 c 1
 210.386 0 174.386 3 135.386 3 c 0
 93.3857 3 23.3857 -2 8.38574 -4 c 1
 4.38574 1 3.38574 26 8.38574 33 c 1
 26.3857 33 68.3857 44 92.3857 67 c 0
 141.386 114 169.386 148 218.386 199 c 25
 167.386 267 141.386 305 87.3857 374 c 0
 67.3857 400 26.3857 406 18.3857 406 c 1
 11.3857 414 13.3857 437 17.3857 443 c 1
 57.3857 438 116.386 437 155.386 436 c 1
EndSplineSet
Substitution2: "'smcp' Lowercase to Small Capitals in Latin lookup 0 subtable" x.sc
EndChar

StartChar: y
Encoding: 121 121 89
Width: 534
Flags: W
HStem: -218 100<17.6921 135.165> 406 37<-2.61855 47.47 206.204 263.479 322.959 393.378 465.689 536.178>
LayerCount: 2
Fore
SplineSet
134.787 436 m 0
 176.787 436 235.787 440 260.787 443 c 1
 265.787 438 265.787 412 260.787 406 c 1
 248.787 406 201.787 396 201.787 379 c 0
 201.787 376 201.787 369 203.787 364 c 0
 239.787 294 306.787 167 306.787 167 c 1
 306.787 167 352.787 268 385.787 342 c 0
 390.787 352 396.787 368 396.787 379 c 0
 396.787 404 333.787 406 325.787 406 c 1
 320.787 411 320.787 436 324.787 443 c 1
 354.787 439 390.787 436 429.787 436 c 0
 471.787 436 518.787 441 533.787 443 c 1
 537.787 438 538.787 413 533.787 406 c 1
 521.787 406 466.787 402 452.787 373 c 2
 452.787 373 351 157 288.115 25 c 0
 257.318 -39.6455 242 -82 200 -134.717 c 0
 148.037 -199.939 103.14 -218 72.7871 -218 c 0
 30.7871 -218 5.78711 -192 5.78711 -165 c 3
 5.78711 -142 15.7871 -127 28.7871 -118 c 1
 107.787 -118 152.787 -108 193.787 -40 c 0
 211.787 -10 215.787 1 228.787 31 c 1
 187.787 114 62.7871 368 62.7871 368 c 1
 49.7871 398 7.78711 406 -0.212891 406 c 1
 -6.21289 414 -4.21289 437 -0.212891 443 c 1
 25.7871 440 95.7871 436 134.787 436 c 0
EndSplineSet
Substitution2: "'smcp' Lowercase to Small Capitals in Latin lookup 0 subtable" y.sc
EndChar

StartChar: z
Encoding: 122 122 90
Width: 460
Flags: W
HStem: 0 46<177 348.92> 382 46<106.452 257>
VStem: 37 35<281.304 332.589>
LayerCount: 2
Fore
SplineSet
150 428 m 2
 288 428 l 2
 342 428 376 431 417 436 c 1
 422 428 420 417 420 412 c 1
 177 46 l 25
 291 46 l 2
 352 46 388 109 396 147 c 0
 397 152 405 154 409 154 c 0
 420 154 433 145 434 144 c 1
 421 105 394 0 394 0 c 1
 39 0 l 1
 39 0 29 8 29 17 c 0
 29 22 31 30 33 34 c 2
 257 381 l 1
 257 381 185 382 153 382 c 0
 102 382 83 323 72 288 c 0
 71 284 59 281 49 281 c 0
 43 281 37 283 37 285 c 1
 40 301 52 381 55 434 c 1
 55 434 114 428 150 428 c 2
EndSplineSet
Substitution2: "'smcp' Lowercase to Small Capitals in Latin lookup 0 subtable" z.sc
EndChar

StartChar: braceleft
Encoding: 123 123 91
Width: 298
Flags: W
HStem: -144 26<254.847 270.58> 734 26<254.847 270.58>
VStem: 80 114<-22.7954 103.208 512.875 638.795> 107 115<91.0343 230.81 385.19 524.656>
LayerCount: 2
Fore
SplineSet
107 424 m 0xd0
 107 454.612 97.6426 477.947 89.9453 504 c 0
 84.5674 522.203 80 541.733 80 566 c 0
 80 670 216 756 265 760 c 1
 268 760 278 742 272 734 c 1
 244 719 194 674 194 609 c 0xe0
 194 569.715 202.109 553.599 209.599 534 c 0
 216.027 517.18 222 497.795 222 459 c 0
 222 372 134 308 98 308 c 1
 134 308 222 244 222 157 c 0xd0
 222 118.205 216.027 98.8203 209.599 82 c 0
 202.109 62.4014 194 46.2852 194 7 c 0
 194 -58 244 -103 272 -118 c 1
 278 -126 268 -144 265 -144 c 1
 216 -140 80 -54 80 50 c 0xe0
 80 80.5811 87.2539 103.64 94.2422 126 c 0
 100.735 146.778 107 166.953 107 192 c 0
 107 245 61 284 19 297 c 1
 17 299 16 305 16 308 c 0
 16 312 17 317 19 319 c 1
 61 332 107 371 107 424 c 0xd0
EndSplineSet
Substitution2: "'smcp' Lowercase to Small Capitals in Latin lookup 0 subtable" braceleft.sc
EndChar

StartChar: bar
Encoding: 124 124 92
Width: 202
Flags: W
VStem: 74.2646 53.0004<-118.239 764.903>
LayerCount: 2
Fore
SplineSet
127.265 -108 m 2
 127.265 -116 81.2646 -123 79.2646 -123 c 0
 72.2646 -123 74.2646 -119 74.2646 -115 c 2
 74.2646 757 l 1
 74.2646 757 73.2646 763 79.2646 765 c 0
 96.2646 770 115.265 770 118.265 770 c 0
 127.265 770 126.265 764 126.265 764 c 1
 127.265 -108 l 2
EndSplineSet
Substitution2: "'smcp' Lowercase to Small Capitals in Latin lookup 0 subtable" bar.sc
EndChar

StartChar: braceright
Encoding: 125 125 93
Width: 299
Flags: W
HStem: -144 26<28.3018 44.0344> 734 26<28.3018 44.0344>
VStem: 76.8818 115<91.0304 230.81 385.19 524.254> 104.882 114<-22.7954 103.277 513.05 638.795>
LayerCount: 2
Fore
SplineSet
33.8818 760 m 1xd0
 82.8818 756 218.882 670 218.882 566 c 0xd0
 218.882 539.047 213.247 517.938 207.126 498 c 0
 199.849 474.294 191.882 452.245 191.882 424 c 0
 191.882 371 237.882 332 279.882 319 c 1
 281.882 317 282.882 312 282.882 308 c 0
 282.882 305 281.882 299 279.882 297 c 1
 237.882 284 191.882 245 191.882 192 c 0xe0
 191.882 166.15 198.555 145.49 205.266 124 c 0
 212.055 102.26 218.882 79.6709 218.882 50 c 0
 218.882 -54 82.8818 -140 33.8818 -144 c 1
 30.8818 -144 20.8818 -126 26.8818 -118 c 1
 54.8818 -103 104.882 -58 104.882 7 c 0xd0
 104.882 44.9414 97.3184 61.2715 90.0537 80 c 0
 83.3398 97.3057 76.8818 116.658 76.8818 157 c 0
 76.8818 244 164.882 308 200.882 308 c 1
 164.882 308 76.8818 372 76.8818 459 c 0xe0
 76.8818 507.184 86.0957 525.426 93.9521 546 c 0
 99.792 561.293 104.882 577.875 104.882 609 c 0
 104.882 674 54.8818 719 26.8818 734 c 1
 20.8818 742 30.8818 760 33.8818 760 c 1xd0
EndSplineSet
Substitution2: "'smcp' Lowercase to Small Capitals in Latin lookup 0 subtable" braceright.sc
EndChar

StartChar: asciitilde
Encoding: 126 126 94
Width: 550
Flags: W
HStem: 239 60<321.108 451.872> 306 60<104.128 233.702>
LayerCount: 2
Fore
SplineSet
261 273 m 0
 226 287 186 306 141 306 c 0
 102 306 67 275 55 259 c 1
 52 260 49 263 48 267 c 1
 48 307 112 366 171 366 c 0
 218 366 260 347 295 332 c 0
 329 318 370 299 415 299 c 0
 454 299 489 330 501 346 c 1
 504 345 507 342 508 338 c 1
 508 298 444 239 385 239 c 0
 338 239 296 259 261 273 c 0
EndSplineSet
EndChar

StartChar: exclamdown
Encoding: 161 161 96
Width: 247
Flags: W
HStem: 293 150<72.0309 176.75>
VStem: 49 150<316 419.72> 58 128<-194.241 61.0029>
LayerCount: 2
Fore
SplineSet
49 369 m 0xc0
 49 409 82 443 123 443 c 27
 165 443 199 409 199 366 c 0
 199 326 165 293 124 293 c 27
 82 293 49 329 49 369 c 0xc0
120 -210 m 0
 89 -210 58 -185 58 -142 c 0
 58 -114 87 123 100 211 c 1
 104 224 108 233 120 237 c 1
 125 237 137 230 143 220 c 1
 154 153 186 -92 186 -143 c 0xa0
 186 -185 156 -210 120 -210 c 0
EndSplineSet
Substitution2: "'smcp' Lowercase to Small Capitals in Latin lookup 0 subtable" exclamdown.sc
EndChar

StartChar: cent
Encoding: 162 162 97
Width: 482
Flags: W
HStem: -9 84<239.332 345.626> 396 52<205.134 332.5>
VStem: 44 126<151.509 290.309> 281 35<436.956 478.129>
LayerCount: 2
Fore
SplineSet
281 481 m 17
 289 481 316 480 316 473 c 1
 233 -38 l 1
 224 -38 201 -35 198 -29 c 9
 281 481 l 17
EndSplineSet
Refer: 67 99 N 1 0 0 1 13 0 2
EndChar

StartChar: sterling
Encoding: 163 163 98
Width: 478
UnlinkRmOvrlpSave: 1
Flags: W
HStem: -8 102<292.853 371.63> 51 86<124.938 257.254> 307 42<58.4514 379.317> 580 56<241.178 333.754>
VStem: 99.2539 105<358.353 482.38> 130.254 114<191.15 305.841>
LayerCount: 2
Fore
SplineSet
316.254 636 m 0xb8
 351.254 636 368.254 626 387.254 614 c 1
 391.254 610 396.254 592 396.254 582 c 0
 396.254 546 374.254 523 347.254 523 c 0
 319.254 523 307.254 535 296.254 549 c 0
 284.254 564 271.254 580 253.254 580 c 0
 213.254 580 204.254 528 204.254 459 c 0xb8
 204.254 385 244.254 339 244.254 283 c 0
 244.254 208 198.254 145 173.254 122 c 1
 191.254 132 215.254 137 238.254 137 c 0x74
 276.254 137 309.254 94 361.254 94 c 0
 399.254 94 414.254 126 422.254 141 c 1
 426.254 143 434.254 139 438.254 134 c 24
 443.254 128 443.254 121 443.254 115 c 1
 432.254 83 386.254 -8 308.254 -8 c 0xb4
 240.254 -8 213.254 51 139.254 51 c 0x74
 113.254 51 79.2539 10 62.2539 -6 c 1
 54.2539 -6 46.2539 7 46.2539 16 c 0
 46.2539 45 82.2539 78 96.2539 94 c 0
 121.254 122 130.254 183 130.254 232 c 0xb4
 130.254 282 99.2539 356 99.2539 384 c 0
 99.2539 520 222.254 636 316.254 636 c 0xb8
67.2539 349 m 1
 83.2539 349 372.254 349 383.254 349 c 1
 397.254 338 379.254 311 373.254 307 c 1
 47.2539 307 l 17
 41.2539 313 58.2539 349 67.2539 349 c 1
EndSplineSet
EndChar

StartChar: currency
Encoding: 164 164 99
Width: 563
Flags: W
HStem: 120 40<241.989 332.532> 456 40<229.345 319.431>
VStem: 97 93<218.504 397.791> 369 93<217.847 397.55>
LayerCount: 2
Fore
SplineSet
288 160 m 0
 338 160 369 219 369 294 c 0
 369 386 326 456 274 456 c 0
 224 456 190 394 190 319 c 0
 190 227 236 160 288 160 c 0
393 455 m 1
 452 510 l 2
 460 518 486 490 493 466 c 1
 433 410 l 1
 451 380 462 344 462 307 c 0
 462 267 450 230 429 199 c 1
 483 141 l 2
 491 133 463 107 439 100 c 1
 387 155 l 1
 357 133 321 120 281 120 c 0
 238 120 198 135 167 160 c 1
 114 110 l 2
 106 102 80 130 73 154 c 1
 127 205 l 1
 108 235 97 270 97 307 c 0
 97 351 111 391 135 423 c 1
 83 479 l 2
 75 487 103 513 127 520 c 1
 179 465 l 1
 208 485 243 496 281 496 c 0
 324 496 362 481 393 455 c 1
EndSplineSet
EndChar

StartChar: yen
Encoding: 165 165 100
Width: 692
UnlinkRmOvrlpSave: 1
Flags: W
HStem: -4 37<187.107 253.384 409.388 475.665> 149 42<173.583 494.448> 229 42<173.583 494.448> 606 37<29.1062 85.3884 257.003 317.665 436.107 509.74 595.337 665.665>
VStem: 261.386 140<41.2661 306.331>
LayerCount: 2
Fore
SplineSet
182.386 191 m 1
 198.386 191 487.386 191 498.386 191 c 1
 512.386 180 494.386 153 488.386 149 c 1
 162.386 149 l 17
 156.386 155 173.386 191 182.386 191 c 1
182.386 271 m 1
 198.386 271 487.386 271 498.386 271 c 1
 512.386 260 494.386 233 488.386 229 c 1
 162.386 229 l 17
 156.386 235 173.386 271 182.386 271 c 1
261.386 145 m 2
 261.386 264 l 2
 261.386 265.445 260.17 274.913 257.974 280 c 0
 237.363 327.726 130.386 518 130.386 518 c 2
 115.386 546 111.386 553 99.3857 573 c 0
 84.3857 598 44.3857 605 31.3857 606 c 1
 26.3857 613 27.3857 637 31.3857 643 c 1
 70.3857 639 132.386 636 174.386 636 c 0
 216.386 636 276.386 639 315.386 643 c 1
 319.386 637 320.386 613 315.386 606 c 1
 302.386 605 254.386 604 254.386 579 c 0
 254.386 575 257.386 570 261.386 563 c 2
 381.386 342 l 1
 386.386 337 464.386 479 507.386 559 c 0
 511.386 567 512.386 575 512.386 582 c 0
 512.386 600 451.386 605 438.386 606 c 1
 433.386 613 434.386 637 438.386 643 c 1
 485.386 639 505.386 636 551.386 636 c 0
 595.386 636 622.386 641 663.386 643 c 1
 667.386 637 668.386 613 663.386 606 c 1
 650.386 605 604.386 604 589.386 581 c 0
 569.635 551.374 434.627 335.562 407.229 278 c 0
 404.109 271.445 402.386 260.942 402.386 259 c 2
 401.386 145 l 2
 401 102 401.386 71 409.386 51 c 0
 414.386 38 460.386 34 473.386 33 c 1
 478.386 26 477.386 2 473.386 -4 c 1
 434.386 0 372.386 3 330.386 3 c 0
 288.386 3 228.386 0 189.386 -4 c 1
 185.386 2 184.386 26 189.386 33 c 1
 202.386 34 248.386 38 253.386 51 c 0
 261.386 71 261 102 261.386 145 c 2
EndSplineSet
EndChar

StartChar: brokenbar
Encoding: 166 166 101
Width: 210
Flags: W
VStem: 79.2646 53.0004<-118.239 256.903 389.761 764.903>
LayerCount: 2
Fore
SplineSet
132.265 400 m 2
 132 392 86.2646 385 84.2646 385 c 0
 77.2646 385 79.2646 389 79.2646 393 c 2
 79.2646 757 l 1
 79.2646 757 78.2646 763 84.2646 765 c 0
 101.265 770 121.265 770 124.265 770 c 0
 133.265 770 132.265 764 132.265 764 c 1
 132.265 400 l 2
79.2646 -115 m 2
 79.2646 249 l 1
 79.2646 249 78.2646 255 84.2646 257 c 0
 101.265 262 121.265 262 124.265 262 c 0
 133.265 262 132.265 256 132.265 256 c 1
 132.265 -108 l 2
 132 -116 86.2646 -123 84.2646 -123 c 0
 77.2646 -123 79.2646 -119 79.2646 -115 c 2
EndSplineSet
EndChar

StartChar: section
Encoding: 167 167 102
Width: 467
UnlinkRmOvrlpSave: 1
Flags: W
HStem: -92 50<139 238.122> 603 50<228.878 328>
VStem: 36 71<347.939 450.268> 125 58<452 568> 284 58<-7 109> 360 71<110.62 213.061>
LayerCount: 2
Fore
SplineSet
321 653 m 0
 209 653 125 566 125 486 c 0
 125 418 199 364 247 320 c 0
 301 270 360 213 360 130 c 0
 360 86 345 66 321 37 c 0
 321 37 300 15 293 -3 c 24
 288 -14 292 -22 291 -34 c 17
 329 -8 431 105 431 184 c 0
 431 276 375 325 311 384 c 0
 264 427 183 503 183 549 c 0
 183 587 228 603 259 603 c 0
 274 603 289 598 298 590 c 0
 307 582 320 570 339 570 c 0
 368 570 378 588 378 610 c 0
 378 616 376 630 371 640 c 1
 357 646 335 653 321 653 c 0
146 -92 m 0
 258 -92 342 -5 342 75 c 0
 342 143 268 197 220 241 c 0
 166 291 107 348 107 431 c 0
 107 475 120 492 146 523 c 0
 146 523 167 546 174 564 c 24
 179 575 175 583 176 595 c 17
 138 569 36 456 36 377 c 0
 36 285 92 236 156 177 c 0
 203 134 284 58 284 12 c 0
 284 -26 239 -42 208 -42 c 0
 193 -42 180 -39 172 -31 c 0
 163 -22 148 -9 129 -9 c 0
 100 -9 89 -30 89 -52 c 0
 89 -58 92 -71 96 -78 c 1
 108 -84 132 -92 146 -92 c 0
EndSplineSet
EndChar

StartChar: copyright
Encoding: 169 169 104
Width: 653
Flags: W
HStem: 38 44<232.089 419.972> 163 25<301.66 386.851> 429 26<297.167 383.362> 538 46<229.58 422.481>
VStem: 53 45<214.08 406.92> 184 72<223.57 383.568> 422 19<234.315 254.873> 554 46<214.08 406.92>
LayerCount: 2
Fore
SplineSet
441 252 m 1
 441 247 430 191 424 189 c 0
 398 180 367 163 329 163 c 0
 244 163 184 217 184 305 c 0
 184 394 255 455 333 455 c 0
 360 455 396 444 420 439 c 1
 421 434 434 382 434 377 c 0
 434 375 424 371 419 371 c 3
 417 371 415 370 413 372 c 1
 409 388 394 429 336 429 c 0
 278 429 256 368 256 310 c 0
 256 246 283 188 341 188 c 0
 366 188 382 195 393 205 c 0
 410 221 421 253 422 256 c 1
 428 256 438 255 441 252 c 1
98 310 m 0
 98 184 200 82 326 82 c 0
 452 82 554 184 554 310 c 0
 554 436 452 538 326 538 c 0
 200 538 98 436 98 310 c 0
53 311 m 0
 53 462 175 584 326 584 c 0
 477 584 600 462 600 311 c 0
 600 160 477 38 326 38 c 0
 175 38 53 160 53 311 c 0
EndSplineSet
EndChar

StartChar: ordfeminine
Encoding: 170 170 105
Width: 387
Flags: W
HStem: 248 48<111.5 203.411 264 334.162> 527 30<144.861 231>
VStem: 43 98<301.952 376.005> 52 79<447.362 504.577> 215 95<302.005 399 427.292 516.116>
LayerCount: 2
Fore
SplineSet
186 296 m 0xe8
 201 296 215 307 215 311 c 2
 215 399 l 1
 201 394 181 388 166 379 c 0
 146 367 141 352 141 337 c 0
 142 308 167 296 186 296 c 0xe8
201 557 m 0
 261 557 310 513 310 452 c 2
 310 327 l 2
 310 309 319 302 328 302 c 0
 338 302 348 310 351 311 c 1
 354 310 358 301 358 297 c 3
 358 292 356 288 354 285 c 1
 344 276 307 249 276 249 c 0
 252 249 227 264 220 280 c 1
 213 275 165 248 139 248 c 0
 84 248 43 290 43 330 c 0xe8
 43 356 63 379 81 386 c 0
 108 396 178 422 215 435 c 1
 215 440 215 440 215 445 c 2
 215 463 l 2
 215 497 198 527 173 527 c 0
 145 527 138 503 131 473 c 0
 127 458 115 444 90 444 c 0
 70 444 52 457 52 476 c 0xd8
 52 485 56 496 62 505 c 1
 71 514 137 557 201 557 c 0
EndSplineSet
EndChar

StartChar: guillemotleft
Encoding: 171 171 106
Width: 502
Flags: W
LayerCount: 2
Fore
SplineSet
213 248 m 0
 213 253 216 259 220 263 c 1
 351 342 425 419 430 423 c 1
 436 422 453 414 457 404 c 1
 453 398 360 284 323 248 c 1
 360 212 453 98 457 92 c 1
 453 82 436 74 430 73 c 1
 425 77 351 154 220 233 c 1
 216 237 213 243 213 248 c 0
26 248 m 0
 26 253 29 259 33 263 c 1
 164 342 238 419 243 423 c 1
 249 422 266 414 270 404 c 1
 266 398 173 284 136 248 c 1
 173 212 266 98 270 92 c 1
 266 82 249 74 243 73 c 1
 238 77 164 154 33 233 c 1
 29 237 26 243 26 248 c 0
EndSplineSet
EndChar

StartChar: logicalnot
Encoding: 172 172 107
Width: 589
Flags: W
HStem: 362 58<50.2334 448>
VStem: 448 72<164.125 362>
LayerCount: 2
Fore
SplineSet
520 420 m 17
 520 169 l 1
 519 168 483 160 461 160 c 0
 451 160 448 167 448 167 c 1
 448 167 448 326 448 362 c 1
 52 362 l 1
 52 362 46 362 46 372 c 1
 46 372 51 420 61 420 c 2
 520 420 l 17
EndSplineSet
EndChar

StartChar: registered
Encoding: 174 174 108
Width: 653
Flags: W
HStem: 89 44<232.089 419.972> 234 16<201.594 228.894 294.106 321.406 455.28 475> 355 19<291 305.875> 482 19<201.711 228.894 293.099 336.556> 589 46<229.58 422.481>
VStem: 53 45<265.08 457.92> 232 59<258.378 355 374 477.622> 355 62<385.07 475.989> 554 46<265.08 457.92>
LayerCount: 2
Fore
SplineSet
325 501 m 0
 375 501 417 475 417 427 c 0
 417 394 375 367 356 362 c 1
 385 323 418 288 418 288 c 0
 447 255 472 251 475 251 c 1
 477 248 475 235 475 234 c 1
 463 233 446 232 430 232 c 0
 399 232 382 245 364 268 c 0
 304 349 l 0
 304 349 300 355 297 355 c 0
 291 355 l 9
 291 295 l 2
 291 278 291 266 294 258 c 0
 296 253 315 250 320 250 c 1
 322 247 322 236 320 234 c 1
 304 236 279 237 262 237 c 0
 245 237 219 236 203 234 c 1
 201 236 201 247 203 250 c 1
 208 250 227 253 229 258 c 0
 232 266 232 278 232 295 c 2
 232 441 l 2
 232 458 232 470 229 478 c 0
 227 483 208 484 203 484 c 1
 201 487 201 499 203 501 c 1
 221 500 246 500 263 500 c 0
 280 500 301 501 325 501 c 0
355 424 m 0
 355 456 340 482 313 482 c 0
 304 482 295 482 293 478 c 0
 291 473 291 465 291 453 c 2
 291 374 l 17
 307 374 l 0
 333 374 355 393 355 424 c 0
98 361 m 0
 98 235 200 133 326 133 c 0
 452 133 554 235 554 361 c 0
 554 487 452 589 326 589 c 0
 200 589 98 487 98 361 c 0
53 362 m 0
 53 513 175 635 326 635 c 0
 477 635 600 513 600 362 c 0
 600 211 477 89 326 89 c 0
 175 89 53 211 53 362 c 0
EndSplineSet
EndChar

StartChar: macron
Encoding: 175 175 109
Width: 469
Flags: W
HStem: 547 50<563.586 787.904>
VStem: 562 232<547.013 597>
LayerCount: 2
Fore
SplineSet
562 556 m 0
 562 558 563 597 574 597 c 2
 789 597 l 2
 791 597 794 596 794 590 c 0
 794 585 793 572 788 554 c 0
 786 548 781 547 781 547 c 1
 568 547 l 1
 568 547 562 546 562 556 c 0
EndSplineSet
EndChar

StartChar: degree
Encoding: 176 176 110
Width: 290
Flags: W
HStem: 425 46<97.2032 193.07> 602 45<96.6978 193.587>
VStem: 34 47<488.031 585.491> 210 46<488.031 585.491>
LayerCount: 2
Fore
SplineSet
81 537 m 0
 81 501 109 471 145 471 c 0
 181 471 210 501 210 537 c 0
 210 573 181 602 145 602 c 0
 109 602 81 573 81 537 c 0
34 537 m 0
 34 598 84 647 145 647 c 0
 206 647 256 598 256 537 c 0
 256 476 206 425 145 425 c 0
 84 425 34 476 34 537 c 0
EndSplineSet
EndChar

StartChar: plusminus
Encoding: 177 177 111
Width: 582
Flags: W
HStem: 9 58<52.9531 527.936> 306 58<52.9531 260 318 527.936>
VStem: 260 58<100.019 306 364 571.557>
LayerCount: 2
Fore
SplineSet
61 67 m 1
 522 67 l 2
 528 67 531 59 531 53 c 0
 531 32 524 19 516 9 c 1
 56 9 l 2
 51 9 50 15 50 25 c 0
 50 29 53 55 61 67 c 1
61 364 m 1
 260 364 l 1
 260 563 l 1
 271 572 298 574 302 574 c 0
 312 574 318 572 318 565 c 2
 318 364 l 1
 522 364 l 2
 528 364 531 356 531 350 c 0
 531 329 524 316 516 306 c 1
 318 306 l 1
 318 108 l 1
 306 100 281 97 271 97 c 0
 265 97 260 101 260 105 c 2
 260 306 l 1
 56 306 l 2
 51 306 50 312 50 322 c 0
 50 326 53 352 61 364 c 1
EndSplineSet
EndChar

StartChar: uni00B2
Encoding: 178 178 112
Width: 352
Flags: W
HStem: 254 71<123 269.546> 589 53<114.118 189.713>
VStem: 204 95<469.713 573.612>
LayerCount: 2
Fore
SplineSet
310 382 m 1
 303 353 276 265 272 254 c 9
 45 254 l 1
 42 257 39 265 38 268 c 1
 86 321 109 347 157 409 c 0
 192 454 204 487 204 525 c 0
 204 565 174 589 140 589 c 0
 96 589 74 545 69 540 c 1
 66 540 53 542 53 554 c 1
 64 577 113 642 183 642 c 0
 253 642 299 607 299 538 c 0
 299 484 256 438 218 403 c 0
 188 376 160 352 123 325 c 1
 235 325 l 2
 265 325 275 358 285 380 c 0
 286 383 292 385 296 385 c 0
 300 385 307 384 310 382 c 1
EndSplineSet
EndChar

StartChar: uni00B3
Encoding: 179 179 113
Width: 338
Flags: W
HStem: 245 27<118.55 189.878> 596 46<104.197 182.919>
VStem: 195 80<502.008 584.315> 214 90<311.683 416.952>
LayerCount: 2
Fore
SplineSet
179 642 m 0xe0
 215 642 275 619 275 558 c 0xe0
 275 497 224 481 202 477 c 1
 222 476 304 452 304 377 c 0
 304 288 206 245 128 245 c 0
 88 245 57 256 45 266 c 1
 41 272 36 284 36 293 c 0
 36 308 47 328 68 328 c 0
 85 328 97 314 108 297 c 0
 118 281 137 272 153 272 c 0
 191 272 214 299 214 354 c 0xd0
 214 400 183 443 142 443 c 0
 138 443 120 443 110 440 c 1
 108 443 104 450 104 455 c 0
 104 457 105 465 106 467 c 1
 137 471 195 488 195 538 c 0
 195 571 172 596 135 596 c 0
 102 596 75 568 71 563 c 1
 67 564 55 570 57 580 c 1
 80 610 131 642 179 642 c 0xe0
EndSplineSet
EndChar

StartChar: uni00B5
Encoding: 181 181 115
Width: 511
Flags: W
HStem: -8 122<282.892 374.523> -4 108<489.449 568.192> 426 20G<178 189 437 448>
VStem: 147 103<-204.804 3.83203> 156 107<269.229 424> 413 112<329.63 423.537> 422 53<161.665 276.288>
LayerCount: 2
Fore
SplineSet
230 220 m 1xa8
 236 179 257 114 308 114 c 0
 367 114 422 165 422 217 c 1xaa
 419 241 415 306 415 329 c 0
 415 342 414 384 413 422 c 1
 418 430 431 446 443 446 c 0
 453 446 525 419 525 406 c 0xa4
 525 374 510 326 499 282 c 0
 491 251 484 229 475 195 c 17
 474 113 509 104 527 104 c 0
 565 104 586 140 596 157 c 1
 602 157 612 136 614 129 c 0
 615 125 613 112 612 109 c 0
 598 67 571 -4 531 -4 c 0x62
 483 -3 454 58 445 122 c 1
 425 52 385 -8 329 -8 c 0
 279 -8 229 76 221 137 c 1
 223 112 228 -85 250 -203 c 1
 245 -211 226 -227 208 -227 c 0
 189 -227 147 -188 147 -175 c 0xb2
 147 -157 160 112 172 216 c 1
 172 240 156 357 156 380 c 0
 156 393 157 416 159 424 c 1
 163 435 172 446 184 446 c 0
 194 446 263 419 263 406 c 0
 263 368 255 336 249 308 c 0
 241 269 236 248 230 220 c 1xa8
EndSplineSet
EndChar

StartChar: paragraph
Encoding: 182 182 116
Width: 529
Flags: W
HStem: -4 37<170.275 235.479 416.616 484.584> 3 43.9828<303.055 347.925> 288 45<298 354> 299 45<405 434.484> 603 45<298.286 354.805> 616 37<408.838 457.1>
VStem: 33 265<377.565 560.613> 248 50<52.6578 287> 355 50<51.7104 292 344 595.672>
LayerCount: 2
Fore
SplineSet
355 338 m 1x2980
 355 374 355 585 355 598 c 1
 351 602 336 603 326 603 c 0
 316 603 304 603 298 597 c 1
 298 597 298 435 298 333 c 1
 304 333 351 335 355 338 c 1x2980
354 292 m 1
 340 291 314 289 298 288 c 1
 298 231 298 175 298 118 c 0
 298 82 298 66 303 52 c 0
 304.027 48.9177 315.084 47.1549 326 46.9828 c 0x6180
 336.333 46.8199 346.541 48.0823 348 51 c 0
 355 66 354 91 354 112 c 2
 354 112 354 223 354 292 c 1
404 299 m 1x1680
 404 228 404 179 404 117 c 0
 404 81 404 74 409 60 c 0
 416 41 474 34 482 34 c 1
 488 24 486 2 484 -4 c 1x9680
 448 -2 389 3 328 3 c 24x4280
 267 3 213 -2 172 -4 c 1
 167 5 170 33 172 33 c 0
 184 33 234 41 242 59 c 0
 249 74 248 95 248 116 c 2
 248 116 248 220 248 287 c 1x8180
 120 287 33 349 33 469 c 0
 33 608 145 652 227 652 c 0
 286 652 276 648 335 648 c 0x8a80
 402 648 455 653 455 653 c 1
 460 648 459 619 454 616 c 1
 439 616 413 608 408 596 c 0
 406 589 405 583 405 532 c 0
 405 471 405 363 405 344 c 1
 410 343 454 357 454 357 c 1
 459 357 458 351 458 347 c 0
 457 337 442 312 435 309 c 0
 424 304 412 300 404 299 c 1x1680
EndSplineSet
EndChar

StartChar: periodcentered
Encoding: 183 183 117
Width: 241
Flags: W
HStem: 189 149<70.5543 172.29>
VStem: 47 147<212 316.5>
LayerCount: 2
Fore
SplineSet
47 265 m 0
 47 305 80 338 121 338 c 27
 161 338 194 305 194 265 c 0
 194 225 163 189 123 189 c 27
 81 189 47 225 47 265 c 0
EndSplineSet
EndChar

StartChar: cedilla
Encoding: 184 184 118
Width: 454
Flags: W
HStem: -156 28<162.459 244.958> -65 63<203.959 246>
VStem: 251 54<-124.534 -65.5938>
LayerCount: 2
Fore
SplineSet
233 -25 m 1
 241 -24 246 -23 255 -23 c 27
 282 -23 305 -46 305 -72 c 0
 305 -119 269 -156 208 -156 c 0
 186 -156 167 -147 160 -140 c 1
 158 -137 156 -124 156 -120 c 0
 156 -114 157 -113 159 -113 c 1
 163 -115 186 -128 207 -128 c 0
 241 -128 251 -112 251 -98 c 0
 251 -84 246 -65 225 -65 c 0
 219 -65 209 -68 199 -72 c 1
 196 -72 186 -63 186 -57 c 1
 195 -42 208 -17 214 -2 c 1
 246 -2 l 1
 246 -2 238 -16 233 -25 c 1
EndSplineSet
EndChar

StartChar: uni00B9
Encoding: 185 185 119
Width: 291
Flags: W
HStem: 252 26<54.1213 102.849 211.394 258.878> 621 20G<195 199>
VStem: 114 87<292.304 557.384>
LayerCount: 2
Fore
SplineSet
114 511 m 2
 114 538 107 558 95 558 c 0
 86 558 61 547 50 542 c 1
 45 543 39 554 39 562 c 0
 39 563 39 568 40 569 c 1
 111 599 194 641 196 641 c 2
 197 641 l 2
 201 641 212 624 213 621 c 1
 210 610 201 575 201 536 c 2
 201 346 l 2
 201 328 204 298 211 291 c 0
 219 282 253 278 258 278 c 1
 260 278 259 253 258 252 c 1
 234 253 182 256 158 256 c 0
 134 256 80 253 56 252 c 1
 53 255 53 278 56 278 c 1
 64 278 97 284 104 292 c 0
 109 298 114 336 114 347 c 2
 114 511 l 2
EndSplineSet
EndChar

StartChar: ordmasculine
Encoding: 186 186 120
Width: 406
Flags: W
HStem: 251 31<174.805 246.181> 523 30<159.125 229.443>
VStem: 35 102<324.228 475.727> 269 102<328.742 480.17>
LayerCount: 2
Fore
SplineSet
194 523 m 3
 141 523 137 461 137 413 c 27
 137 355 158 282 211 282 c 3
 264 282 269 343 269 390 c 27
 269 448 247 523 194 523 c 3
202 553 m 0
 301 553 371 489 371 405 c 0
 371 321 298 251 203 251 c 0
 104 251 35 316 35 400 c 0
 35 484 108 553 202 553 c 0
EndSplineSet
EndChar

StartChar: guillemotright
Encoding: 187 187 121
Width: 502
Flags: W
LayerCount: 2
Fore
SplineSet
289 248 m 0
 289 243 286 237 282 233 c 1
 151 154 77 77 72 73 c 1
 66 74 49 82 45 92 c 1
 49 98 142 212 179 248 c 1
 142 284 49 398 45 404 c 1
 49 414 66 422 72 423 c 1
 77 419 151 342 282 263 c 1
 286 259 289 253 289 248 c 0
476 248 m 0
 476 243 473 237 469 233 c 1
 338 154 264 77 259 73 c 1
 253 74 236 82 232 92 c 1
 236 98 329 212 366 248 c 1
 329 284 236 398 232 404 c 1
 236 414 253 422 259 423 c 1
 264 419 338 342 469 263 c 1
 473 259 476 253 476 248 c 0
EndSplineSet
EndChar

StartChar: onequarter
Encoding: 188 188 122
Width: 737
Flags: W
HStem: -3 21G<606.11 630.61> 92 46<474.934 577.11 664.11 695.374> 252 26<47.2317 95.9599 204.504 251.988> 621 20G<189.11 206.11>
VStem: 107.11 87<292.304 557.384> 577.11 87<-1.5817 92 138 262>
LayerCount: 2
Fore
SplineSet
644.11 386 m 0
 648.11 386 664.11 377 664.11 367 c 10
 664.11 138 l 25
 689.11 138 l 17
 702.11 126 705.11 110 699.11 92 c 1
 664.11 92 l 25
 664.11 2 l 17
 664.11 2 644.11 -3 617.11 -3 c 0
 595.11 -3 577.11 0 577.11 5 c 2
 577.11 92 l 25
 424.11 92 l 17
 419.11 94 412.11 101 412.11 109 c 1
 487.11 199 566.11 298 631.11 378 c 0
 635.11 383 639.11 386 644.11 386 c 0
577.11 138 m 1
 577.11 262 l 17
 554.11 235 487.11 152 475.11 138 c 1
 470.11 138 545.11 138 577.11 138 c 1
194.11 536 m 2
 194.11 346 l 2
 194.11 328 197.11 298 204.11 291 c 0
 212.11 282 246.11 278 251.11 278 c 1
 253.11 278 252.11 253 251.11 252 c 1
 227.11 253 175.11 256 151.11 256 c 0
 127.11 256 73.1104 253 49.1104 252 c 1
 46.1104 255 46.1104 278 49.1104 278 c 1
 57.1104 278 90.1104 284 97.1104 292 c 0
 102.11 298 107.11 336 107.11 347 c 2
 107.11 511 l 2
 107.11 538 100.11 558 88.1104 558 c 0
 79.1104 558 54.1104 547 43.1104 542 c 1
 38.1104 543 32.1104 568 33.1104 569 c 1
 104.11 599 188.11 641 190.11 641 c 9
 190.11 641 205.11 624 206.11 621 c 1
 203.11 610 194.11 575 194.11 536 c 2
219.11 -34 m 0
 204.11 -37 202.11 -25 202.11 -25 c 1
 547.11 663 l 1
 553.11 672 566.11 680 583.11 684 c 0
 592.11 686 600.11 682 601.11 677 c 1
 256.11 -11 l 2
 253.11 -18 236.11 -30 219.11 -34 c 0
EndSplineSet
EndChar

StartChar: onehalf
Encoding: 189 189 123
Width: 748
Flags: W
HStem: -2 71<527.351 673.897> 252 26<48.4719 97.2001 205.745 253.229> 333 53<518.469 594.064> 621 20G<190.351 194.351>
VStem: 108.351 87<292.304 557.384> 608.351 95<213.713 317.612>
LayerCount: 2
Fore
SplineSet
587.351 386 m 0
 657.351 386 703.351 351 703.351 282 c 0
 703.351 228 660.351 182 622.351 147 c 0
 592.351 120 564.351 96 527.351 69 c 1
 639.351 69 l 2
 669.351 69 679.351 102 689.351 124 c 0
 690.351 127 696.351 129 700.351 129 c 0
 704.351 129 711.351 128 714.351 126 c 1
 707.351 97 680.351 9 676.351 -2 c 9
 449.351 -2 l 1
 446.351 1 443.351 9 442.351 12 c 1
 490.351 65 513.351 91 561.351 153 c 0
 596.351 198 608.351 231 608.351 269 c 0
 608.351 309 578.351 333 544.351 333 c 0
 500.351 333 478.351 289 473.351 284 c 1
 470.351 284 457.351 286 457.351 298 c 1
 468.351 321 517.351 386 587.351 386 c 0
195.351 536 m 2
 195.351 346 l 2
 195.351 328 198.351 298 205.351 291 c 0
 213.351 282 247.351 278 252.351 278 c 1
 254.351 278 253.351 253 252.351 252 c 1
 228.351 253 176.351 256 152.351 256 c 0
 128.351 256 74.3506 253 50.3506 252 c 1
 47.3506 255 47.3506 278 50.3506 278 c 1
 58.3506 278 91.3506 284 98.3506 292 c 0
 103.351 298 108.351 336 108.351 347 c 2
 108.351 511 l 2
 108.351 538 101.351 558 89.3506 558 c 0
 80.3506 558 55.3506 547 44.3506 542 c 1
 39.3506 543 32.3506 562 34.3506 569 c 1
 105.351 599 189.351 641 191.351 641 c 1
 197.351 635 206.351 624 207.351 621 c 1
 204.351 610 195.351 575 195.351 536 c 2
580.351 677 m 1
 235.351 -11 l 2
 232.351 -18 215.351 -30 198.351 -34 c 0
 183.351 -37 181.351 -25 181.351 -25 c 1
 526.351 663 l 1
 532.351 672 545.351 680 562.351 684 c 0
 571.351 686 579.351 682 580.351 677 c 1
EndSplineSet
EndChar

StartChar: threequarters
Encoding: 190 190 124
Width: 740
Flags: W
HStem: -3 21G<609 633.5> 92 46<477.824 580 667 698.264> 245 27<116.55 187.878> 596 46<102.197 180.919>
VStem: 193 80<502.008 584.315> 212 90<311.683 416.952> 580 87<-1.5817 92 138 262>
LayerCount: 2
Fore
SplineSet
647 386 m 0xf2
 651 386 667 377 667 367 c 10
 667 138 l 25
 692 138 l 17
 705 126 708 110 702 92 c 1
 667 92 l 25
 667 2 l 17
 667 2 647 -3 620 -3 c 0
 598 -3 580 0 580 5 c 2
 580 92 l 25
 427 92 l 17
 422 94 415 101 415 109 c 1
 490 199 569 298 634 378 c 0
 638 383 642 386 647 386 c 0xf2
580 138 m 1
 580 262 l 17
 557 235 490 152 478 138 c 1
 473 138 548 138 580 138 c 1
177 642 m 0
 213 642 273 619 273 558 c 0xfa
 273 497 222 481 200 477 c 1
 220 476 302 452 302 377 c 0
 302 288 204 245 126 245 c 0
 86 245 55 256 43 266 c 1
 39 272 34 284 34 293 c 0
 34 308 45 328 66 328 c 0
 83 328 95 314 106 297 c 0
 116 281 135 272 151 272 c 0
 189 272 212 299 212 354 c 0xf6
 212 400 181 443 140 443 c 0
 136 443 118 443 108 440 c 1
 106 443 102 450 102 455 c 0
 102 457 103 465 104 467 c 1
 135 471 193 488 193 538 c 0xfa
 193 571 170 596 133 596 c 0
 100 596 73 568 69 563 c 1
 65 564 53 570 55 580 c 1
 78 610 129 642 177 642 c 0
614 677 m 1
 269 -11 l 2
 266 -18 249 -30 232 -34 c 0
 217 -37 215 -25 215 -25 c 1
 560 663 l 1
 566 672 579 680 596 684 c 0
 605 686 613 682 614 677 c 1
EndSplineSet
EndChar

StartChar: questiondown
Encoding: 191 191 125
Width: 388
Flags: W
HStem: -214 67<146.786 262.5> 294 150<204.75 305.711>
VStem: 32 85<-116.841 6> 183 147<315.125 419.536> 245 38<177.477 236.338>
LayerCount: 2
Fore
SplineSet
330 367 m 0xf0
 330 325 296 294 258 294 c 0
 216 294 183 326 183 367 c 0
 183 408 214 444 254 444 c 0
 291 444 330 412 330 367 c 0xf0
283 225 m 1xe8
 290 209 303 165 303 125 c 0
 303 67 259 35 223 11 c 0
 173 -22 117 -65 117 -99 c 0
 117 -120 135 -147 171 -147 c 0
 207 -147 239 -85 281 -85 c 0
 319 -85 343 -118 343 -151 c 0
 343 -168 335 -191 328 -197 c 1
 314 -205 287 -214 238 -214 c 0
 193 -214 32 -177 32 -38 c 0
 32 50 105 84 158 117 c 0
 185 134 223 152 240 177 c 0
 247 187 245 209 245 219 c 1
 247 225 255 237 260 237 c 0
 268 237 279 229 283 225 c 1xe8
EndSplineSet
Substitution2: "'smcp' Lowercase to Small Capitals in Latin lookup 0 subtable" questiondown.sc
EndChar

StartChar: AE
Encoding: 198 198 132
Width: 901
Flags: W
HStem: -4 37<-21.1904 40.2268 141.324 201.178 334.723 400.884> -2.26758 44.2676<556.158 767.018> 4 28<-19.1143 88.8857> 225 48<257.885 408.886> 310 47<548.885 696.312> 620 37<335.532 401.886 551.888 742.326>
VStem: 408.886 139.999<50.3979 225 273.695 306.897 358.474 520 604 616.372> 732.885 31<386.617 434.825>
LayerCount: 2
Fore
SplineSet
408.886 275 m 1x1f
 408.886 520 l 1
 257.886 280 l 1
 257.886 280 256.886 276 258.886 276 c 0
 278.886 274 311.886 273 334.886 273 c 0
 363.886 273 381.886 273 408.886 275 c 1x1f
479.886 657 m 0
 521.885 657 745.885 663 804.885 664 c 1
 811.885 614 824.885 561 833.885 516 c 1
 830.885 513 817.885 511 810.885 511 c 0
 803.885 511 796.885 514 794.885 519 c 0
 773.885 574 747.885 620 686.885 620 c 2
 603.885 620 l 2
 580.885 620 558.885 619 553.885 608 c 0
 548.885 596 548.885 576 548.885 547 c 2
 548.885 368 l 2
 548.885 362 569.885 357 591.885 357 c 2
 644.885 357 l 2
 703.885 357 716.885 369 732.885 427 c 0
 733.885 432 737.885 435 744.885 435 c 0
 751.885 435 760.885 433 763.885 430 c 1
 763.885 238 l 1
 761.885 236 752.885 234 745.885 234 c 0
 738.885 234 732.885 237 731.885 242 c 0
 719.885 290 705.885 299 696.885 303 c 0
 684.885 308 658.885 310 620.885 310 c 0
 592.885 310 548.885 308 548.885 296 c 2
 548.885 141 l 2
 548.885 135 548.885 82 556.885 62 c 0
 562.885 48 595.885 42 621.885 42 c 2
 687.885 42 l 2
 725.885 42 757.885 52 780.885 75 c 0
 801.885 96 817.885 125 834.885 170 c 0
 835.885 174 841.885 176 848.885 176 c 0
 858.885 176 875.885 173 878.885 170 c 1
 859.885 116 831.885 42 824.885 -2 c 1
 797.811 -2 619.07 -2 485 -2.26758 c 0x5f
 411.084 -2.41602 350.745 -2.64453 336.886 -3 c 1
 332.886 3 331.886 27 336.886 34 c 1
 349.886 35 395.886 38 400.886 51 c 0
 408.886 71 408.886 102 408.886 145 c 2
 408.886 225 l 1
 377.886 226 350.886 225 329.886 225 c 0
 288.886 225 266.886 225 231.886 224 c 0
 228.886 224 224.886 221 223.886 219 c 2
 223.886 219 184.886 160 168.886 132 c 0
 153.886 107 135.886 73 134.886 66 c 0
 129.886 40 190.886 33 198.886 33 c 1
 203.886 26 203.886 0 199.886 -4 c 1x9f
 165.886 0 132.886 4 88.8857 4 c 0x3f
 42.8857 4 15.8857 0 -20.1143 -4 c 1x9f
 -23.1143 0 -25.1143 21 -19.1143 32 c 1x3f
 -7.11426 32 45.8857 48 58.8857 64 c 0
 81.8857 92 90.8857 106 107.886 134 c 2
 401.886 604 l 0
 401.886 605 401.886 606 400.886 607 c 0
 393.886 621 349.886 622 336.886 623 c 1
 331.886 630 332.886 654 336.886 660 c 1
 381.886 657 437.886 657 479.886 657 c 0
EndSplineSet
EndChar

StartChar: Eth
Encoding: 208 208 142
Width: 765
Flags: W
HStem: -3 42<41.5723 109.277 264.047 437.143> 308 40<31.5869 385.078> 620 40<40.8739 108.984 257.318 411.535>
VStem: 114.636 140<49.4974 616.164> 563.636 159<207.017 459.229>
LayerCount: 2
Fore
SplineSet
383.25 308 m 1
 354.25 308 47.25 308 33.25 308 c 1
 29.25 308 28.25 339 34.25 348 c 1
 63.25 348 369.25 348 383.25 348 c 1
 387.25 348 387.25 317 383.25 308 c 1
EndSplineSet
Refer: 36 68 N 1 0 0 1 4.25 0 2
EndChar

StartChar: multiply
Encoding: 215 215 149
Width: 465
Flags: W
LayerCount: 2
Fore
SplineSet
196 248 m 1
 54 390 l 1
 54 404 73 431 82 431 c 0
 85 431 87 431 89 429 c 2
 89 429 234 289 236 287 c 9
 379 429 l 2
 380 430 382 431 385 431 c 0
 394 431 411 397 411 387 c 1
 411 387 276 253 273 250 c 1
 274 249 411 107 411 107 c 1
 411 92 396 64 385 64 c 0
 383 64 380 64 378 66 c 2
 378 66 234 210 233 211 c 1
 86 64 l 2
 84 62 82 62 80 62 c 0
 71 62 54 97 54 107 c 1
 54 107 192 244 196 248 c 1
EndSplineSet
Substitution2: "'smcp' Lowercase to Small Capitals in Latin lookup 0 subtable" multiply.sc
EndChar

StartChar: Oslash
Encoding: 216 216 150
Width: 759
Flags: W
HStem: -10 43<322.356 470.535> 624 43<288.38 436.304>
VStem: 40 160<211.696 443.97> 560 160<211.714 444.117>
LayerCount: 2
Fore
SplineSet
541 676 m 17
 549 673 581 662 579 655 c 9
 202 -18 l 17
 194 -15 162 -3 164 4 c 9
 541 676 l 17
EndSplineSet
Refer: 47 79 N 1 0 0 1 0 0 2
EndChar

StartChar: Thorn
Encoding: 222 222 156
Width: 583
Flags: W
HStem: -4 37<36.1062 102.384 258.388 324.665> 3 198<158.386 311.534> 146 51<296.019 379.997> 479 38<253.736 358.523> 625 37<36.1062 102.384 258.388 324.665>
VStem: 110.386 140<41.2661 476.969 517 616.734> 419.386 142<250.288 416.362>
LayerCount: 2
Fore
SplineSet
181.386 655 m 0x9e
 223.386 655 283.386 658 322.386 662 c 1
 326.386 656 327.386 632 322.386 625 c 1
 309.386 624 263.386 620 258.386 607 c 0
 251.893 591.579 250.67 568.913 250.438 539 c 0
 250.386 532.057 250.386 524.724 250.386 517 c 1
 276.386 518 305.386 519 335.386 519 c 0
 460.386 519 561.386 455 561.386 341 c 0
 561.386 221 465.386 146 364.386 146 c 0xbe
 328.386 146 302.386 162 295.386 169 c 0
 291.392 172.994 287.841 185.85 287.978 194 c 0
 288.047 198.094 289.046 201 291.386 201 c 1x5e
 301.386 198 317.386 197 332.386 197 c 0
 381.386 197 419.386 250 419.386 327 c 0
 419.386 406 372.386 479 305.386 479 c 0
 282.386 479 260.386 478 255.386 467 c 0
 250.386 455 250.386 406 250.386 406 c 1
 250.386 145 l 2
 250.386 102 250.386 71 258.386 51 c 0
 263.386 38 309.386 34 322.386 33 c 1
 327.386 26 326.386 2 322.386 -4 c 1xbe
 283.386 0 221.386 3 179.386 3 c 0x5e
 137.386 3 77.3857 0 38.3857 -4 c 1
 34.3857 2 33.3857 26 38.3857 33 c 1
 51.3857 34 97.3857 38 102.386 51 c 0
 110.386 71 110.386 102 110.386 145 c 2
 110.386 513 l 2
 110.386 556 110.386 587 102.386 607 c 0
 97.3857 620 51.3857 624 38.3857 625 c 1
 33.3857 632 34.3857 656 38.3857 662 c 1
 77.3857 658 139.386 655 181.386 655 c 0x9e
EndSplineSet
EndChar

StartChar: germandbls
Encoding: 223 223 157
Width: 590
Flags: W
HStem: -10 44<21.8433 87.5003 230.858 275.928 375.386 466.079> 381 47<39.3443 94.3857> 651 47<265.917 349.916>
VStem: 94.3857 130<41.2661 381 428 538.361> 384.386 9<402 525> 470.386 92<74.0376 183.5>
LayerCount: 2
Fore
SplineSet
328.386 698 m 0
 414.386 698 503.386 643 503.386 563 c 0
 503.386 515 475.386 490 452.386 470 c 0
 429.386 450 393.386 425 393.386 402 c 0
 393.386 365 460.386 315 490.386 286 c 0
 526.386 251 562.386 214 562.386 153 c 0
 562.386 52 468.386 -10 392.386 -10 c 0
 358.386 -10 317.386 0 301.386 17 c 1
 296.386 27 292.386 40 292.386 54 c 0
 292.386 86 311.386 122 341.386 122 c 0
 376.386 122 389.386 88 398.386 70 c 0
 407.386 52 419.386 34 438.386 34 c 0
 461.386 34 470.386 53 470.386 82 c 0
 470.386 131 426.386 170 386.386 210 c 0
 345.386 251 290.386 290 290.386 348 c 0
 290.386 377 318.386 401 341.386 427 c 0
 367.386 456 384.386 479 384.386 525 c 0
 384.386 582 361.386 651 303.386 651 c 0
 263.386 651 224.386 586 224.386 486 c 0
 224.386 145 l 2
 224.386 102 224.386 71 232.386 51 c 0
 237.386 38 262.386 34 275.386 33 c 1
 280.386 26 279.386 2 275.386 -4 c 1
 236.386 0 201.386 3 159.386 3 c 0
 117.386 3 61.3857 0 22.3857 -4 c 1
 18.3857 2 17.3857 26 22.3857 33 c 1
 35.3857 34 81.3857 38 86.3857 51 c 0
 94.3857 71 94.3857 102 94.3857 145 c 2
 94.3857 145 94.3857 292 94.3857 381 c 1
 67.3857 381 61.3857 381 35.3857 381 c 1
 30.3857 383 30.3857 390 30.3857 394 c 1
 40.3857 408 50.3857 418 62.3857 428 c 1
 75.3857 428 84.3857 428 94.3857 428 c 9
 94.3857 443 l 2
 94.3857 580 223.386 698 328.386 698 c 0
EndSplineSet
Substitution2: "'smcp' Lowercase to Small Capitals in Latin lookup 0 subtable" germandbls.sc
EndChar

StartChar: ae
Encoding: 230 230 164
Width: 696
Flags: W
HStem: -9 84<465.392 569.626> -8 70<124 236.717> 242 40<399 526.823> 406 41<170.332 259.147 437.135 519.103>
VStem: 31 135<78.1133 172.955> 43 108<292.124 371.344> 541 124<289.978 370.347>
LayerCount: 2
Fore
SplineSet
202 191 m 0x7a
 174 173 165 146 166 124 c 0
 167 81 201 62 227 62 c 0
 252 62 296 85 296 102 c 1
 289 124 281 161 281 194 c 0
 281 206 281 208 282 223 c 1
 263 216 222 204 202 191 c 0x7a
480 406 m 3
 421 406 399 316 399 282 c 1
 408 281 504 287 528 290 c 0
 540 291 541 300 541 306 c 11
 541 352 525 406 480 406 c 3
490 447 m 0
 621 447 665 354 665 296 c 0
 665 274 653 255 638 254 c 0
 570 248 472 244 398 242 c 1
 398 102 493 75 538 75 c 0
 596 75 629 102 650 125 c 1
 657 123 662 113 662 107 c 3
 662 100 661 91 659 88 c 0
 641 60 573 -9 478 -9 c 0xb6
 411 -9 353 16 318 64 c 1
 267 23 196 -8 162 -8 c 0
 86 -8 31 55 31 114 c 0x7a
 31 153 57 186 83 194 c 0
 121 206 234 245 285 263 c 1
 289 266 293 278 293 285 c 0
 293 298 293 307 291 318 c 0
 281 375 244 411 209 411 c 0
 171 411 161 372 151 327 c 0
 146 304 130 283 95 283 c 0
 68 283 43 303 43 331 c 0x76
 43 344 49 358 57 372 c 1
 70 385 160 449 248 449 c 0
 295 449 337 429 365 394 c 1
 400 426 444 447 490 447 c 0
EndSplineSet
Substitution2: "'smcp' Lowercase to Small Capitals in Latin lookup 0 subtable" ae.sc
EndChar

StartChar: eth
Encoding: 240 240 174
Width: 540
UnlinkRmOvrlpSave: 1
Flags: W
HStem: -6 42<223.317 306.738> 406 42<217.808 310.493> 663 28<98.4287 124.598>
VStem: 33 138<115.982 324.81> 350 139<141.468 357.594>
LayerCount: 2
Fore
SplineSet
367 708 m 17
 372 702 393 679 388 674 c 9
 135 502 l 17
 129 509 110 532 115 537 c 9
 367 708 l 17
264 406 m 0
 193 406 171 303 171 212 c 0
 171 96 226 36 265 36 c 0
 332 36 350 135 350 225 c 0
 350 276 342 333 321 375 c 1
 309 392 292 406 264 406 c 0
246 448 m 0
 271 448 290 445 311 440 c 1
 285 516 223 607 97 663 c 1
 95 674 96 685 104 691 c 1
 172 681 299 627 385 530 c 0
 444 464 489 378 489 259 c 3
 489 107 395 -6 263 -6 c 0
 157 -6 33 59 33 218 c 0
 33 373 149 448 246 448 c 0
EndSplineSet
Substitution2: "'smcp' Lowercase to Small Capitals in Latin lookup 0 subtable" eth.sc
EndChar

StartChar: divide
Encoding: 247 247 181
Width: 592
Flags: W
HStem: 2 124<248.2 341.8> 223 58<59.526 534.297> 370 124<248.2 341.8>
VStem: 233 124<17.2003 110.8 385.2 478.8>
LayerCount: 2
Fore
SplineSet
233 432 m 0
 233 466 261 494 295 494 c 0
 329 494 357 466 357 432 c 0
 357 398 329 370 295 370 c 0
 261 370 233 398 233 432 c 0
233 64 m 0
 233 98 261 126 295 126 c 0
 329 126 357 98 357 64 c 0
 357 30 329 2 295 2 c 0
 261 2 233 30 233 64 c 0
63 223 m 1
 58 223 57 229 57 239 c 0
 57 243 59 269 68 281 c 1
 528 281 l 2
 534 281 537 273 537 267 c 0
 537 246 531 233 523 223 c 1
 63 223 l 1
EndSplineSet
Substitution2: "'smcp' Lowercase to Small Capitals in Latin lookup 0 subtable" divide.sc
EndChar

StartChar: oslash
Encoding: 248 248 182
Width: 532
Flags: W
HStem: -7 42<229.597 322.545> 406 41<209.207 298.807>
VStem: 32 142<118.592 313.407> 358 142<126.606 322.548>
LayerCount: 2
Fore
SplineSet
373 455 m 17
 381 452 407 443 405 436 c 9
 152 -16 l 17
 144 -13 118 -3 120 4 c 9
 373 455 l 17
EndSplineSet
Refer: 79 111 N 1 0 0 1 0 0 2
Substitution2: "'smcp' Lowercase to Small Capitals in Latin lookup 0 subtable" oslash.sc
EndChar

StartChar: thorn
Encoding: 254 254 188
Width: 535
Flags: W
HStem: -218 37<-6.89375 59.3842 205.388 271.665> -8 44<211.572 307.73> 375 73<247.127 314.202> 624 32<-2.28613 54.9145> 675 20G<191.886 196.386>
VStem: 67.3857 130<-172.734 0.997055 50.0771 367.992 387.933 615.244> 359.386 144<134.92 323.157>
LayerCount: 2
Fore
SplineSet
307.386 448 m 0
 428.386 448 503.386 345 503.386 234 c 0
 503.386 81 368.386 -8 258.386 -8 c 0
 230.386 -8 204.386 1 200.386 1 c 1
 197.386 1 197.386 -3 197.386 -15 c 2
 197.386 -69 l 2
 197.386 -112 197.386 -143 205.386 -163 c 0
 210.386 -176 256.386 -180 269.386 -181 c 1
 274.386 -188 273.386 -212 269.386 -218 c 1
 230.386 -214 174.386 -211 132.386 -211 c 0
 90.3857 -211 34.3857 -214 -4.61426 -218 c 1
 -8.61426 -212 -9.61426 -188 -4.61426 -181 c 1
 8.38574 -180 54.3857 -176 59.3857 -163 c 0
 67.3857 -143 67.3857 -112 67.3857 -69 c 2
 67.3857 558 l 2
 67.3857 575 67.3857 589 60.3857 606 c 0
 55.3857 618 12.3857 624 0.385742 624 c 1
 -3.61426 624 -4.61426 652 0.385742 656 c 1
 112.386 666 190.386 695 193.386 695 c 1
 199.386 694 207.386 683 208.386 678 c 1
 208.386 678 197.386 616 197.386 576 c 0
 197.386 408 197.386 410 197.386 394 c 0
 197.386 392.372 197.532 391.039 197.788 390 c 0
 198.471 387.209 199.929 386.543 201.386 388 c 0
 231.386 420 276.386 448 307.386 448 c 0
252.386 375 m 0
 215.386 375 197.386 352 197.386 347 c 2
 197.386 96 l 2
 197.386 56 230.386 36 265.386 36 c 0
 298.386 36 359.386 83 359.386 199 c 0
 359.386 302 333.386 375 252.386 375 c 0
EndSplineSet
Substitution2: "'smcp' Lowercase to Small Capitals in Latin lookup 0 subtable" thorn.sc
EndChar

StartChar: gravecomb
Encoding: 768 768 190
Width: 0
GlyphClass: 4
Flags: W
HStem: 497 165
VStem: -355 173
LayerCount: 2
Fore
SplineSet
-355 633 m 0
 -355 641 -344 662 -309 662 c 0
 -295 662 -280 658 -275 653 c 0
 -238 610 -182 520 -182 515 c 0
 -182 509 -192 497 -199 497 c 0
 -209 497 -355 594 -355 633 c 0
EndSplineSet
EndChar

StartChar: acutecomb
Encoding: 769 769 191
Width: 0
GlyphClass: 4
Flags: W
HStem: 498 165
VStem: -342 173
LayerCount: 2
Fore
SplineSet
-215 663 m 0
 -180 663 -169 642 -169 634 c 0
 -169 595 -315 498 -325 498 c 0
 -332 498 -342 510 -342 516 c 0
 -342 521 -286 611 -249 654 c 0
 -244 659 -229 663 -215 663 c 0
EndSplineSet
EndChar

StartChar: uni2010
Encoding: 8208 8208 197
Width: 374
Flags: W
HStem: 193 74<60.0093 213.957> 204 75<167.043 313.537>
VStem: 57 261
LayerCount: 2
Fore
SplineSet
57 204 m 0x60
 57 252 66 267 69 267 c 2
 70 267 l 1xa0
 311 279 l 1
 312 279 l 2
 314 279 318 278 318 270 c 0
 318 221 305 204 305 204 c 1x60
 64 193 l 1xa0
 64 193 57 192 57 204 c 0x60
EndSplineSet
EndChar

StartChar: uni2011
Encoding: 8209 8209 198
Width: 374
Flags: W
HStem: 193 74<60.0093 213.957> 204 75<167.043 313.537>
VStem: 57 261
LayerCount: 2
Fore
SplineSet
57 204 m 0x60
 57 252 66 267 69 267 c 2
 70 267 l 1xa0
 311 279 l 1
 312 279 l 2
 314 279 318 278 318 270 c 0
 318 221 305 204 305 204 c 1x60
 64 193 l 1xa0
 64 193 57 192 57 204 c 0x60
EndSplineSet
EndChar

StartChar: figuredash
Encoding: 8210 8210 199
Width: 557
Flags: W
HStem: 194 74<60.4735 491.904>
LayerCount: 2
Fore
SplineSet
56 203 m 0
 56 205 59 268 70 268 c 2
 495 268 l 2
 497 268 501 267 501 259 c 0
 501 241 493 205 492 201 c 0
 490 195 485 194 485 194 c 1
 62 194 l 1
 62 194 56 193 56 203 c 0
EndSplineSet
EndChar

StartChar: endash
Encoding: 8211 8211 200
Width: 560
Flags: W
HStem: 194 74<62.4735 493.904>
LayerCount: 2
Fore
SplineSet
58 203 m 0
 58 205 61 268 72 268 c 2
 497 268 l 2
 499 268 503 267 503 259 c 0
 503 241 495 205 494 201 c 0
 492 195 487 194 487 194 c 1
 64 194 l 1
 64 194 58 193 58 203 c 0
EndSplineSet
EndChar

StartChar: emdash
Encoding: 8212 8212 201
Width: 944
Flags: W
HStem: 194 74<62.4735 878.904>
LayerCount: 2
Fore
SplineSet
58 203 m 0
 58 205 61 268 72 268 c 2
 882 268 l 2
 884 268 888 267 888 259 c 0
 888 241 880 205 879 201 c 0
 877 195 872 194 872 194 c 1
 64 194 l 1
 64 194 58 193 58 203 c 0
EndSplineSet
EndChar

StartChar: afii00208
Encoding: 8213 8213 202
Width: 1138
Flags: W
HStem: 194 74<62.4735 1072.9>
LayerCount: 2
Fore
SplineSet
58 203 m 0
 58 205 61 268 72 268 c 2
 1076 268 l 2
 1078 268 1082 267 1082 259 c 0
 1082 241 1074 205 1073 201 c 0
 1071 195 1066 194 1066 194 c 1
 64 194 l 1
 64 194 58 193 58 203 c 0
EndSplineSet
EndChar

StartChar: quoteleft
Encoding: 8216 8216 203
Width: 187
Flags: W
HStem: 474 232<92 150>
VStem: 40 71<540 628.636>
LayerCount: 2
Fore
SplineSet
40 555 m 0
 40 649 141 706 150 706 c 0
 158 706 167 699 171 688 c 1
 111 652 111 623 111 614 c 0
 111 588 121 572 131 560 c 0
 142 547 153 538 153 524 c 0
 153 500 124 474 92 474 c 0
 85 474 64 478 55 485 c 1
 46 498 40 525 40 555 c 0
EndSplineSet
EndChar

StartChar: quoteright
Encoding: 8217 8217 204
Width: 194
Flags: W
HStem: 474 232<57 115>
VStem: 96 71<551.364 640>
LayerCount: 2
Fore
SplineSet
167 625 m 0
 167 531 66 474 57 474 c 0
 49 474 40 481 36 492 c 1
 96 528 96 557 96 566 c 0
 96 592 86 608 76 620 c 0
 65 633 54 642 54 656 c 0
 54 680 83 706 115 706 c 0
 122 706 143 702 152 695 c 1
 161 682 167 655 167 625 c 0
EndSplineSet
EndChar

StartChar: quotesinglbase
Encoding: 8218 8218 205
Width: 202
Flags: W
HStem: -107 232<45 103>
VStem: 84 71<-29.6363 59>
LayerCount: 2
Fore
SplineSet
155 44 m 0
 155 -50 54 -107 45 -107 c 0
 37 -107 28 -100 24 -89 c 1
 84 -53 84 -24 84 -15 c 0
 84 11 73 27 63 39 c 0
 52 52 42 61 42 75 c 0
 42 99 71 125 103 125 c 0
 110 125 131 121 140 114 c 1
 149 101 155 74 155 44 c 0
EndSplineSet
EndChar

StartChar: quotedblleft
Encoding: 8220 8220 206
Width: 335
Flags: W
HStem: 474 232<92 150 240 298>
VStem: 40 71<540 628.636> 188 71<540 628.636>
LayerCount: 2
Fore
SplineSet
188 555 m 0
 188 649 289 706 298 706 c 0
 306 706 315 699 319 688 c 1
 259 652 259 623 259 614 c 0
 259 588 269 572 279 560 c 0
 290 547 301 538 301 524 c 0
 301 500 272 474 240 474 c 0
 233 474 212 478 203 485 c 1
 194 498 188 525 188 555 c 0
40 555 m 0
 40 649 141 706 150 706 c 0
 158 706 167 699 171 688 c 1
 111 652 111 623 111 614 c 0
 111 588 121 572 131 560 c 0
 142 547 153 538 153 524 c 0
 153 500 124 474 92 474 c 0
 85 474 64 478 55 485 c 1
 46 498 40 525 40 555 c 0
EndSplineSet
EndChar

StartChar: quotedblright
Encoding: 8221 8221 207
Width: 342
Flags: W
HStem: 474 232<57 115 205 263>
VStem: 96 71<551.364 640> 244 71<551.364 640>
LayerCount: 2
Fore
SplineSet
167 625 m 0
 167 531 66 474 57 474 c 0
 49 474 40 481 36 492 c 1
 96 528 96 557 96 566 c 0
 96 592 86 608 76 620 c 0
 65 633 54 642 54 656 c 0
 54 680 83 706 115 706 c 0
 122 706 143 702 152 695 c 1
 161 682 167 655 167 625 c 0
315 625 m 0
 315 531 214 474 205 474 c 0
 197 474 188 481 184 492 c 1
 244 528 244 557 244 566 c 0
 244 592 234 608 224 620 c 0
 213 633 202 642 202 656 c 0
 202 680 231 706 263 706 c 0
 270 706 291 702 300 695 c 1
 309 682 315 655 315 625 c 0
EndSplineSet
EndChar

StartChar: quotedblbase
Encoding: 8222 8222 208
Width: 349
Flags: W
HStem: -108 232<44 102 192 250>
VStem: 83 71<-30.6363 58> 231 71<-30.6363 58>
LayerCount: 2
Fore
SplineSet
154 43 m 0
 154 -51 53 -108 44 -108 c 0
 36 -108 27 -101 23 -90 c 1
 83 -54 83 -25 83 -16 c 0
 83 10 72 26 62 38 c 0
 51 51 41 60 41 74 c 0
 41 98 70 124 102 124 c 0
 109 124 130 120 139 113 c 1
 148 100 154 73 154 43 c 0
302 43 m 0
 302 -51 201 -108 192 -108 c 0
 184 -108 175 -101 171 -90 c 1
 231 -54 231 -25 231 -16 c 0
 231 10 220 26 210 38 c 0
 199 51 189 60 189 74 c 0
 189 98 218 124 250 124 c 0
 257 124 278 120 287 113 c 1
 296 100 302 73 302 43 c 0
EndSplineSet
EndChar

StartChar: dagger
Encoding: 8224 8224 209
Width: 397
Flags: W
HStem: 432 91<41.0071 101.854 295.146 355.993> 463 25<103.43 174.267 222.115 293.57> 642 20G<187.5 209.5>
VStem: 152 92<570.25 655.83> 180 36<398.363 460.621 489.188 608.061> 189 19<-23.8143 85.1921>
LayerCount: 2
Fore
SplineSet
153 488 m 8x68
 166 488 172 492 182 505 c 1
 182 538 171 606 152 625 c 1
 152 646 176 662 199 662 c 0
 220 662 244 646 244 625 c 1
 225 606 214 538 214 505 c 1
 224 492 231 488 244 488 c 0x70
 277 488 306 504 325 523 c 1
 346 523 363 497 363 476 c 0
 363 455 346 432 325 432 c 1xb0
 306 451 278 462 244 463 c 24x70
 229 463 216 447 216 435 c 1x68
 223 418 237 394 249 365 c 1
 227 227 228 185 208 -10 c 1
 205 -17 204 -23 199 -24 c 1
 194 -23 192 -15 189 -10 c 1x64
 169 185 169 227 147 365 c 1
 158 390 173 418 180 435 c 1
 180 447 168 463 153 463 c 24x68
 119 462 91 451 72 432 c 1
 51 432 34 455 34 476 c 0
 34 497 51 523 72 523 c 1xa8
 91 504 120 488 153 488 c 8x68
EndSplineSet
EndChar

StartChar: daggerdbl
Encoding: 8225 8225 210
Width: 417
Flags: W
HStem: 115 91<51.0071 111.854 305.146 365.993> 150 25<113.43 184.267 232.115 303.57> 432 91<51.0071 111.854 305.146 365.993> 463 25<113.43 184.267 232.115 303.57> 642 20G<197.5 219.5>
VStem: 162 92<-17.8301 67.75 570.25 655.83> 185 46<13.9262 149.997 175.012 259.78 278.858 358.265 378.22 462.988 488.003 624.074>
LayerCount: 2
Fore
SplineSet
259 273 m 1x1a
 247 244 233 220 226 203 c 1
 226 191 239 175 254 175 c 24x5c
 288 176 316 187 335 206 c 1
 356 206 373 183 373 162 c 0
 373 141 356 115 335 115 c 1x8c
 316 134 287 150 254 150 c 0
 241 150 234 146 224 133 c 1
 224 100 235 32 254 13 c 1
 254 -8 230 -24 209 -24 c 0
 186 -24 162 -8 162 13 c 1
 181 32 192 100 192 133 c 1
 182 146 176 150 163 150 c 16x4c
 130 150 101 134 82 115 c 1
 61 115 44 141 44 162 c 0
 44 183 61 206 82 206 c 1x8c
 101 187 129 176 163 175 c 24
 178 175 190 191 190 203 c 1
 183 220 168 248 157 273 c 1
 171 285 185 312 185 320 c 1
 185 329 164 358 157 365 c 1
 168 390 183 418 190 435 c 1
 190 447 178 463 163 463 c 24x5a
 129 462 101 451 82 432 c 1
 61 432 44 455 44 476 c 0
 44 497 61 523 82 523 c 1x2a
 101 504 130 488 163 488 c 8
 176 488 182 492 192 505 c 1
 192 538 181 606 162 625 c 1
 162 646 186 662 209 662 c 0
 230 662 254 646 254 625 c 1
 235 606 224 538 224 505 c 1
 234 492 241 488 254 488 c 0x1c
 287 488 316 504 335 523 c 1
 356 523 373 497 373 476 c 0
 373 455 356 432 335 432 c 1x2c
 316 451 288 462 254 463 c 24x1c
 239 463 226 447 226 435 c 1
 233 418 247 394 259 365 c 1
 252 358 231 328 231 320 c 1
 231 312 245 285 259 273 c 1x1a
EndSplineSet
EndChar

StartChar: bullet
Encoding: 8226 8226 211
Width: 421
Flags: W
HStem: 123 281<135.683 286.022>
VStem: 71 279<187.683 338.612>
LayerCount: 2
Fore
SplineSet
71 263 m 0
 71 340 134 404 211 404 c 0
 288 404 350 340 350 263 c 0
 350 186 288 123 211 123 c 0
 134 123 71 186 71 263 c 0
EndSplineSet
EndChar

StartChar: onedotenleader
Encoding: 8228 8228 212
Width: 234
Flags: W
HStem: -11 150<64.25 168.969>
VStem: 42 150<12.2802 116>
LayerCount: 2
Fore
SplineSet
192 63 m 0
 192 23 159 -11 118 -11 c 27
 76 -11 42 23 42 66 c 0
 42 106 76 139 117 139 c 27
 159 139 192 103 192 63 c 0
EndSplineSet
EndChar

StartChar: ellipsis
Encoding: 8230 8230 213
Width: 790
Flags: W
HStem: -11 150<64.25 168.969 342.25 446.969 620.25 724.969>
VStem: 42 150<12.2802 116> 320 150<12.2802 116> 598 150<12.2802 116>
CounterMasks: 1 70
LayerCount: 2
Fore
SplineSet
748 63 m 0
 748 23 715 -11 674 -11 c 27
 632 -11 598 23 598 66 c 0
 598 106 632 139 673 139 c 27
 715 139 748 103 748 63 c 0
470 63 m 0
 470 23 437 -11 396 -11 c 27
 354 -11 320 23 320 66 c 0
 320 106 354 139 395 139 c 27
 437 139 470 103 470 63 c 0
192 63 m 0
 192 23 159 -11 118 -11 c 27
 76 -11 42 23 42 66 c 0
 42 106 76 139 117 139 c 27
 159 139 192 103 192 63 c 0
EndSplineSet
LCarets2: 2 0 0 
EndChar

StartChar: perthousand
Encoding: 8240 8240 214
Width: 1025
Flags: W
HStem: 0 31<473.28 538.815 812.28 877.815> 274 30<457.791 523.192 796.791 862.192> 337 31<176.28 241.815> 611 30<160.791 226.192>
VStem: 45 95<408.108 565.734> 263 95<412.743 570.7> 342 95<71.1076 228.734> 560 95<75.7433 233.7> 681 95<71.1076 228.734> 899 95<75.7433 233.7>
LayerCount: 2
Fore
SplineSet
829 274 m 3xf9c0
 780 274 776 211 776 163 c 24
 776 105 796 31 845 31 c 3
 894 31 899 93 899 140 c 24
 899 199 878 274 829 274 c 3xf9c0
837 304 m 0
 929 304 994 240 994 155 c 0
 994 71 926 0 838 0 c 0
 745 0 681 66 681 150 c 0
 681 234 749 304 837 304 c 0
629 635 m 1
 113 -5 l 2
 109 -11 89 -20 72 -20 c 0
 57 -20 57 -8 57 -8 c 1
 573 632 l 1
 581 639 596 645 613 645 c 0
 622 645 629 640 629 635 c 1
490 274 m 3
 441 274 437 211 437 163 c 24xfbc0
 437 105 457 31 506 31 c 3
 555 31 560 93 560 140 c 24
 560 199 539 274 490 274 c 3
498 304 m 0
 590 304 655 240 655 155 c 0
 655 71 587 0 499 0 c 0
 406 0 342 66 342 150 c 0
 342 234 410 304 498 304 c 0
193 611 m 3
 144 611 140 548 140 500 c 24
 140 442 160 368 209 368 c 3
 258 368 263 430 263 477 c 24xfdc0
 263 536 242 611 193 611 c 3
201 641 m 0
 293 641 358 577 358 492 c 0
 358 408 290 337 202 337 c 0
 109 337 45 403 45 487 c 0
 45 571 113 641 201 641 c 0
EndSplineSet
EndChar

StartChar: minute
Encoding: 8242 8242 215
Width: 167
Flags: W
HStem: 484 215<65.5703 78.9338>
VStem: 45 104
LayerCount: 2
Fore
SplineSet
104 699 m 0
 124 699 149 687 149 667 c 0
 149 620 97 528 71 494 c 0
 67 489 61 484 57 484 c 0
 51 484 45 489 45 496 c 0
 45 499 52 612 60 666 c 0
 62 678 85 699 104 699 c 0
EndSplineSet
EndChar

StartChar: second
Encoding: 8243 8243 216
Width: 302
Flags: W
HStem: 484 215<65.5703 78.9091 200.57 213.909>
VStem: 45 238
LayerCount: 2
Fore
SplineSet
239 699 m 0
 259 699 283 687 283 667 c 0
 283 620 232 528 206 494 c 0
 202 489 196 484 192 484 c 0
 186 484 180 489 180 496 c 0
 180 499 187 612 195 666 c 0
 197 678 220 699 239 699 c 0
104 699 m 0
 124 699 148 687 148 667 c 0
 148 620 97 528 71 494 c 0
 67 489 61 484 57 484 c 0
 51 484 45 489 45 496 c 0
 45 499 52 612 60 666 c 0
 62 678 85 699 104 699 c 0
EndSplineSet
EndChar

StartChar: uni2038
Encoding: 8248 8248 217
Width: 401
Flags: W
HStem: -66 191
VStem: 49 314
LayerCount: 2
Fore
SplineSet
206 125 m 0
 211 125 217 123 220 120 c 1
 291 18 360 -40 363 -44 c 1
 362 -49 355 -63 346 -66 c 1
 340 -63 239 10 206 39 c 1
 173 10 72 -63 66 -66 c 1
 57 -63 50 -49 49 -44 c 1
 52 -40 121 18 192 120 c 1
 195 123 201 125 206 125 c 0
EndSplineSet
EndChar

StartChar: guilsinglleft
Encoding: 8249 8249 218
Width: 315
Flags: W
VStem: 26 244
LayerCount: 2
Fore
SplineSet
26 248 m 0
 26 253 29 259 33 263 c 1
 164 342 238 419 243 423 c 1
 249 422 266 414 270 404 c 1
 266 398 173 284 136 248 c 1
 173 212 266 98 270 92 c 1
 266 82 249 74 243 73 c 1
 238 77 164 154 33 233 c 1
 29 237 26 243 26 248 c 0
EndSplineSet
EndChar

StartChar: guilsinglright
Encoding: 8250 8250 219
Width: 315
Flags: W
VStem: 45 244
LayerCount: 2
Fore
SplineSet
289 248 m 0
 289 243 286 237 282 233 c 1
 151 154 77 77 72 73 c 1
 66 74 49 82 45 92 c 1
 49 98 142 212 179 248 c 1
 142 284 49 398 45 404 c 1
 49 414 66 422 72 423 c 1
 77 419 151 342 282 263 c 1
 286 259 289 253 289 248 c 0
EndSplineSet
EndChar

StartChar: Euro
Encoding: 8364 8364 221
Width: 716
UnlinkRmOvrlpSave: 1
Flags: W
HStem: -7 42<361.59 537.069> 252 42<51.4514 429.317> 358 42<51.4514 429.317> 601 41<341.126 522.074>
VStem: 79.2539 149<201.53 354.768> 636.254 34<155.6 189.924>
LayerCount: 2
Fore
SplineSet
60.2539 294 m 1
 76.2539 294 422.254 294 433.254 294 c 1
 447.254 283 429.254 256 423.254 252 c 1
 40.2539 252 l 17
 34.2539 258 51.2539 294 60.2539 294 c 1
60.2539 400 m 1
 76.2539 400 422.254 400 433.254 400 c 1
 447.254 389 429.254 362 423.254 358 c 1
 40.2539 358 l 17
 34.2539 364 51.2539 400 60.2539 400 c 1
670.254 185 m 1
 670.254 174 645.254 44 630.254 38 c 0
 568.254 16 506.254 -7 415.254 -7 c 0
 230.254 -7 79.2539 135 79.2539 310 c 0
 79.2539 490 230.254 642 417.254 642 c 0
 482.254 642 564.254 636 622.254 624 c 1
 624.254 613 655.254 490 655.254 478 c 0
 655.254 472 641.254 464 629.254 464 c 3
 624.254 464 620.254 464 616.254 468 c 1
 606.254 506 565.254 601 426.254 601 c 0
 287.254 601 228.254 474 228.254 339 c 0
 228.254 189 296.254 35 445.254 35 c 0
 504.254 35 540.254 53 567.254 77 c 0
 608.254 114 634.254 188 636.254 196 c 1
 651.254 196 662.254 192 670.254 185 c 1
EndSplineSet
EndChar

StartChar: arrowleft
Encoding: 8592 8592 222
Width: 771
Flags: W
HStem: 210 74<165 732.904>
LayerCount: 2
Fore
SplineSet
275 397 m 0
 275 389 255 370 201 318 c 0
 165 284 l 1
 734 284 l 1
 734 284 741 284 741 274 c 0
 741 256 734 221 733 217 c 0
 731 211 726 210 726 210 c 1
 164 210 l 1
 200 176 l 0
 254 124 274 105 274 97 c 0
 274 85 245 73 239 72 c 1
 238 74 180 131 33 226 c 1
 28 228 26 234 26 240 c 0
 26 250 27 259 34 267 c 1
 165 346 235 418 240 422 c 1
 246 421 275 409 275 397 c 0
EndSplineSet
EndChar

StartChar: arrowup
Encoding: 8593 8593 223
Width: 393
Flags: W
HStem: 0 21G<214 228>
VStem: 159 74<5.20054 576>
LayerCount: 2
Fore
SplineSet
233 576 m 1
 233 6 l 1
 233 6 233 0 223 0 c 0
 205 0 171 7 167 8 c 0
 161 10 159 14 159 14 c 1
 159 577 l 1
 126 540 l 0
 74 486 54 466 46 466 c 0
 34 466 23 496 22 502 c 1
 24 503 81 561 176 708 c 1
 178 713 184 714 190 714 c 0
 200 714 208 713 216 706 c 1
 295 575 368 505 372 500 c 1
 371 494 358 466 346 466 c 0
 338 466 320 486 268 540 c 0
 233 576 l 1
EndSplineSet
EndChar

StartChar: arrowright
Encoding: 8594 8594 224
Width: 771
Flags: W
HStem: 210 74<37.0959 605>
LayerCount: 2
Fore
SplineSet
605 284 m 1
 569 318 l 0
 515 370 495 389 495 397 c 0
 495 409 524 421 530 422 c 1
 535 418 605 346 736 267 c 1
 743 259 744 250 744 240 c 0
 744 234 742 228 737 226 c 1
 590 131 532 74 531 72 c 1
 525 73 496 85 496 97 c 0
 496 105 516 124 570 176 c 0
 606 210 l 1
 44 210 l 1
 44 210 39 211 37 217 c 0
 36 221 29 256 29 274 c 0
 29 284 36 284 36 284 c 1
 605 284 l 1
EndSplineSet
EndChar

StartChar: arrowdown
Encoding: 8595 8595 225
Width: 396
Flags: W
HStem: 0 21G<200 208>
VStem: 162 74<138 708.799>
LayerCount: 2
Fore
SplineSet
162 138 m 1
 162 708 l 1
 162 708 162 714 172 714 c 0
 190 714 224 707 228 706 c 0
 234 704 236 700 236 700 c 1
 236 137 l 1
 269 174 l 0
 321 228 341 248 349 248 c 0
 361 248 372 218 373 212 c 1
 371 211 314 153 219 6 c 1
 217 1 211 0 205 0 c 0
 195 0 187 1 179 8 c 1
 100 139 27 209 23 214 c 1
 24 220 37 248 49 248 c 0
 57 248 75 228 127 174 c 0
 162 138 l 1
EndSplineSet
EndChar

StartChar: partialdiff
Encoding: 8706 8706 227
Width: 503
Flags: W
HStem: 0 55<201.654 286.082> 317 53<191.164 291.188> 584 58<142.36 258.437>
VStem: 44 125<91.9379 272.861> 315 135<152.6 371.71>
LayerCount: 2
Fore
SplineSet
315 219 m 1
 315 303 267 317 229 317 c 0
 190 317 169 270 169 209 c 0
 169 91 206 55 248 55 c 0
 305 55 315 145 315 219 c 1
220 0 m 0
 122 0 44 60 44 194 c 0
 44 294 139 370 245 370 c 0
 267 370 285 369 308 361 c 0
 313 359 318 364 319 369 c 0
 323 399 317 502 281 542 c 0
 251 575 221 584 191 584 c 3
 149 584 104 552 78 534 c 1
 73 538 64 564 76 576 c 0
 106 606 172 642 234 642 c 3
 414 642 450 408 450 282 c 3
 450 82 324 0 220 0 c 0
EndSplineSet
EndChar

StartChar: uni2206
Encoding: 8710 8710 228
Width: 665
Flags: W
HStem: 0 76<115.911 488>
LayerCount: 2
Fore
SplineSet
491 83 m 2
 311 443 l 1
 307 446 302 447 299 441 c 2
 116 87 l 1
 114 80 119 76 124 76 c 2
 488 76 l 2
 492 76 493 79 491 83 c 2
345 613 m 1
 647 14 l 1
 647 14 641 8 639 0 c 1
 28 0 l 1
 24 6 23 9 19 16 c 1
 328 613 l 1
 345 613 l 1
EndSplineSet
EndChar

StartChar: gradient
Encoding: 8711 8711 229
Width: 681
Flags: W
HStem: 566 76<186 558.089>
LayerCount: 2
Fore
SplineSet
183 559 m 2
 363 199 l 1
 367 196 372 195 375 201 c 2
 558 555 l 1
 560 562 555 566 550 566 c 2
 186 566 l 2
 182 566 181 563 183 559 c 2
329 29 m 1
 27 628 l 1
 27 628 33 634 35 642 c 1
 646 642 l 1
 650 636 651 633 655 626 c 1
 346 29 l 1
 329 29 l 1
EndSplineSet
EndChar

StartChar: element
Encoding: 8712 8712 230
Width: 501
Flags: W
HStem: 11 60<177.888 445.914> 189 61<123.004 401> 370 60<174.702 446.161>
VStem: 49 74<174.075 313.639>
LayerCount: 2
Fore
SplineSet
409 220 m 0
 409 193 401 189 400 189 c 2
 128 189 l 2
 127 189 122 188 123 185 c 0
 135 122 178 71 245 71 c 2
 433 71 l 2
 433 71 448 64 448 29 c 0
 448 20 441 11 441 11 c 1
 247 11 l 2
 135 11 49 109 49 221 c 0
 49 330 128 430 237 430 c 2
 441 430 l 1
 441 430 448 421 448 409 c 0
 448 378 433 370 433 370 c 1
 237 370 l 2
 174 370 134 317 123 255 c 0
 123 252 125 250 128 250 c 2
 401 250 l 1
 401 249 409 237 409 220 c 0
EndSplineSet
EndChar

StartChar: notelement
Encoding: 8713 8713 231
Width: 497
Flags: W
HStem: -10 21G<133.5 137> 11 60<195.668 443.914> 189 61<121.004 193 290 399> 370 60<172.702 295 391 444.161>
VStem: 47 74<174.26 313.639>
LayerCount: 2
Fore
SplineSet
407 220 m 0xb8
 407 193 399 189 398 189 c 2
 255 189 l 1
 195 81 l 1
 209 75 225 71 243 71 c 2
 431 71 l 1
 431 71 446 64 446 29 c 0
 446 20 439 11 439 11 c 1
 245 11 l 2x78
 216 11 189 18 165 29 c 1
 145 -8 l 1
 142 -10 139 -10 135 -10 c 0
 132 -10 115 -6 102 10 c 0
 98 14 97 17 97 17 c 1
 120 58 l 1
 75 97 47 157 47 221 c 0
 47 330 126 430 235 430 c 2
 329 430 l 1
 359 484 l 1
 359 484 364 487 368 487 c 0
 380 487 391 479 399 470 c 0
 404 465 407 459 407 459 c 1
 391 430 l 1
 439 430 l 1
 439 430 446 421 446 409 c 0
 446 378 431 370 431 370 c 1
 357 370 l 1
 290 250 l 1
 399 250 l 1
 399 249 407 237 407 220 c 0xb8
228 250 m 1
 295 370 l 1
 235 370 l 2
 172 370 132 317 121 255 c 0
 121 252 123 250 126 250 c 2
 228 250 l 1
152 115 m 1
 193 189 l 1
 126 189 l 2
 125 189 120 188 121 185 c 0
 126 159 137 134 152 115 c 1
EndSplineSet
EndChar

StartChar: summation
Encoding: 8721 8721 232
Width: 625
Flags: W
HStem: 0 21G<489.5 547.5> 2 29<33.0357 66.2613> 608 48<245.114 444.277> 627 29<33.0058 67.2492>
LayerCount: 2
Fore
SplineSet
544 0 m 1xa0
 435 0 246 2 155 2 c 0
 88 2 37 -3 37 -3 c 1
 35 -1 33 7 33 15 c 0
 33 23 35 31 37 31 c 0
 48 31 81 53 90 65 c 2
 273 306 l 2
 277 311 276 318 273 322 c 0
 260 342 166 490 89 592 c 0
 76 609 49 627 37 627 c 0
 35 627 33 634 33 641 c 0
 33 648 35 656 37 658 c 1
 37 658 86 656 153 656 c 0x50
 246 656 405 662 514 662 c 1
 521 612 536 556 545 511 c 1
 542 508 529 506 522 506 c 0
 515 506 510 508 508 513 c 0
 483 563 434 608 368 608 c 27
 346 608 340 608 312 608 c 0
 277 608 247 603 245 595 c 1
 410 360 l 1
 412 354 414 347 414 341 c 0
 414 336 412 332 409 329 c 0
 324 227 203 84 203 71 c 0
 203 64 206 60 274 60 c 0
 308 60 311 60 338 60 c 0
 390 60 452 65 481 80 c 0
 500 90 529 125 546 170 c 0
 547 174 553 176 560 176 c 0
 570 176 587 173 590 170 c 1
 571 116 551 44 544 0 c 1xa0
EndSplineSet
EndChar

StartChar: minus
Encoding: 8722 8722 233
Width: 610
Flags: W
HStem: 209 74<70.9086 534.904>
LayerCount: 2
Fore
SplineSet
66 219 m 1
 66 219 70 283 80 283 c 2
 537 283 l 2
 540 283 544 283 544 276 c 0
 544 268 540 232 535 215 c 0
 533 209 528 209 528 209 c 1
 72 209 l 1
 72 209 66 209 66 219 c 1
EndSplineSet
EndChar

StartChar: uni2213
Encoding: 8723 8723 234
Width: 588
Flags: W
HStem: 213 72<65.0959 260 332 525.904> 518 72<66.0959 520.652>
VStem: 260 72<17.3688 213 285 479.904>
LayerCount: 2
Fore
SplineSet
332 210 m 2
 332 26 l 1
 332 26 317 16 272 10 c 0
 269 10 268 10 266 10 c 0
 260 10 260 13 260 17 c 2
 260 208 l 2
 260 210 259 213 254 213 c 2
 63 213 l 1
 63 213 57 213 57 223 c 0
 57 227 58 256 65 280 c 0
 67 286 72 285 72 285 c 1
 255 285 l 2
 258 285 260 289 260 291 c 2
 260 473 l 1
 260 473 259 478 265 480 c 0
 289 487 318 488 322 488 c 0
 332 488 332 482 332 482 c 1
 332 290 l 2
 332 287 333 285 336 285 c 2
 528 285 l 2
 532 285 536 285 536 278 c 0
 536 269 532 241 526 219 c 0
 524 213 519 213 519 213 c 1
 336 213 l 2
 333 213 332 212 332 210 c 2
520 590 m 1
 520 590 530 591 528 579 c 0
 521 531 515 521 512 518 c 1
 64 518 l 1
 64 518 56 517 58 531 c 0
 60 545 60 565 66 585 c 0
 68 591 73 590 73 590 c 1
 520 590 l 1
EndSplineSet
EndChar

StartChar: radical
Encoding: 8730 8730 235
Width: 527
Flags: W
LayerCount: 2
Fore
SplineSet
14 150 m 1
 1 157 -12 174 -12 185 c 0
 -12 198 1 205 11 212 c 0
 44 235 146 312 160 324 c 0
 168 331 185 332 188 324 c 1
 198 292 200 280 211 254 c 2
 300 47 l 1
 308 90 448 791 448 791 c 1
 506 784 l 1
 506 784 345 -25 320 -153 c 1
 305 -171 277 -180 271 -180 c 0
 267 -180 263 -179 261 -175 c 2
 94 196 l 1
 14 150 l 1
EndSplineSet
EndChar

StartChar: proportional
Encoding: 8733 8733 236
Width: 724
Flags: W
HStem: 37 73<185.536 306.964 596.688 656.984> 352 74<182.601 293.595 587.495 662.94>
VStem: 51 89<156.972 306.236>
LayerCount: 2
Back
SplineSet
108 229 m 0
 108 159 157 97 227 97 c 0
 293 97 345 172 388 218 c 0
 389 219 389 219 388 220 c 0
 355 259 290 362 220 362 c 0
 152 362 108 297 108 229 c 0
623 43 m 1
 492 43 424 180 413 180 c 2
 412 180 l 1
 359 117 299 41 200 41 c 0
 105 41 38 128 38 223 c 0
 38 332 123 422 232 422 c 0
 329 422 400 334 441 286 c 0
 442 284 446 283 447 285 c 0
 485 332 543 404 624 419 c 1
 626 419 l 2
 632 419 634 412 634 403 c 0
 634 388 628 367 628 367 c 1
 567 367 506 286 471 246 c 0
 470 245 469 244 470 243 c 0
 516 185 573 100 642 100 c 0
 648 100 650 96 650 91 c 0
 650 76 632 46 623 43 c 1
EndSplineSet
Fore
SplineSet
655 112 m 1
 664 112 666 101 666 90 c 3
 666 69 652 49 643 42 c 1
 512 42 441 162 430 162 c 2
 429 162 l 1
 376 99 315 37 217 37 c 0
 122 37 51 128 51 223 c 0
 51 332 141 426 250 426 c 0
 347 426 418 349 459 301 c 0
 460 299 464 298 465 300 c 0
 507 353 572 427 650 427 c 0
 657 427 668 396 668 373 c 0
 668 366 666 352 661 352 c 0
 657 352 651 352 644 352 c 0
 577 352 501 241 502 240 c 0
 524 210 579 112 655 112 c 1
140 229 m 0
 140 159 192 110 245 110 c 0
 311 110 364 187 388 218 c 0
 389 220 314 352 238 352 c 0
 184 352 140 297 140 229 c 0
EndSplineSet
EndChar

StartChar: infinity
Encoding: 8734 8734 237
Width: 894
Flags: W
HStem: 39 74<182.438 310.022 602.825 713.791> 352 74<182.601 294.127 582.751 711.691>
VStem: 51 89<156.972 306.236> 754 89<157.867 306.308>
LayerCount: 2
Fore
SplineSet
645 357 m 0
 584 357 521 268 505 246 c 0
 504 245 504 245 505 244 c 0
 527 214 591 113 660 113 c 0
 711 113 754 166 754 233 c 0
 754 304 701 357 645 357 c 0
140 229 m 0
 140 159 192 110 245 110 c 0
 311 110 364 187 388 218 c 0
 389 219 389 219 388 220 c 0
 372 244 308 352 238 352 c 0
 184 352 140 297 140 229 c 0
250 426 m 0
 347 426 418 349 459 301 c 0
 460 299 464 298 465 300 c 0
 507 353 575 426 672 426 c 0
 767 426 843 337 843 242 c 0
 843 132 750 39 640 39 c 0
 509 39 441 162 430 162 c 2
 429 162 l 1
 376 99 315 37 217 37 c 0
 122 37 51 128 51 223 c 0
 51 332 141 426 250 426 c 0
EndSplineSet
EndChar

StartChar: notequal
Encoding: 8800 8800 238
Width: 572
Flags: W
HStem: 109 72<61.0959 197 299 509.905> 251 72<57.2498 276 379 509.905>
LayerCount: 2
Fore
SplineSet
379 323 m 1
 516 323 l 2
 518 323 520 322 520 318 c 0
 520 309 516 279 510 257 c 0
 508 251 504 251 504 251 c 1
 338 251 l 1
 299 181 l 1
 512 181 l 2
 516 181 520 183 520 176 c 0
 520 167 516 137 510 115 c 0
 508 109 504 109 504 109 c 1
 259 109 l 1
 207 16 l 1
 204 14 201 14 197 14 c 0
 194 14 177 18 164 34 c 0
 160 38 159 41 159 41 c 1
 197 109 l 1
 59 109 l 1
 59 109 52 109 52 119 c 0
 52 123 54 152 61 176 c 0
 63 182 68 181 68 181 c 1
 237 181 l 1
 276 251 l 1
 59 251 l 1
 59 251 52 251 52 261 c 1
 52 261 55 303 62 318 c 0
 63 321 65 323 67 323 c 2
 317 323 l 1
 371 420 l 1
 371 420 376 423 380 423 c 0
 392 423 403 415 411 406 c 0
 416 401 419 395 419 395 c 1
 379 323 l 1
EndSplineSet
EndChar

StartChar: lessequal
Encoding: 8804 8804 239
Width: 514
Flags: W
HStem: 6 56<44.0959 434.982>
LayerCount: 2
Fore
SplineSet
432 62 m 1
 432 62 441 63 439 51 c 0
 432 3 427 9 424 6 c 1
 42 6 l 1
 42 6 33 5 35 19 c 0
 37 33 38 37 44 57 c 0
 46 63 51 62 51 62 c 1
 432 62 l 1
447 136 m 0
 447 129 437 86 431 86 c 0
 430 86 428 87 426 88 c 2
 51 279 l 2
 36 287 33 301 33 318 c 0
 33 329 41 337 51 342 c 2
 420 529 l 2
 422 530 424 531 425 531 c 0
 428 531 435 521 442 484 c 0
 443 478 439 475 439 475 c 1
 113 310 l 1
 444 142 l 1
 444 142 447 141 447 136 c 0
EndSplineSet
EndChar

StartChar: greaterequal
Encoding: 8805 8805 240
Width: 513
Flags: W
HStem: 6 56<73.6017 465.904>
LayerCount: 2
Fore
SplineSet
72 483 m 0
 72 501 84 531 88 531 c 0
 89 531 91 530 93 529 c 2
 463 342 l 2
 473 337 480 329 480 318 c 0
 480 301 478 287 463 279 c 2
 88 88 l 2
 83 86 82 82 77 95 c 0
 71 110 66 132 66 136 c 0
 66 140 69 142 69 142 c 1
 400 310 l 1
 75 475 l 1
 75 475 72 476 72 483 c 0
70 15 m 0
 70 16 74 62 85 62 c 2
 468 62 l 2
 470 62 474 61 474 54 c 0
 474 46 471 29 466 13 c 0
 464 7 459 6 459 6 c 1
 77 6 l 1
 77 6 70 5 70 15 c 0
EndSplineSet
EndChar

StartChar: propersubset
Encoding: 8834 8834 241
Width: 502
Flags: W
HStem: 11 60<178.232 445.914> 370 60<174.702 446.161>
VStem: 49 70<134.796 309.161>
LayerCount: 2
Fore
SplineSet
237 370 m 2
 174 370 119 309 119 220 c 3
 119 130 178 71 245 71 c 2
 433 71 l 2
 433 71 448 64 448 29 c 0
 448 20 441 11 441 11 c 1
 247 11 l 2
 135 11 49 109 49 221 c 0
 49 330 128 430 237 430 c 2
 441 430 l 1
 441 430 448 421 448 409 c 0
 448 378 433 370 433 370 c 1
 237 370 l 2
EndSplineSet
EndChar

StartChar: dotlessi
Encoding: 305 305 242
Width: 315
Flags: W
HStem: -4 37<27.1062 93.3842 239.388 298.665> 362 31<27.418 87.5734> 426 20G<206.386 228.886>
VStem: 101.386 130<41.2661 351.93>
LayerCount: 2
Fore
SplineSet
231.386 309 m 2
 231.386 145 l 2
 231.386 108 231.386 71 239.386 51 c 0
 244.386 38 283.386 34 296.386 33 c 1
 301.386 26 300.386 2 296.386 -4 c 1
 257.386 0 208.386 3 166.386 3 c 0
 124.386 3 68.3857 0 29.3857 -4 c 1
 25.3857 2 24.3857 26 29.3857 33 c 1
 42.3857 34 88.3857 38 93.3857 51 c 0
 101.386 71 101.386 102 101.386 145 c 2
 101.386 260 l 2
 101.386 270 100.386 327 92.3857 342 c 0
 84.3857 357 36.3857 362 29.3857 362 c 1
 26.3857 364 25.3857 393 30.3857 393 c 1
 106.386 399 187.386 427 225.386 446 c 1
 232.386 444 242.386 432 242.386 429 c 1
 239.386 421 233.386 386 232.386 372 c 0
 231.386 350 231.386 315 231.386 309 c 2
EndSplineSet
Substitution2: "'smcp' Lowercase to Small Capitals in Latin lookup 0 subtable" dotlessi.sc
EndChar

StartChar: uni0302
Encoding: 770 770 243
Width: 0
GlyphClass: 4
Flags: W
HStem: 497 168
VStem: -372 236
LayerCount: 2
Fore
SplineSet
-145 497 m 1
 -155 500 -226 547 -254 571 c 1
 -282 547 -349 503 -363 497 c 1
 -368 499 -372 510 -372 520 c 1
 -365 527 -348 544 -306 598 c 0
 -284 627 -275 642 -267 655 c 0
 -263 662 -260 665 -254 665 c 27
 -248 665 -247 661 -242 655 c 0
 -231 640 -223 626 -205 603 c 0
 -164 549 -143 527 -136 520 c 1
 -136 510 -140 499 -145 497 c 1
EndSplineSet
EndChar

StartChar: tildecomb
Encoding: 771 771 244
Width: 0
GlyphClass: 4
Flags: W
HStem: 498 63<-220.192 -130.513> 563 62<-361.133 -271.646>
VStem: -399 309
LayerCount: 2
Fore
SplineSet
-309 625 m 0
 -279 625 -258 609 -236 594 c 0
 -213 577 -182 561 -165 561 c 0
 -121 561 -106 609 -98 614 c 1
 -91 614 -90 607 -90 602 c 0
 -90 584 -100 562 -107 549 c 0
 -127 517 -153 498 -182 498 c 0
 -212 498 -233 514 -255 529 c 0
 -278 546 -304 563 -326 563 c 0
 -370 563 -381 514 -389 509 c 1
 -396 509 -399 519 -399 524 c 0
 -399 542 -391 562 -384 575 c 0
 -364 607 -338 625 -309 625 c 0
EndSplineSet
EndChar

StartChar: three.onum
Encoding: 63283 63283 245
Width: 1024
LayerCount: 2
Back
SplineSet
264 460 m 0xf0
 309 460 360 417 360 355 c 0xf0
 360 297 309 221 268 200 c 1
 316 196 388 138 388 53 c 0
 388 -70 220 -182 108 -182 c 0
 94 -182 81 -180 67 -174 c 1
 62 -164 61 -154 61 -148 c 0
 61 -134 81 -112 97 -112 c 0
 128 -112 132 -132 165 -132 c 0
 247 -132 300 -54 300 33 c 0xe8
 300 87 263 145 209 145 c 0
 179 145 152 139 137 134 c 1
 130 135 129 144 129 152 c 0
 129 156 131 165 133 170 c 1
 205 192 285 256 285 324 c 0
 285 369 259 397 219 397 c 0
 163 397 125.946 355.946 112 342 c 0
 110 340 107.853 338 105 338 c 0
 101.862 338 95 349.247 95 354 c 3
 95 355.306 95.5049 360.599 97 363 c 0
 130 416 191 460 264 460 c 0xf0
EndSplineSet
EndChar

StartChar: uni0304
Encoding: 772 772 246
Width: 0
GlyphClass: 4
Flags: W
HStem: 497 48<-395.486 -114.947>
VStem: -397 284<497.009 545>
LayerCount: 2
Fore
SplineSet
-397 508 m 0
 -397 533 -385 545 -382 545 c 2
 -119 545 l 2
 -117 545 -113 543 -113 535 c 0
 -113 509 -127 497 -127 497 c 1
 -391 497 l 1
 -391 497 -397 496 -397 508 c 0
EndSplineSet
EndChar

StartChar: gravecomb.cap
Encoding: 65536 -1 247
Width: 0
GlyphClass: 4
Flags: W
HStem: 728 141
VStem: -352 194
LayerCount: 2
Fore
SplineSet
-158 748 m 0
 -158 742 -165 728 -172 728 c 0
 -186 728 -352 794 -352 831 c 0
 -352 859 -314 869 -296 869 c 0
 -288 869 -282 867 -278 865 c 0
 -232 830 -158 755 -158 748 c 0
EndSplineSet
EndChar

StartChar: acutecomb.cap
Encoding: 65537 -1 248
Width: 0
GlyphClass: 4
Flags: W
HStem: 728 141
VStem: -357 194
LayerCount: 2
Fore
SplineSet
-357 748 m 0
 -357 755 -283 830 -237 865 c 0
 -233 867 -227 869 -219 869 c 0
 -201 869 -163 859 -163 831 c 0
 -163 794 -329 728 -343 728 c 0
 -350 728 -357 742 -357 748 c 0
EndSplineSet
EndChar

StartChar: uni0302.cap
Encoding: 65538 -1 249
Width: 0
GlyphClass: 4
Flags: W
HStem: 728 140
VStem: -384 260
LayerCount: 2
Fore
SplineSet
-134 728 m 1
 -146 731 -223 768 -254 788 c 1
 -285 768 -359 732 -374 728 c 1
 -378 730 -384 737 -384 745 c 1
 -376 751 -355 770 -312 810 c 0
 -287.1484375 833.1171875 -274.814453125 848.623046875 -267 858 c 0
 -262 864 -258 868 -254 868 c 0
 -250 868 -246 863 -241 858 c 0
 -229 845 -219.22265625 833.774414062 -199 814 c 0
 -154 770 -132 751 -124 745 c 1
 -124 737 -128 730 -134 728 c 1
EndSplineSet
EndChar

StartChar: uni030A.cap
Encoding: 65539 -1 250
Width: 0
GlyphClass: 4
Flags: W
HStem: 728 45<-297.655 -212.441> 881 44<-297.655 -212.441>
VStem: -354 46<783.644 870.26> -202 45<783.644 870.26>
LayerCount: 2
Fore
SplineSet
-308 827 m 0
 -308 797 -285 773 -255 773 c 0
 -225 773 -202 797 -202 827 c 0
 -202 857 -225 881 -255 881 c 0
 -285 881 -308 857 -308 827 c 0
-354 827 m 0
 -354 881 -309 925 -255 925 c 0
 -201 925 -157 881 -157 827 c 0
 -157 773 -201 728 -255 728 c 0
 -309 728 -354 773 -354 827 c 0
EndSplineSet
EndChar

StartChar: uni030A
Encoding: 778 778 251
Width: 0
GlyphClass: 4
Flags: W
HStem: 497 45<-298.071 -212.857> 650 44<-298.071 -212.857>
VStem: -355 46<553.025 638.879> -203 45<551.202 640.692>
LayerCount: 2
Fore
SplineSet
-309 596 m 0
 -309 566 -285 542 -255 542 c 0
 -225 542 -203 566 -203 596 c 0
 -203 626 -225 650 -255 650 c 0
 -285 650 -309 626 -309 596 c 0
-355 596 m 0
 -355 650 -309 694 -255 694 c 0
 -201 694 -158 650 -158 596 c 0
 -158 542 -201 497 -255 497 c 0
 -309 497 -355 542 -355 596 c 0
EndSplineSet
EndChar

StartChar: tildecomb.cap
Encoding: 65540 -1 252
Width: 0
GlyphClass: 4
Flags: W
HStem: 728 60<-212.677 -99.7599> 790 59<-386.928 -275.035>
LayerCount: 2
Fore
SplineSet
-321 849 m 0
 -284 849 -258 835 -231 820 c 0
 -202 804 -169 788 -148 788 c 0
 -94 788 -71 834 -61 839 c 1
 -56 839 -53 830 -53 825 c 0
 -53 808 -63 789 -72 777 c 0
 -97 746 -129 728 -165 728 c 0
 -202 728 -228 742 -255 757 c 0
 -284 773 -311 790 -338 790 c 0
 -392 790 -415 743 -425 738 c 1
 -430 738 -433 748 -433 753 c 0
 -433 770 -423 789 -414 801 c 0
 -389 832 -357 849 -321 849 c 0
EndSplineSet
EndChar

StartChar: uni0304.cap
Encoding: 65541 -1 253
Width: 0
GlyphClass: 4
Flags: W
HStem: 728 48<-407.486 -102.947>
VStem: -409 308<728.009 776>
LayerCount: 2
Fore
SplineSet
-409 739 m 0
 -409 764 -397 776 -394 776 c 2
 -107 776 l 2
 -105 776 -101 774 -101 766 c 0
 -101 740 -115 728 -115 728 c 1
 -403 728 l 1
 -403 728 -409 727 -409 739 c 0
EndSplineSet
EndChar

StartChar: uni0306.cap
Encoding: 65542 -1 254
Width: 0
GlyphClass: 4
Flags: W
HStem: 728 54<-317.557 -190.972>
VStem: -365 220<805 814>
LayerCount: 2
Fore
SplineSet
-168 827 m 1
 -162 825 -145 814 -145 807 c 0
 -145 804 -146 802 -147 800 c 0
 -175 753 -215 728 -255 728 c 0
 -295 728 -335 753 -363 800 c 0
 -364 802 -365 805 -365 807 c 0
 -365 814 -348 825 -342 827 c 1
 -327 808 -294 782 -255 782 c 0
 -213 782 -182 804 -168 827 c 1
EndSplineSet
EndChar

StartChar: uni0306
Encoding: 774 774 255
Width: 0
GlyphClass: 4
Flags: W
HStem: 497 55<-313.565 -199.498>
VStem: -372 19<602.811 609.625> -167 21<600.168 608.748>
LayerCount: 2
Fore
SplineSet
-167 618 m 1
 -160 618 -146 603 -146 596 c 3
 -146 594 -146 591 -147 589 c 0
 -162 536 -201 497 -255 497 c 0
 -309 497 -356 536 -371 589 c 0
 -372 591 -372 594 -372 596 c 3
 -372 603 -360 618 -353 618 c 1
 -345 597 -302 552 -255 552 c 0
 -205 552 -176 597 -167 618 c 1
EndSplineSet
EndChar

StartChar: uni0327.cap
Encoding: 65543 -1 256
Width: 1044
GlyphClass: 4
Flags: W
HStem: -167 30<174.41 263.29> -70 68<220.155 249.807>
VStem: 270 58<-132.846 -70.5135>
LayerCount: 2
Fore
SplineSet
250 -27 m 1
 259 -26 264 -25 274 -25 c 27
 303 -25 328 -49 328 -77 c 0
 328 -127 289 -167 224 -167 c 0
 200 -167 180 -158 172 -150 c 1
 170 -147 168 -133 168 -129 c 0
 168 -123 169 -121 171 -121 c 1
 175 -123 199 -137 222 -137 c 0
 258 -137 270 -120 270 -105 c 0
 270 -90 265 -70 242 -70 c 0
 236 -70 225 -73 214 -77 c 1
 211 -77 200 -67 200 -61 c 1
 210 -45 224 -18 230 -2 c 1
 264 -2 l 1
 264 -2 255 -17 250 -27 c 1
EndSplineSet
EndChar

StartChar: uni0327
Encoding: 807 807 257
Width: 0
GlyphClass: 4
Flags: W
HStem: -156 32<-317.208 -230.437> -73 71<-277.351 -248.435> -67 40<-253 -227.268>
VStem: -226 51<-121.755 -67.099>
LayerCount: 2
Fore
SplineSet
-248 -28 m 1xd0
 -248 -28 -236 -27 -229 -27 c 27
 -200 -27 -175 -52 -175 -78 c 0
 -175 -125 -211 -156 -272 -156 c 0
 -294 -156 -313 -147 -320 -140 c 1
 -321 -137 -322 -127 -322 -123 c 0
 -322 -116 -318 -109 -315 -109 c 0
 -310 -109 -287 -124 -265 -124 c 0
 -237 -124 -226 -109 -226 -95 c 0
 -226 -81 -233 -67 -250 -67 c 0xb0
 -256 -67 -270 -69 -280 -73 c 0
 -282 -73 -296 -61 -294 -57 c 0
 -285 -42 -274 -16 -266 -2 c 1
 -234 -2 l 1
 -248 -28 l 1xd0
EndSplineSet
EndChar

StartChar: uni0323.cap
Encoding: 65545 -1 259
Width: 316
GlyphClass: 4
Flags: W
HStem: -180 148<102.625 207.375>
VStem: 81 148<-158.375 -53.625>
LayerCount: 2
Fore
SplineSet
81 -106 m 0
 81 -65 114 -32 155 -32 c 0
 196 -32 229 -65 229 -106 c 0
 229 -147 196 -180 155 -180 c 0
 114 -180 81 -147 81 -106 c 0
EndSplineSet
EndChar

StartChar: uni0305
Encoding: 773 773 261
Width: 563
GlyphClass: 4
Flags: W
HStem: 734 72<-11.7805 577.903>
LayerCount: 2
Fore
SplineSet
-16 744 m 0
 -16 746 -13 806 -2 806 c 2
 580 806 l 2
 582 806 586 805 586 797 c 0
 586 779 579 745 578 741 c 0
 576 735 570 734 570 734 c 1
 -10 734 l 1
 -10 734 -16 734 -16 744 c 0
EndSplineSet
EndChar

StartChar: uni0308.cap
Encoding: 65549 -1 264
Width: 406
GlyphClass: 4
Flags: W
HStem: 717 135<39.0563 139.491 244.509 345.491>
VStem: 22 135<734.509 834.944> 227 136<734.509 834.944>
LayerCount: 2
Fore
SplineSet
227 785 m 0
 227 823 257 852 295 852 c 0
 333 852 363 823 363 785 c 0
 363 747 333 717 295 717 c 0
 257 717 227 747 227 785 c 0
22 785 m 0
 22 823 51 852 89 852 c 0
 127 852 157 823 157 785 c 0
 157 747 127 717 89 717 c 0
 51 717 22 747 22 785 c 0
EndSplineSet
EndChar

StartChar: uni0308
Encoding: 776 776 265
Width: 0
GlyphClass: 4
Flags: W
HStem: 498 139<-389.431 -289.092 -200.908 -100.569>
VStem: -409 139<517.569 617.908> -220 139<517.569 617.908>
LayerCount: 2
Fore
SplineSet
-151 637 m 0
 -113 637 -81 606 -81 568 c 0
 -81 530 -113 498 -151 498 c 0
 -189 498 -220 530 -220 568 c 0
 -220 606 -189 637 -151 637 c 0
-339 637 m 0
 -301 637 -270 606 -270 568 c 0
 -270 530 -301 498 -339 498 c 0
 -377 498 -409 530 -409 568 c 0
 -409 606 -377 637 -339 637 c 0
EndSplineSet
EndChar

StartChar: uni0308.narrow
Encoding: 65550 -1 266
Width: 391
GlyphClass: 4
Flags: W
HStem: 542 139<49.5687 150.431 251.092 351.431>
VStem: 30 140<561.569 661.908> 232 139<561.569 661.908>
LayerCount: 2
Fore
SplineSet
301 681 m 0
 339 681 371 650 371 612 c 0
 371 574 339 542 301 542 c 0
 263 542 232 574 232 612 c 0
 232 650 263 681 301 681 c 0
100 681 m 0
 138 681 170 650 170 612 c 0
 170 574 138 542 100 542 c 0
 62 542 30 574 30 612 c 0
 30 650 62 681 100 681 c 0
EndSplineSet
EndChar

StartChar: uni0307
Encoding: 775 775 267
Width: 0
GlyphClass: 4
Flags: W
HStem: 497 136<-304.594 -205.406>
VStem: -322 134<514.86 615.14>
LayerCount: 2
Fore
SplineSet
-322 565 m 0
 -322 602 -292 633 -255 633 c 0
 -218 633 -188 602 -188 565 c 0
 -188 528 -218 497 -255 497 c 0
 -292 497 -322 528 -322 565 c 0
EndSplineSet
EndChar

StartChar: hookabovecomb
Encoding: 777 777 268
Width: 0
GlyphClass: 4
Flags: W
HStem: 636 38<-274.634 -221.766>
VStem: -339 61<580.057 634.21> -301 48<499.696 536.177> -220 54<571.328 635.43>
LayerCount: 2
Fore
SplineSet
-235 674 m 0xd0
 -195 674 -166 649 -166 616 c 0
 -166 579 -190 553 -217 542 c 0
 -238 533 -253 528 -253 515 c 3
 -253 513 -253 510 -252 507 c 1
 -252 504 -277 498 -291 498 c 1
 -296 501 -301 512 -301 515 c 3xb0
 -301 543 -273 556 -256 564 c 0
 -233 574 -220 587 -220 606 c 0
 -220 618 -224 636 -245 636 c 0
 -268 636 -278 619 -278 600 c 0
 -278 583 -303 578 -317 578 c 0
 -325 578 -339 583 -339 595 c 0
 -339 646 -285 674 -235 674 c 0xd0
EndSplineSet
EndChar

StartChar: uni030C
Encoding: 780 780 270
Width: 0
GlyphClass: 4
Flags: W
HStem: 498 168
VStem: -373 236
LayerCount: 2
Fore
SplineSet
-255 592 m 1
 -227 616 -157 666 -146 666 c 0
 -140 666 -137 653 -137 643 c 1
 -144 636 -165 614 -206 560 c 0
 -224 537 -232 523 -243 508 c 0
 -248 502 -249 498 -255 498 c 27
 -261 498 -264 501 -268 508 c 0
 -276 521 -285 536 -307 565 c 0
 -349 619 -366 636 -373 643 c 1
 -373 653 -370 666 -364 666 c 0
 -353 666 -283 616 -255 592 c 1
EndSplineSet
EndChar

StartChar: uni030C.cap
Encoding: 65551 -1 271
Width: 349
GlyphClass: 4
Flags: W
HStem: 702 141
VStem: 46 260
LayerCount: 2
Fore
SplineSet
176 781 m 1
 207 801 284 843 296 843 c 0
 303 843 306 832 306 824 c 1
 298 818 276 800 230 754 c 0
 210 734 202 724 190 711 c 0
 185 706 179 702 175 702 c 0
 171 702 167 705 162 711 c 0
 153 722 143 734 119 758 c 0
 73 803 54 818 46 824 c 1
 46 832 49 843 56 843 c 0
 68 843 145 801 176 781 c 1
EndSplineSet
EndChar

StartChar: uni0312
Encoding: 786 786 272
Width: 0
GlyphClass: 4
Flags: W
HStem: 659 14<-178.534 -169.799>
VStem: -309 79<539 603.536>
LayerCount: 2
Fore
SplineSet
-256 498 m 0
 -271 498 -286 502 -296 507 c 1
 -303 516 -309 532 -309 546 c 0
 -309 602 -248 652 -184 673 c 1
 -174 671 -165 663 -165 659 c 1
 -182 652 -230 625 -230 596 c 0
 -230 576 -186 579 -186 540 c 0
 -186 531 -200 498 -256 498 c 0
EndSplineSet
EndChar

StartChar: uni0326
Encoding: 806 806 273
Width: 0
GlyphClass: 4
Flags: W
HStem: -218 14<-340.201 -331.466>
VStem: -280 79<-148.536 -84>
LayerCount: 2
Fore
SplineSet
-254 -43 m 0
 -239 -43 -224 -47 -214 -52 c 1
 -207 -61 -201 -77 -201 -91 c 0
 -201 -147 -262 -197 -326 -218 c 1
 -336 -216 -345 -208 -345 -204 c 1
 -328 -197 -280 -170 -280 -141 c 0
 -280 -121 -324 -124 -324 -85 c 0
 -324 -76 -310 -43 -254 -43 c 0
EndSplineSet
EndChar

StartChar: uni0315
Encoding: 789 789 274
Width: 0
GlyphClass: 4
Flags: W
HStem: 496 241
VStem: -275 79<589.648 685.5>
LayerCount: 2
Fore
SplineSet
-245 737 m 0
 -235 737 -223 733 -215 730 c 1
 -207 719 -196 704 -196 667 c 0
 -196 611 -238 546 -292 496 c 1
 -300 496 -317 503 -317 509 c 1
 -293 535 -275 566 -275 600 c 0
 -275 653 -313 651 -313 689 c 0
 -313 709 -287 737 -245 737 c 0
EndSplineSet
EndChar

StartChar: dotbelowcomb
Encoding: 803 803 275
Width: 0
GlyphClass: 4
Flags: W
HStem: -192 148<-306.375 -201.625>
VStem: -328 148<-170.375 -65.625>
LayerCount: 2
Fore
SplineSet
-328 -118 m 0
 -328 -77 -295 -44 -254 -44 c 0
 -213 -44 -180 -77 -180 -118 c 0
 -180 -159 -213 -192 -254 -192 c 0
 -295 -192 -328 -159 -328 -118 c 0
EndSplineSet
EndChar

StartChar: uni0237
Encoding: 567 567 378
Width: 286
Flags: W
HStem: -218 24<-10.4946 4.55321> 362 31<15.0323 75.1875> 426 20G<194 216.5>
VStem: 89 130<-43.1268 351.93>
LayerCount: 2
Fore
SplineSet
89 64 m 2
 89 260 l 2
 89 270 88 327 80 342 c 0
 72 357 24 362 17 362 c 1
 14 364 13 393 18 393 c 1
 94 399 175 427 213 446 c 1
 220 444 230 432 230 429 c 1
 227 421 221 386 220 372 c 0
 219 350 219 315 219 309 c 2
 219 120 l 2
 219 36 208 -48 171 -102 c 0
 124 -170 36 -218 2 -218 c 1
 -5 -214 -12 -207 -12 -201 c 0
 -12 -199 -12 -195 -11 -194 c 0
 -7 -192 89 -142 89 64 c 2
EndSplineSet
EndChar

StartChar: Aogonek
Encoding: 260 260 380
Width: 671
Flags: W
HStem: -218 70<474.681 557.043> -4 37<143.663 210.043 391.618 452.515 614.004 675.724> 4 29<150.881 206.545> 225 48<210.181 378.18> 642 20G<338.681 348.681>
VStem: 417.181 74<-166.968 -80.5667>
LayerCount: 2
Fore
SplineSet
299.181 225 m 0xdc
 258.181 225 230.181 225 195.181 224 c 0
 192.181 224 189.181 221 188.181 219 c 2
 188.181 219 163.181 163 152.181 135 c 0
 142.181 110 130.181 76 130.181 69 c 0
 130.181 43 199.181 33 207.181 33 c 1
 213.181 26 211.181 0 208.181 -4 c 1xdc
 173.181 0 144.181 4 100.181 4 c 0xbc
 54.1807 4 26.1807 0 -8.81934 -4 c 1
 -12.8193 0 -14.8193 21 -10.8193 32 c 1
 1.18066 32 49.1807 48 59.1807 64 c 0
 76.1807 92 82.1807 106 94.1807 134 c 2
 307.181 624 l 2
 313.181 637 333.181 662 344.181 662 c 0
 353.181 662 359.181 658 361.181 655 c 2
 566.181 148 l 2
 579.181 117 585.181 97 594.181 76 c 0
 611.181 35 665.181 33 673.181 33 c 1
 678.181 24 679.181 0 675.181 -4 c 1xdc
 649.181 -3 622.181 0 593.181 2 c 1
 549.181 -24 491.181 -57 491.181 -101 c 0
 491.181 -122 503.181 -148 540.181 -148 c 0
 568.181 -148 605.181 -117 615.181 -109 c 1
 618.181 -109 621.181 -112 621.181 -120 c 0
 621.181 -125 617.181 -141 614.181 -145 c 0
 599.181 -164 547.181 -218 491.181 -218 c 0
 458.181 -218 417.181 -192 417.181 -140 c 0
 417.181 -84 490.181 -14 550.181 4 c 1
 548.181 4 547.181 4 545.181 4 c 0xbc
 499.181 4 430.181 -2 394.181 -4 c 1
 389.181 1 389.181 33 394.181 33 c 0
 411.181 33 439.181 39 453.181 51 c 0
 459.181 56 462.181 61 462.181 68 c 0
 462.181 77 402.181 220 402.181 220 c 1
 402.181 220 398.181 224 395.181 224 c 0
 357.181 226 324.181 225 299.181 225 c 0xdc
295.181 273 m 0
 326.181 273 344.181 273 375.181 275 c 0
 377.181 275 378.181 280 378.181 280 c 1
 295.181 476 l 1
 210.181 280 l 1
 210.181 280 210.181 276 212.181 276 c 0
 232.181 274 272.181 273 295.181 273 c 0
EndSplineSet
EndChar

StartChar: aogonek
Encoding: 261 261 381
Width: 472
Flags: W
HStem: -218 70<267.5 349.862> -8 70<124 239.5> 411 38<174.394 289.5>
VStem: 31 135<78.1133 172.955> 43 108<292.124 371.344> 210 74<-166.968 -82.6311> 268 130<68.207 223 256.029 377.779>
LayerCount: 2
Fore
SplineSet
454 46 m 1xea
 448 41 428 24 406 11 c 0
 371 -10 284 -57 284 -101 c 0
 284 -122 296 -148 333 -148 c 0
 361 -148 398 -117 408 -109 c 1
 411 -109 414 -112 414 -120 c 0
 414 -125 410 -141 407 -145 c 0
 392 -164 340 -218 284 -218 c 0
 251 -218 210 -192 210 -140 c 0
 210 -84 280 -26 326 0 c 1
 308 4 281 28 275 44 c 1
 266 36 198 -8 162 -8 c 0
 86 -8 31 55 31 114 c 0xf4
 31 153 57 186 83 194 c 0
 121 206 217 245 268 264 c 1
 268 271 268 278 268 285 c 2
 268 311 l 2
 268 361 244 411 209 411 c 0
 171 411 161 372 151 327 c 0
 146 304 130 283 95 283 c 0
 68 283 43 303 43 331 c 0
 43 344 49 358 57 372 c 1
 70 385 160 449 248 449 c 0
 331 449 398 386 398 296 c 2
 398 109 l 2
 398 82 409 68 422 68 c 0
 436 68 447 76 451 78 c 1
 455 76 458 67 458 61 c 0
 458 54 457 51 454 46 c 1xea
227 62 m 0
 252 62 268 77 268 83 c 2
 268 223 l 1xf2
 248 213 222 204 202 191 c 0
 174 173 165 146 166 124 c 0
 167 81 201 62 227 62 c 0
EndSplineSet
Substitution2: "'smcp' Lowercase to Small Capitals in Latin lookup 0 subtable" aogonek.sc
EndChar

StartChar: dcroat
Encoding: 273 273 382
Width: 544
Flags: W
HStem: -8 64<165 294.956> 28 32<478.435 525.823> 395 51<210.607 324.309> 527 37<193.337 525.828> 624 32<269.328 326.529> 675 20<463.5 468>
VStem: 32 142<121.851 297.682> 339 130<70.4709 378.4 444.011 614.125>
LayerCount: 2
Fore
SplineSet
524 527 m 1x3f
 495 527 209 527 195 527 c 1
 191 527 190 555 196 564 c 1
 225 564 510 564 524 564 c 1
 528 564 528 536 524 527 c 1x3f
EndSplineSet
Refer: 68 100 N 1 0 0 1 0 0 2
Substitution2: "'smcp' Lowercase to Small Capitals in Latin lookup 0 subtable" dcroat.sc
EndChar

StartChar: Eogonek
Encoding: 280 280 383
Width: 602
Flags: W
HStem: -218 70<386.886 469.248> -3 37<36.1062 102.755> -2 44<257.659 455.599> 310 47<250.386 397.813> 620 37<37.0322 104.118 253.389 443.827>
VStem: 110.386 140<50.3979 306.897 358.474 616.164> 329.386 74<-166.968 -82.9124> 434.386 31<386.617 434.825>
LayerCount: 2
Fore
SplineSet
181.386 657 m 0xdf
 223.386 657 447.386 663 506.386 664 c 1
 513.386 614 526.386 561 535.386 516 c 1
 532.386 513 519.386 511 512.386 511 c 0
 505.386 511 498.386 514 496.386 519 c 0
 475.386 574 449.386 620 388.386 620 c 2
 305.386 620 l 2
 282.386 620 260.386 619 255.386 608 c 0
 250.386 596 250.386 576 250.386 547 c 2
 250.386 368 l 2
 250.386 362 271.386 357 293.386 357 c 2
 346.386 357 l 2
 405.386 357 418.386 369 434.386 427 c 0
 435.386 432 439.386 435 446.386 435 c 0
 453.386 435 462.386 433 465.386 430 c 1
 465.386 238 l 1
 463.386 236 454.386 234 447.386 234 c 0
 440.386 234 434.386 237 433.386 242 c 0
 421.386 290 407.386 299 398.386 303 c 0
 386.386 308 360.386 310 322.386 310 c 0
 294.386 310 250.386 308 250.386 296 c 2
 250.386 141 l 2
 250.386 135 250.386 82 258.386 62 c 0
 264.386 48 297.386 42 323.386 42 c 2
 389.386 42 l 2
 427.386 42 459.386 52 482.386 75 c 0
 503.386 96 519.386 125 536.386 170 c 0
 537.386 174 543.386 176 550.386 176 c 0
 560.386 176 577.386 173 580.386 170 c 1
 561.386 116 533.386 42 526.386 -2 c 1
 478.386 -15 403.386 -57 403.386 -101 c 0
 403.386 -122 415.386 -148 452.386 -148 c 0
 480.386 -148 517.386 -117 527.386 -109 c 1
 530.386 -109 533.386 -112 533.386 -120 c 0
 533.386 -125 529.386 -141 526.386 -145 c 0
 511.386 -164 459.386 -218 403.386 -218 c 0
 370.386 -218 329.386 -192 329.386 -140 c 0
 329.386 -86 397.386 -23 456.386 -2 c 1xbf
 380.425 -2 259.732 -2 167 -2.2041 c 0
 102.25 -2.34668 51.1309 -2.58887 38.3857 -3 c 1
 34.3857 3 33.3857 27 38.3857 34 c 1
 51.3857 35 97.3857 38 102.386 51 c 0
 110.386 71 110.386 102 110.386 145 c 2
 110.386 513 l 2
 110.386 556 110.386 587 102.386 607 c 0
 97.3857 620 51.3857 622 38.3857 623 c 1
 33.3857 630 34.3857 654 38.3857 660 c 1
 83.3857 657 139.386 657 181.386 657 c 0xdf
EndSplineSet
EndChar

StartChar: eogonek
Encoding: 281 281 384
Width: 460
Flags: W
HStem: -218 70<267.5 349.862> -9 84<230.39 322.585> 242 40<163 290.823> 406 41<200.95 283.103>
VStem: 32 130<147.948 242 282 297.174> 210 74<-166.968 -62.2605> 305 124<289.978 370.347>
LayerCount: 2
Fore
SplineSet
373 37 m 0
 301 -19 284 -57 284 -101 c 0
 284 -122 296 -148 333 -148 c 0
 361 -148 398 -117 408 -109 c 1
 411 -109 414 -112 414 -120 c 0
 414 -125 410 -141 407 -145 c 0
 392 -164 340 -218 284 -218 c 0
 251 -218 210 -192 210 -140 c 0
 210 -84 247 -32 277 -6 c 1
 266 -8 254 -9 242 -9 c 0
 130 -9 32 69 32 200 c 0
 32 326 139 447 254 447 c 0
 385 447 429 354 429 296 c 0
 429 274 417 255 402 254 c 0
 334 248 236 244 162 242 c 1
 162 102 257 75 302 75 c 0
 360 75 393 102 414 125 c 1
 421 123 426 113 426 107 c 0
 426 100 425 91 423 88 c 0
 415 76 398 56 373 37 c 0
163 282 m 1
 172 281 268 287 292 290 c 0
 304 291 305 300 305 306 c 0
 305 352 289 406 244 406 c 0
 185 406 163 316 163 282 c 1
EndSplineSet
Substitution2: "'smcp' Lowercase to Small Capitals in Latin lookup 0 subtable" eogonek.sc
EndChar

StartChar: Hbar
Encoding: 294 294 385
Width: 741
Flags: W
HStem: -4 37<36.1054 102.384 258.387 324.665 417.106 483.384 639.387 705.665> 317 51<251.53 491.385> 489 46<37.2188 690.225> 625 37<36.1054 102.384 258.387 324.665 417.106 483.384 639.387 705.665>
VStem: 110.385 140<41.2661 312.952 368.001 616.734> 491.385 140<41.2661 314.998 368.001 616.734>
LayerCount: 2
Fore
SplineSet
685 535 m 2
 689 535 691 526 691 521 c 0
 691 515 689 498 685 489 c 1
 42 489 l 2
 38 489 37 499 37 504 c 0
 37 510 37 526 43 535 c 1
 685 535 l 2
EndSplineSet
Refer: 40 72 N 1 0 0 1 -0.000778198 0 2
EndChar

StartChar: hbar
Encoding: 295 295 386
Width: 583
Flags: W
HStem: -4 37<14.1054 80.3834 226.387 285.665 311.106 365.384 511.387 577.665> 365 1<219.385 306.385> 527 37<31.4377 367.349> 624 32<18.713 75.9137> 675 20<212.885 217.385>
VStem: 88.3849 130<41.2661 338.951 366.048 615.244> 373.385 130<41.2661 334.749>
LayerCount: 2
Fore
SplineSet
36 564 m 1
 65 564 350 564 364 564 c 1
 365.373 564 368 561 368 556 c 0
 368 546.975 366 533 364 527 c 1
 335 527 49 527 35 527 c 1
 33.5303 527 31 531 31 536 c 0
 31 545.037 32.2031 558.305 36 564 c 1
EndSplineSet
Refer: 72 104 N 1 0 0 1 -0.000778198 0 2
Substitution2: "'smcp' Lowercase to Small Capitals in Latin lookup 0 subtable" hbar.sc
EndChar

StartChar: Iogonek
Encoding: 302 302 387
Width: 360
Flags: W
HStem: -218 70<129.886 212.248> -4 37<36.1062 102.384 258.388 324.665> 625 37<36.1062 102.384 258.388 324.665>
VStem: 72.3857 74.0003<-166.968 -80.4249> 110.386 140<41.2661 616.734>
LayerCount: 2
Fore
SplineSet
181.386 655 m 0xe8
 223.386 655 283.386 658 322.386 662 c 1
 326.386 656 327.386 632 322.386 625 c 1
 309.386 624 263.386 620 258.386 607 c 0
 250.386 587 250.386 556 250.386 513 c 2
 250.386 145 l 2xe8
 250.386 102 250.386 71 258.386 51 c 0
 263.386 38 309.386 34 322.386 33 c 1
 327.386 26 326.386 2 322.386 -4 c 1
 301.386 -2 274.386 0 246.386 1 c 1
 203.386 -25 146.386 -58 146.386 -101 c 0
 146.386 -122 158.386 -148 195.386 -148 c 0
 223.386 -148 260.386 -117 270.386 -109 c 1
 273.386 -109 276.386 -112 276.386 -120 c 0
 276.386 -125 272.386 -141 269.386 -145 c 0
 254.386 -164 202.386 -218 146.386 -218 c 0
 113.386 -218 72.3857 -192 72.3857 -140 c 0xf0
 72.3857 -85 142.386 -17 201.386 3 c 1
 193.386 3 186.386 3 179.386 3 c 0
 137.386 3 77.3857 0 38.3857 -4 c 1
 34.3857 2 33.3857 26 38.3857 33 c 1
 51.3857 34 97.3857 38 102.386 51 c 0
 110.386 71 110.386 102 110.386 145 c 2
 110.386 513 l 2
 110.386 556 110.386 587 102.386 607 c 0
 97.3857 620 51.3857 624 38.3857 625 c 1
 33.3857 632 34.3857 656 38.3857 662 c 1
 77.3857 658 139.386 655 181.386 655 c 0xe8
EndSplineSet
EndChar

StartChar: iogonek
Encoding: 303 303 388
Width: 315
Flags: W
HStem: -218 70<119.886 202.248> -4 37<27.1062 93.3842 239.388 298.665> 362 31<27.418 87.5734> 426 20G<206.386 228.886> 544 144<104.182 209.113>
VStem: 62.3857 74.0003<-166.968 -81.3577> 84.3857 145<565 667> 101.386 130<41.2661 351.93>
LayerCount: 2
Fore
SplineSet
84.3857 616 m 0xfa
 84.3857 656 116.386 688 156.386 688 c 0
 196.386 688 229.386 656 229.386 616 c 0
 229.386 576 196.386 544 156.386 544 c 0
 116.386 544 84.3857 576 84.3857 616 c 0xfa
231.386 309 m 2xf9
 231.386 145 l 2xf9
 231.386 108 231.386 71 239.386 51 c 0
 244.386 38 283.386 34 296.386 33 c 1
 301.386 26 300.386 2 296.386 -4 c 1
 277.386 -2 256.386 0 235.386 1 c 1
 192.386 -25 136.386 -58 136.386 -101 c 0
 136.386 -122 148.386 -148 185.386 -148 c 0
 213.386 -148 250.386 -117 260.386 -109 c 1
 263.386 -109 266.386 -112 266.386 -120 c 0
 266.386 -125 262.386 -141 259.386 -145 c 0
 244.386 -164 192.386 -218 136.386 -218 c 0
 103.386 -218 62.3857 -192 62.3857 -140 c 0xfc
 62.3857 -85 134.386 -17 191.386 3 c 1
 183.386 3 174.386 3 166.386 3 c 0
 124.386 3 68.3857 0 29.3857 -4 c 1
 25.3857 2 24.3857 26 29.3857 33 c 1
 42.3857 34 88.3857 38 93.3857 51 c 0
 101.386 71 101.386 102 101.386 145 c 2
 101.386 260 l 2
 101.386 270 100.386 327 92.3857 342 c 0
 84.3857 357 36.3857 362 29.3857 362 c 1
 26.3857 364 25.3857 393 30.3857 393 c 0
 106.386 399 187.386 427 225.386 446 c 1
 232.386 444 242.386 432 242.386 429 c 1
 239.386 421 233.386 386 232.386 372 c 0
 231.386 350 231.386 315 231.386 309 c 2xf9
EndSplineSet
Substitution2: "'smcp' Lowercase to Small Capitals in Latin lookup 0 subtable" iogonek.sc
EndChar

StartChar: kgreenlandic
Encoding: 312 312 391
Width: 603
Flags: W
HStem: -6 42<27.6239 94.5003 238.272 305.148 526.912 599.613> 362 31<27.418 87.5734> 405 35<328.309 390.863 498.066 574.78> 426 20G<206.386 228.886>
VStem: 101.386 130<41.2661 201 236 351.93>
LayerCount: 2
Fore
SplineSet
231.386 236 m 1xd8
 248.386 242 270.386 257 305.386 287 c 0
 375.386 347 393.386 368 393.386 383 c 0
 393.386 395 347.386 404 329.386 405 c 1
 326.386 414 326.386 437 331.386 439 c 1
 331.386 439 420.386 435 462.386 435 c 0
 498.386 435 528.386 438 573.386 440 c 1
 579.386 430 576.386 408 570.386 405 c 1xe8
 539.386 402 497.386 392 471.386 374 c 0
 450.386 359 400.386 310 339.386 256 c 1
 410.386 173 425.386 161 481.386 98 c 0
 536.386 37 568.386 36 600.386 36 c 1
 606.386 25 601.386 8 600.386 6 c 1
 584.386 0 537.386 -6 499.386 -6 c 0
 441.386 -6 392.386 18 362.386 53 c 2
 362.386 53 293.386 127 244.386 188 c 0
 240.386 194 231.386 201 231.386 201 c 1
 231.386 145 l 2
 231.386 102 231.386 71 239.386 51 c 0
 244.386 38 290.386 34 303.386 33 c 1
 308.386 26 307.386 2 303.386 -4 c 1
 264.386 0 208.386 3 166.386 3 c 0
 124.386 3 68.3857 0 29.3857 -4 c 1
 25.3857 2 24.3857 26 29.3857 33 c 1
 42.3857 34 88.3857 38 93.3857 51 c 0
 101.386 71 101.386 102 101.386 145 c 2
 101.386 260 l 2
 101.386 270 100.386 327 92.3857 342 c 0
 84.3857 357 36.3857 362 29.3857 362 c 1
 26.3857 364 25.3857 393 30.3857 393 c 1
 106.386 399 187.386 427 225.386 446 c 1
 232.386 444 242.386 432 242.386 429 c 1
 239.386 421 233.386 386 232.386 372 c 0
 231.386 350 231.386 242 231.386 236 c 1xd8
EndSplineSet
Substitution2: "'smcp' Lowercase to Small Capitals in Latin lookup 0 subtable" kgreenlandic.sc
EndChar

StartChar: Lslash
Encoding: 321 321 392
Width: 584
Flags: W
HStem: -3 37<40.9728 107.622> -2.2793 44.2793<262.526 473.386> 625 37<40.9728 107.251 263.254 329.532>
VStem: 115.253 140<50.3979 616.734>
LayerCount: 2
Fore
SplineSet
39.8672 180 m 1x30
 33.8672 187 15.8672 207 20.8672 212 c 1
 372.867 456 l 1
 378.867 450 397.867 429 392.867 424 c 1
 39.8672 180 l 1x30
EndSplineSet
Refer: 44 76 N 1 0 0 1 4.86658 0 2
EndChar

StartChar: lslash
Encoding: 322 322 393
Width: 312
Flags: W
HStem: -4 37<15.1054 81.3834 227.387 293.665> 423 20G<274.542 306> 624 32<19.713 76.9137> 675 20<213.885 218.385>
VStem: 17 306 89.3849 130<41.2661 615.244>
LayerCount: 2
Fore
SplineSet
36 210 m 1xf8
 30 217 12 237 17 242 c 1
 303 443 l 1
 309 437 328 416 323 411 c 1
 36 210 l 1xf8
EndSplineSet
Refer: 76 108 N 1 0 0 1 0.999222 0 2
Substitution2: "'smcp' Lowercase to Small Capitals in Latin lookup 0 subtable" lslash.sc
EndChar

StartChar: Eng
Encoding: 330 330 394
Width: 759
Flags: W
HStem: -218 61<336.236 463.745> -4 37<30.0117 108.856 198.529 280.32> 632 30<36.181 90.8181 662.848 736.86> 633 37<489.011 567.856 657.529 739.32>
VStem: 123.736 61<47.3438 524> 582.736 61<243.338 618.656>
LayerCount: 2
Fore
SplineSet
643.736 139 m 2xec
 643.736 -89 527.736 -218 345.736 -218 c 3
 326.736 -218 297.736 -207 288.736 -200 c 1
 281.736 -189 272.736 -178 272.736 -157 c 3
 272.736 -123 300.736 -90 332.736 -90 c 3
 377.736 -90 405.736 -157 436.736 -157 c 3
 499.736 -157 551.736 -69 551.736 68 c 1
 184.736 524 l 1
 184.736 141 l 2
 184.736 105 184.736 74 189.736 60 c 0
 196.736 41 269.736 34 277.736 34 c 1
 283.736 24 281.736 2 279.736 -4 c 1
 239.736 -2 197.736 4 153.736 4 c 0
 107.736 4 77.7363 -2 31.7363 -4 c 1
 26.7363 5 29.7363 33 31.7363 33 c 1
 43.7363 33 108.736 41 116.736 59 c 0
 123.736 74 123.736 106 123.736 144 c 0
 123.736 275 123.736 406 123.736 537 c 0
 123.736 565 121.736 589 108.736 608 c 0
 101.736 619 51.7363 625 39.7363 625 c 0
 34.7363 625 32.7363 657 37.7363 662 c 1
 68.7363 660 104.736 655 150.736 655 c 0
 185.736 655 227.736 658 259.736 662 c 1xec
 297.736 584 455.736 404 580.736 243 c 1
 582.736 250 582.736 270 582.736 284 c 2
 582.736 522 l 0
 582.736 560 582.736 592 575.736 607 c 0
 567.736 625 502.736 633 490.736 633 c 1
 488.736 633 485.736 661 490.736 670 c 1xdc
 536.736 668 566.736 662 612.736 662 c 0xec
 656.736 662 698.736 668 738.736 670 c 1xdc
 740.736 664 742.736 642 736.736 632 c 1
 728.736 632 655.736 625 648.736 606 c 0
 643.736 592 643.736 561 643.736 525 c 2
 643.736 139 l 2xec
EndSplineSet
EndChar

StartChar: eng
Encoding: 331 331 395
Width: 579
Flags: W
HStem: -218 24<286.891 301.939> -4 37<27.1062 93.3842 239.388 298.665> 362 31<27.418 87.5734> 365 1<233.386 319.386> 426 20G<206.386 228.386>
VStem: 101.386 130<41.2661 338.951> 386.386 130<-43.1268 334.749>
LayerCount: 2
Fore
SplineSet
386.386 64 m 2xde
 386.386 224 l 2
 386.386 296 372.386 365 319.386 365 c 0xde
 279.386 365 231.386 329 231.386 309 c 2
 231.386 145 l 2
 231.386 108 231.386 71 239.386 51 c 0
 244.386 38 283.386 34 296.386 33 c 1
 301.386 26 300.386 2 296.386 -4 c 1
 257.386 0 208.386 3 166.386 3 c 0
 124.386 3 68.3857 0 29.3857 -4 c 1
 25.3857 2 24.3857 26 29.3857 33 c 1
 42.3857 34 88.3857 38 93.3857 51 c 0
 101.386 71 101.386 102 101.386 145 c 2
 101.386 260 l 2
 101.386 270 100.386 327 92.3857 342 c 0
 84.3857 357 36.3857 362 29.3857 362 c 1
 26.3857 364 25.3857 393 30.3857 393 c 1xee
 106.386 399 187.386 427 225.386 446 c 1
 231.386 446 242.386 434 242.386 429 c 1
 240.386 421 232.386 373 232.386 372 c 0
 232.386 369 232.386 367 233.386 366 c 1
 235.386 366 238.386 369 240.386 371 c 0
 268.386 403 334.386 446 380.386 446 c 0
 494.386 446 516.386 368 516.386 210 c 2
 516.386 120 l 2
 516.386 36 505.386 -48 468.386 -102 c 0
 421.386 -170 333.386 -218 299.386 -218 c 1
 292.386 -214 285.386 -207 285.386 -201 c 0
 285.386 -199 285.386 -195 286.386 -194 c 0
 290.386 -192 386.386 -142 386.386 64 c 2xde
EndSplineSet
Substitution2: "'smcp' Lowercase to Small Capitals in Latin lookup 0 subtable" eng.sc
EndChar

StartChar: OE
Encoding: 338 338 396
Width: 1015
Flags: W
HStem: -2.73633 44.7363<307.806 449.725 670.273 882.358> 310 47<663 810.427> 622 41<288.321 450.062 666.003 856.441>
VStem: 40 151<212.63 443.602> 523 140<68.4292 306.897 358.474 568.223> 847 31<386.617 434.825>
LayerCount: 2
Fore
SplineSet
594 657 m 0
 636 657 860 663 919 664 c 1
 926 614 939 561 948 516 c 1
 945 513 932 511 925 511 c 0
 918 511 911 514 909 519 c 0
 888 574 862 620 801 620 c 2
 718 620 l 0
 695 620 673 619 668 608 c 0
 663 596 663 576 663 547 c 2
 663 368 l 2
 663 362 684 357 706 357 c 2
 759 357 l 2
 818 357 831 369 847 427 c 0
 848 432 852 435 859 435 c 0
 866 435 875 433 878 430 c 1
 878 238 l 1
 876 236 867 234 860 234 c 0
 853 234 847 237 846 242 c 0
 834 290 820 299 811 303 c 0
 799 308 773 310 735 310 c 0
 707 310 663 308 663 296 c 2
 663 141 l 2
 663 135 663 82 671 62 c 0
 677 48 710 42 736 42 c 0
 802 42 l 2
 840 42 872 52 895 75 c 0
 916 96 932 125 949 170 c 0
 950 174 956 176 963 176 c 0
 973 176 990 173 993 170 c 1
 974 116 946 42 939 -2 c 1
 911.14 -2 723.12 -2.44043 588 -2.73633 c 0
 519.42 -2.88672 464.467 -3 451 -3 c 1
 429 -3 555 -3 379 -3 c 0
 203 -3 40 141 40 328 c 0
 40 515 201 663 377 663 c 0
 476 663 552 657 594 657 c 0
353 622 m 0
 235 622 191 484 191 363 c 3
 191 210 249 37 398 37 c 1
 431 37 483 46 502 69 c 0
 516 86 523 106 523 149 c 2
 523 481 l 2
 523 524 510 561 490 582 c 0
 472 601 431 622 353 622 c 0
EndSplineSet
EndChar

StartChar: oe
Encoding: 339 339 397
Width: 786
Flags: W
HStem: -9 84<554.978 659.626> -7 42<229.597 324.713> 242 40<489 616.823> 406 41<209.207 300.568 527.709 609.103>
VStem: 32 142<118.592 313.407> 358 130<145.531 240.697> 631 124<289.978 370.347>
LayerCount: 2
Fore
SplineSet
570 406 m 3x3e
 511 406 489 316 489 282 c 1
 498 281 594 287 618 290 c 0
 630 291 631 300 631 306 c 11
 631 352 615 406 570 406 c 3x3e
254 406 m 3
 181 406 174 310 174 237 c 27
 174 149 204 35 277 35 c 3x7e
 350 35 358 130 358 202 c 27
 358 291 327 406 254 406 c 3
628 75 m 0xbe
 686 75 719 102 740 125 c 1
 747 123 752 113 752 107 c 3
 752 100 751 91 749 88 c 0
 731 60 663 -9 568 -9 c 0xbe
 511 -9 458 12 419 49 c 1
 379 15 325 -7 267 -7 c 0x7e
 128 -7 32 91 32 217 c 0
 32 343 134 447 265 447 c 0
 335 447 394 423 436 382 c 1
 475 422 527 447 580 447 c 0
 711 447 755 354 755 296 c 0
 755 274 743 255 728 254 c 0
 660 248 562 244 488 242 c 1
 488 102 583 75 628 75 c 0xbe
EndSplineSet
Substitution2: "'smcp' Lowercase to Small Capitals in Latin lookup 0 subtable" oe.sc
EndChar

StartChar: Tbar
Encoding: 358 358 398
Width: 634
Flags: W
HStem: -4 37<172.721 238.998 395.002 461.279> 308 40<140.462 493.953> 613 44<102.634 247 387 531.366>
VStem: 8 39<482.931 537.849> 247 140<41.2661 613> 587 39<482.931 537.849>
CounterMasks: 1 1c
LayerCount: 2
Fore
SplineSet
492.125 308 m 1
 463.125 308 156.125 308 142.125 308 c 1
 138.125 308 137.125 339 143.125 348 c 1
 172.125 348 478.125 348 492.125 348 c 1
 496.125 348 496.125 317 492.125 308 c 1
EndSplineSet
Refer: 52 84 N 1 0 0 1 0 0 3
EndChar

StartChar: tbar
Encoding: 359 359 399
Width: 344
Flags: W
HStem: -7 64<181 277.975> 273 37<11.3369 328.828> 381 47<14.9586 82 212 328.039>
VStem: 82 130<68.9375 381 428 500.009>
LayerCount: 2
Fore
SplineSet
327 273 m 1
 298 273 27 273 13 273 c 1
 9 273 8 301 14 310 c 1
 43 310 313 310 327 310 c 1
 331 310 331 282 327 273 c 1
EndSplineSet
Refer: 84 116 N 1 0 0 1 0 0 2
Substitution2: "'smcp' Lowercase to Small Capitals in Latin lookup 0 subtable" tbar.sc
EndChar

StartChar: Uogonek
Encoding: 370 370 400
Width: 751
Flags: W
HStem: -218 70<420.886 503.248> -5 74<324.7 490.805> 625 37<21.1062 87.3842 243.388 309.665 508.107 585.384 663.388 742.665>
VStem: 95.3857 140<170.152 616.734> 363.386 74<-166.968 -71.1304> 593.386 62<158.366 615.567>
LayerCount: 2
Fore
SplineSet
466.386 4 m 1
 435.386 -4 408.386 -5 374.386 -5 c 0
 223.386 -5 95.3857 68 95.3857 301 c 2
 95.3857 513 l 2
 95.3857 556 95.3857 587 87.3857 607 c 0
 82.3857 620 36.3857 624 23.3857 625 c 1
 18.3857 632 19.3857 656 23.3857 662 c 1
 62.3857 658 124.386 655 166.386 655 c 0
 208.386 655 268.386 658 307.386 662 c 1
 311.386 656 312.386 632 307.386 625 c 1
 294.386 624 248.386 620 243.386 607 c 0
 235.386 587 235.386 556 235.386 513 c 2
 235.386 330 l 2
 235.386 262 237.386 212 260.386 159 c 0
 298.386 71 391.386 69 430.386 69 c 0
 524.386 69 593.386 122 593.386 286 c 2
 593.386 513 l 2
 593.386 556 593.386 587 585.386 607 c 0
 580.386 620 523.386 624 510.386 625 c 1
 505.386 632 506.386 656 510.386 662 c 1
 557.386 658 583.386 655 629.386 655 c 0
 673.386 655 699.386 660 740.386 662 c 1
 744.386 656 745.386 632 740.386 625 c 1
 727.386 624 668.386 620 663.386 607 c 0
 655.386 587 655.386 562 655.386 519 c 2
 655.386 318 l 2
 655.386 163 612.386 80 548.386 37 c 8
 491.386 -1 437.386 -57 437.386 -101 c 0
 437.386 -122 449.386 -148 486.386 -148 c 0
 514.386 -148 551.386 -117 561.386 -109 c 1
 564.386 -109 567.386 -112 567.386 -120 c 0
 567.386 -125 563.386 -141 560.386 -145 c 0
 545.386 -164 493.386 -218 437.386 -218 c 0
 404.386 -218 363.386 -192 363.386 -140 c 0
 363.386 -84 407.386 -30 466.386 4 c 1
EndSplineSet
EndChar

StartChar: uogonek
Encoding: 371 371 401
Width: 566
Flags: W
HStem: -218 70<394 476.362> -5 61<163 313.955> 28 32<494.935 542.323> 362 31<9.53235 69.6875 281.532 341.688> 426 20G<188.5 211 460.5 483>
VStem: 83.5 130<87.0607 351.93> 336.5 74<-166.968 -69.8256> 355.5 130<70.4709 351.93>
LayerCount: 2
Fore
SplineSet
211.5 -5 m 0xdd
 114.5 -5 83.5 80 83.5 174 c 2
 83.5 260 l 2
 83.5 270 82.5 327 74.5 342 c 0
 66.5 357 18.5 362 11.5 362 c 1
 8.5 364 7.5 393 12.5 393 c 0
 88.5 399 169.5 427 207.5 446 c 1
 214.5 444 224.5 432 224.5 429 c 1
 221.5 421 215.5 386 214.5 372 c 0
 213.5 350 213.5 315 213.5 309 c 2
 213.5 219 l 2
 213.5 113 229.5 56 291.5 56 c 0
 319.5 56 355.5 78 355.5 93 c 2
 355.5 260 l 2
 355.5 270 354.5 327 346.5 342 c 0
 338.5 357 290.5 362 283.5 362 c 1
 280.5 364 279.5 393 284.5 393 c 0
 360.5 399 441.5 427 479.5 446 c 1
 486.5 444 496.5 432 496.5 429 c 1
 493.5 421 487.5 386 486.5 372 c 0
 485.5 350 485.5 315 485.5 309 c 2
 485.5 108 l 2xdd
 485.5 93 485.5 80 494.5 70 c 0
 503.5 60 530.5 60 539.5 60 c 1
 541.5 58 542.5 54 542.5 47 c 0
 542.5 41 540.5 34 536.5 28 c 1
 529.5 27 520.5 27 512.5 25 c 0
 450.5 10 410.5 -59 410.5 -101 c 0
 410.5 -122 422.5 -148 459.5 -148 c 0
 487.5 -148 524.5 -117 534.5 -109 c 1
 537.5 -109 540.5 -112 540.5 -120 c 0
 540.5 -125 536.5 -141 533.5 -145 c 0
 518.5 -164 466.5 -218 410.5 -218 c 0
 377.5 -218 336.5 -192 336.5 -140 c 0xbe
 336.5 -84 382.5 -24 442.5 10 c 1
 404.5 1 371.5 -7 364.5 -7 c 0
 360.5 -7 355.5 2 355.5 17 c 2
 355.5 33 l 2
 355.5 35 355.5 40 352.5 38 c 0
 336.5 27 281.5 -5 211.5 -5 c 0xdd
EndSplineSet
Substitution2: "'smcp' Lowercase to Small Capitals in Latin lookup 0 subtable" uogonek.sc
EndChar

StartChar: uni01EA
Encoding: 490 490 457
Width: 727
Flags: W
HStem: -218 76<420.5 505.926> -10 56<307.371 441.606> 611 56<281.259 428.82>
VStem: 43 156<204.749 449.761> 356 84<-166.5 -72.8477> 530 156<204.227 447.752>
LayerCount: 2
Back
SplineSet
534.493 43 m 0
 623.97 102.985 684 208.092 684 328 c 0
EndSplineSet
Fore
SplineSet
349 611 m 0
 237 611 199 484 199 350 c 0
 199 226 242 46 380 46 c 0
 487 46 530 174 530 309 c 0
 530 443 494 611 349 611 c 0
364 667 m 0
 540 667 686 515 686 328 c 0
 686 208 630 111 544 48 c 0
 489 8 440 -55 440 -110 c 0
 440 -131 460 -142 481 -142 c 0
 509 -142 548 -120 561 -109 c 0
 562 -109 566 -119 566 -127 c 0
 566 -132 563 -145 560 -149 c 0
 545 -168 493 -218 437 -218 c 0
 404 -218 356 -193 356 -140 c 0
 356 -96 396 -32 443 1 c 1
 421 -7 389 -10 364 -10 c 0
 188 -10 43 141 43 328 c 0
 43 515 188 667 364 667 c 0
EndSplineSet
EndChar

StartChar: uni01EB
Encoding: 491 491 458
Width: 522
Flags: W
HStem: -218 76<311.5 396.926> -7 55<215.948 318.205> 394 55<199.468 302.656>
VStem: 25 142<125.682 316.823> 247 84<-166.5 -73.3785> 351 144<123.525 315.622>
LayerCount: 2
Fore
SplineSet
260 449 m 0
 391 449 495 347 495 221 c 0
 495 169 478 121 448 83 c 0
 389 8 331 -57 331 -110 c 0
 331 -131 351 -142 372 -142 c 0
 400 -142 439 -120 452 -109 c 0
 453 -109 457 -119 457 -127 c 0
 457 -132 454 -145 451 -149 c 0
 436 -168 384 -218 328 -218 c 0
 295 -218 247 -193 247 -140 c 0
 247 -98 287 -32 331 3 c 1
 309 -4 285 -7 260 -7 c 0
 129 -7 25 95 25 221 c 0
 25 347 129 449 260 449 c 0
246 394 m 0
 183 394 167 315 167 252 c 0
 167 163 181 48 270 48 c 0
 332 48 351 124 351 186 c 0
 351 277 337 394 246 394 c 0
EndSplineSet
EndChar

StartChar: a.sc
Encoding: 65563 -1 473
Width: 500
VWidth: 0
Flags: W
HStem: -4 34<115.619 169.538 255.855 299.072 451.929 499.244> 131 38<157.548 258.546>
LayerCount: 2
Fore
SplineSet
54.5469 51 m 0
 63.5469 64 68.5469 81 78.5469 103 c 0
 134.547 239 170.547 311 223.547 436 c 0
 228.547 448 245.547 461 253.547 461 c 0
 259.547 461 263.547 457 266.547 450 c 2
 415.547 114 l 2
 424.547 95 436.547 72 442.547 59 c 0
 455.547 33 491.547 30 496.547 30 c 1
 501.547 22 502.547 0 498.547 -4 c 1
 471.547 -2 411.547 2 381.547 2 c 0
 349.547 2 283.547 -2 258.547 -4 c 1
 253.547 1 253.547 30 258.547 30 c 0
 270.547 30 289.547 34 299.547 42 c 0
 303.547 45 305.547 48 305.547 52 c 0
 305.547 63 297.547 85 287.547 105 c 2
 276.547 128 l 17
 275.547 128 273.547 130 271.547 130 c 0
 245.547 132 229.547 131 212.547 131 c 0
 184.547 131 171.547 131 147.547 130 c 0
 145.547 130 141.547 127 140.547 127 c 1
 135.547 116 134.547 114 131.547 106 c 0
 125.547 89 113.547 63 113.547 53 c 0
 113.547 35 161.547 30 166.547 30 c 1
 172.547 24 170.547 0 167.547 -4 c 1
 143.547 -1 117.547 3 87.5469 3 c 0
 55.5469 3 32.5469 -1 8.54688 -4 c 1
 4.54688 0 3.54688 19 7.54688 29 c 1
 15.5469 29 47.5469 40 54.5469 51 c 0
258.547 174 m 9
 206.547 283 l 1
 157.547 174 l 17
 157.547 173 158.547 172 159.547 172 c 0
 173.547 170 193.547 169 209.547 169 c 0
 230.547 169 235.547 169 256.547 171 c 0
 257.547 171 258.547 173 258.547 174 c 9
EndSplineSet
EndChar

